<?xml version="1.0" encoding="utf-8"?>
<!-- Generator: Adobe Illustrator 28.0.0, SVG Export Plug-In . SVG Version: 6.00 Build 0)  -->
<svg version="1.1" id="Layer_1" xmlns="http://www.w3.org/2000/svg" xmlns:xlink="http://www.w3.org/1999/xlink" x="0px" y="0px"
	 viewBox="0 0 200 200" style="enable-background:new 0 0 200 200;" xml:space="preserve">
<style type="text/css">
	.st0{fill:none;}
</style>
<g>
	<path class="st0" d="M85.91,38.64c-0.01,0.01-0.02,0.01-0.04,0.01C85.88,38.65,85.9,38.65,85.91,38.64z"/>
	<path class="st0" d="M103.94,45.67L103.94,45.67c0.11,0.09,0.22,0.18,0.33,0.27C104.16,45.85,104.05,45.76,103.94,45.67z"/>
	<path d="M68.63,178.07c3.87,0.31,7.75,0.58,11.62,0.91c3.6,0.31,7.19,0.85,10.79,0.96c6.23,0.19,12.47,0.14,18.7,0.17
		c1.17,0.01,2.35-0.05,3.52-0.17c6.2-0.61,12.39-1.27,18.58-1.88c4.21-0.41,8.43-0.77,12.65-1.17c0.53-0.05,1.05-0.25,1.57-0.4
		c2.17-0.59,4.33-1.22,6.51-1.79c4.36-1.14,8.74-2.24,13.1-3.41c0.85-0.23,1.68-0.67,2.43-1.14c0.82-0.52,0.96-1.21,0.59-2.13
		c-0.17-0.42-0.42-0.79-0.63-1.2c-1.51-3.02-3.7-5.53-5.83-8.12c-2.02-2.45-4.47-4.12-7.42-5.24c-2.09-0.8-4.09-1.85-6.26-2.84
		c0.4-0.64,0.74-1.16,1.05-1.69c0.64-1.08,1.49-2.1,1.87-3.27c0.97-2.91,1.6-5.89,1.66-9.01c0.09-5.11-0.62-10.11-1.94-14.99
		c-2.56-9.5-5.31-18.94-7.98-28.41c-0.49-1.74-0.99-3.47-1.44-5.22c-1.13-4.37-1.95-8.8-2.66-13.26c-0.54-3.39-1.21-6.75-1.76-10.14
		c-0.46-2.85-0.68-5.74-1.28-8.56c-0.73-3.44-1.64-6.84-2.66-10.21c-2.65-8.76-7.7-15.85-15.13-21.21
		c-1.62-1.17-3.35-2.11-5.21-2.85c-5.29-2.09-10.77-2.28-16.28-1.48c-3.86,0.56-7.58,1.73-10.74,4.2c-1.34,1.05-2.69,2.1-4.06,3.16
		c-1.31,0.1-2.67,0.1-4,0.32c-6.13,1.02-11.45,3.75-16.13,7.79c-2.59,2.23-4.48,4.98-5.67,8.15c-0.76,2.02-1.38,4.12-1.74,6.25
		c-0.55,3.2-0.76,6.45-1.21,9.67c-0.64,4.57-0.95,9.14-1.07,13.76c-0.11,4.5-0.56,9.01-1.1,13.49c-0.53,4.39-1.41,8.73-2.04,13.1
		c-0.9,6.21-2.77,12.13-5.06,17.93c-0.89,2.26-1.87,4.5-2.74,6.77c-1.55,4.06-2.71,8.21-2.97,12.59c-0.25,4.1-0.32,8.15,2.2,11.73
		c0.6,0.86,1.21,1.71,1.88,2.65c-2.4,1.38-4.2,3.28-5.55,5.55c-1.33,2.25-2.55,4.58-3.63,6.96c-0.81,1.8-1.37,3.72-1.94,5.62
		c-0.34,1.11,0.01,1.71,1.17,2.03c3.91,1.08,7.8,2.36,11.78,3.08c4.87,0.89,9.75,1.87,14.73,2.14
		C62.16,177.45,65.39,177.81,68.63,178.07z M96.3,176.55c-3.4-0.76-6.43-2.37-9.45-3.97c-3.22-1.71-6.59-2.88-10.11-3.68
		c-0.44-0.1-0.89-0.13-1.33-0.24c-2.63-0.64-4.57-1.99-5.39-4.75c-0.82-2.76-1.8-5.48-2.69-8.22c-0.45-1.37-0.9-2.74-1.32-4.12
		c-0.45-1.47-0.84-2.95-1.29-4.41c-0.36-1.18-0.3-2.31,0.49-3.69c0.63-0.21,1.28-0.43,1.84-0.62c2.02,6.13,3.94,12.14,5.97,18.11
		c1.71,5.02,2.12,4.93,6.44,5.74c1.75,0.33,3.44,1.07,5.08,1.8c1.48,0.65,2.88,1.5,4.28,2.32c2.53,1.47,5.24,2.4,8.16,2.68
		c1.84,0.18,3.59-0.11,5.3-0.81c2.43-1,4.68-2.32,6.86-3.78c1.04-0.7,2.16-1.31,3.32-1.78c3.61-1.49,6.46-3.7,8.5-7.16
		c2.39-4.06,4.47-8.24,6.17-12.62c0.55-1.41,0.92-2.89,1.38-4.36c1.51-0.36,2.68,0.44,4.2,0.7c-0.3,0.91-0.46,1.69-0.8,2.38
		c-1.64,3.32-3.25,6.65-5.02,9.9c-1.78,3.26-4.06,6.19-6.74,8.76c-1.16,1.11-2.6,1.92-3.89,2.9c-2.02,1.52-4.06,3-6.01,4.61
		c-2.05,1.69-4.32,2.93-6.78,3.89C101.13,177.03,98.75,177.1,96.3,176.55z M64.71,99.84c2.46-1.03,3.56-3.08,4.04-5.76
		c1.09,1.17,0.98,2.44,0.76,3.61c-0.25,1.32-0.71,2.62-1.89,3.47c-0.36,0.26-0.74,0.5-1.13,0.73c-2.53,1.45-5.17,0.14-5.44-2.8
		c-0.18-1.93,0.21-3.75,1.92-5.46c-0.14,1.17-0.21,2.05-0.35,2.93C62.34,98.24,63.01,99.31,64.71,99.84z M71.96,122.22
		c-0.03-0.55,0-1.12,0.67-1.3c0.47-0.13,0.85,0.43,0.93,1.35c0.11,1.16,0.21,2.33,0.35,3.75c-0.01,0.1,0,0.47-0.08,0.81
		c-0.66,2.71-1.31,5.42-2.05,8.11c-0.18,0.66-0.62,1.29-1.08,1.81c-0.5,0.55-1.59,0.09-1.63-0.66c-0.02-0.52,0.05-1.08,0.21-1.58
		c0.24-0.77,0.62-1.5,0.9-2.26C71.35,129.01,72.14,125.7,71.96,122.22z M112.59,134.22c0.37,1.98,1.44,3.43,3.18,4.49
		c2.92,1.78,5.69,3.82,8.98,4.94c0.33,0.11,0.62,0.34,1,0.56c0.03,2-0.93,3.69-1.79,5.3c-2.03,3.82-4.26,7.53-6.52,11.23
		c-1,1.64-2.44,2.84-4.39,3.4c-2.18,0.62-4.11,1.76-5.99,3.06c-1.77,1.22-3.7,2.23-5.62,3.23c-1.47,0.76-2.99,0.7-4.69,0.43
		c-3.4-0.54-6.3-2.09-9.24-3.66c-2.87-1.54-5.81-2.89-9.08-3.38c-0.52-0.08-1.02-0.33-1.61-0.53c-2.69-6.19-4.9-12.56-7.12-18.98
		c2.03-0.92,4-1.75,5.92-2.68c2.19-1.07,4.31-2.26,6.22-3.81c1.03-0.84,1.75-1.81,1.93-3.14c0.2-1.51,0.4-3.03,0.53-4.55
		c0.08-0.97,0.05-1.95,0.07-3.03c11.3,1.86,20.41-1.68,27.66-10.39c0.53,0.7,0.31,1.33,0.3,1.9c-0.07,4.15-0.2,8.29-0.22,12.44
		C112.11,132.08,112.39,133.16,112.59,134.22z M123.22,134.94c0.09,0.7,0.01,1.44-0.1,2.14c-0.04,0.28-0.38,0.52-0.75,0.99
		c-0.46-0.67-0.94-1.12-1.08-1.65c-0.29-1.13-0.48-2.3-0.56-3.47c-0.26-3.6-0.44-7.21-0.66-10.81c-0.18-2.9,0.36-5.73,0.78-8.57
		c0.01-0.07,0.12-0.13,0.19-0.21c0.86-0.19,1.14,0.3,1.14,1.04c0,1.35-0.04,2.7-0.05,4.06
		C122.06,123.99,122.55,129.47,123.22,134.94z M124.95,136.24c0.03-4.51,0.07-9.02,0.15-13.53c0.01-0.36,0.35-0.72,0.7-1.38
		c0.35,0.65,0.7,1,0.71,1.36c0.22,4.5,0.4,9,0.58,13.5c0.04,0.98-0.01,1.95-0.97,2.72C125.21,138.15,124.95,137.24,124.95,136.24z
		 M62.4,138.68c0.67-1.86,1.46-3.68,1.98-5.58c1.5-5.39,2.31-10.9,2.58-16.49c0.08-1.7,0.36-3.4,0.58-5.09
		c0.03-0.21,0.28-0.39,0.72-0.95c0.27,0.7,0.48,1.01,0.5,1.33c0.21,4.86,0.25,9.71-0.74,14.51c-0.56,2.73-1.04,5.48-1.75,8.18
		c-0.45,1.73-1.23,3.37-1.93,5.02c-0.26,0.6-0.78,1.02-1.53,0.71C62.23,140.07,62.1,139.51,62.4,138.68z M138.28,175.31
		c-11.01,1.02-21.99,2.49-33.19,2.73c0.18-0.37,0.21-0.6,0.33-0.66c2.87-1.41,5.26-3.45,7.56-5.63c1.31-1.25,2.73-2.34,4.36-3.17
		c2.45-1.24,4.41-3.12,6.21-5.16c2.77-3.13,4.96-6.65,6.8-10.39c1.19-2.43,2.34-4.88,3.52-7.31c0.15-0.31,0.39-0.58,0.63-0.92
		c1.89,0.77,3.7,1.51,5.67,2.32c-0.15,0.61-0.3,1.1-0.39,1.6c-0.36,1.85-0.71,3.71-1.05,5.57c-0.61,3.29-1.12,6.59-0.76,9.95
		c0.23,2.15,0.54,4.29,0.9,6.42c0.24,1.41,0.49,2.81,0.49,4.32C138.95,175.11,138.62,175.28,138.28,175.31z M141.49,174.66
		c-0.76-4.35-1.94-8.53-1.87-12.88c0.07-4.32,0.68-8.6,1.36-12.86c0.05-0.34,0.26-0.66,0.46-1.15c2.22,1.14,2.9,2.18,2.27,4.12
		c-1.53,4.66-1.36,9.44-1.18,14.2c0.09,2.49,0.84,4.95,1.29,7.43c0.06,0.33,0.09,0.67,0.16,1.15
		C143.09,174.66,142.32,174.66,141.49,174.66z M147.39,152.44c2.7,1.25,5.38,2.55,8.08,3.77c1.68,0.76,3.07,1.81,4.2,3.3
		c2.17,2.87,4.66,5.52,6.13,9.09c-0.4,0.24-0.79,0.6-1.25,0.73c-4.18,1.12-8.37,2.19-12.56,3.27c-1.05,0.27-2.08,0.57-3.13,0.83
		c-0.6,0.15-1.21,0.25-2.07,0.43c-1.03-2.61-1.6-5.09-1.7-7.58c-0.16-3.87,0-7.76,0.04-11.64c0.01-0.9,0.02-1.82,0.87-2.63
		C146.41,152.13,146.93,152.22,147.39,152.44z M137.17,106.19c0.02-0.18,0.35-0.37,0.58-0.46c0.12-0.05,0.38,0.07,0.46,0.19
		c0.19,0.29,0.37,0.61,0.46,0.95c1.29,4.81,3.27,9.36,5.2,13.93c1.88,4.47,2.18,9.08,1.24,13.8c-0.51,2.56-0.91,5.15-2.04,7.56
		c-0.56,1.18-0.52,1.2-1.89,2.12c-0.74-0.18-0.99-0.77-0.97-1.42c0.02-0.8,0.16-1.61,0.33-2.4c0.53-2.47,1.22-4.91,1.61-7.4
		c0.59-3.78,0.31-7.57-0.62-11.28c-0.61-2.44-1.44-4.84-2.16-7.25c-0.7-2.33-1.4-4.66-2.07-7.01
		C137.17,107.08,137.13,106.62,137.17,106.19z M131.78,75.49c1.45,0.24,2.43,1.04,3.16,2.29c2.24,3.86,1.45,7.52-0.91,10.91
		c-1.41,2.02-3.33,3.57-5.99,3.78c-0.25,0.02-0.48,0.2-0.86,0.36c0.09,0.88,0.14,1.77,0.26,2.65c0.24,1.74,1.32,2.7,2.95,3.12
		c1.3,0.34,2.14-0.05,2.43-1.41c0.24-1.12,0.25-2.33,0.13-3.47c-0.06-0.6,0.11-1,0.36-1.44c-0.01-0.03-0.02-0.05-0.03-0.08
		c-0.03-0.02-0.07-0.03-0.1-0.05c0.03,0.01,0.06,0.02,0.09,0.02l0.07,0.05c-0.01,0.02-0.02,0.03-0.03,0.05
		c0.3,0.71,0.58,1.44,0.91,2.13c0.9,1.85,0.23,3.54-0.6,5.16c-0.7,1.36-2.92,1.82-4.59,1.08c-3.08-1.37-4.05-4.38-2.39-7.75
		c-0.26-0.28-0.55-0.6-0.88-0.94c0.74-3.29,1.49-6.6,2.29-10.12c1.68,1.86,1.79,4.48,3.47,6.04c1.08-0.12,1.17-0.64,0.82-1.34
		c-0.88-1.78-1.78-3.55-2.68-5.32c-0.29-0.56-0.57-1.13-0.89-1.67C127.51,77.42,129.91,75.18,131.78,75.49z M103.27,34.18
		c2.85,1.81,5.21,4.12,6.98,7.03c1.07,1.77,2.25,3.48,3.48,5.14c1.41,1.9,3.21,3.38,5.16,4.72c2.13,1.46,3.99,3.34,6.53,4.59
		c-0.23,0.09-0.51,0.31-0.67,0.24c-1.5-0.59-3.03-1.13-4.45-1.89c-1.35-0.72-2.56-1.68-3.84-2.52c-2.32-1.52-3.93-3.69-5.48-5.91
		c-1.44-2.07-2.63-4.31-4.17-6.29c-2.22-2.85-5.18-4.73-8.75-5.46c-4.04-0.82-7.45,0.45-10.35,3.28c-0.56,0.55-1.19,1.03-1.8,1.53
		c-0.01,0.01-0.02,0.01-0.04,0.01c-0.05-0.01-0.13-0.05-0.19-0.06c-0.04-0.12-0.13-0.27-0.15-0.37c-0.01-0.03,0-0.06,0.01-0.09
		c2.21-3.42,5.41-5.1,9.41-5.51C97.9,32.31,100.72,32.56,103.27,34.18z M103.91,45.64L103.91,45.64L103.91,45.64
		c-0.23-0.15-0.46-0.3-0.69-0.45l-0.03-0.13l0.11,0.05c0.22,0.15,0.45,0.3,0.67,0.46c-0.01,0.03-0.02,0.06-0.03,0.1
		c0.11,0.09,0.22,0.18,0.33,0.27c0.37,0.29,0.74,0.57,1.07,0.9c2.67,2.68,5.32,5.38,7.97,8.09c0.23,0.24,0.42,0.52,0.77,0.96
		c-1.35,0-2.28-0.53-3.16-1.12c-3.24-2.17-5.41-5.23-7.07-8.7c-0.05-0.1,0.03-0.25,0.09-0.4C103.93,45.66,103.92,45.65,103.91,45.64
		z M85.76,32.58c2.76-2.58,5.97-3.9,9.81-3.52c1.6,0.16,3.2,0.22,4.77,0.32c0.11,0.86-0.37,0.88-0.82,0.89
		c-1.52,0.04-3.05,0.05-4.57,0.09c-2.98,0.07-5.57,1.26-8.06,2.76c-0.38,0.23-0.76,0.44-1.14,0.66c-0.13-0.11-0.26-0.22-0.39-0.34
		C85.49,33.15,85.55,32.79,85.76,32.58z M86.39,43.32c0.64-0.89,1.3-1.86,2.02-2.78c1.31-1.68,3-2.36,5.34-1.86
		c-2.96,1.37-2.96,1.37-3.92,2.59c2.61,0.47,4.85-1.63,7.71-0.79c-1.05,0.28-1.83,0.49-2.62,0.69c0,0.14,0,0.28,0,0.42
		c0.74,0.14,1.49,0.27,2.23,0.44c0.79,0.17,1.57,0.38,2.51,0.61c1.16,2.06,2.31,4.2,3.55,6.29c0.88,1.47,1.79,2.93,2.84,4.28
		c2.37,3.06,5.56,4.85,9.36,5.47c1.85,0.3,3.34,1.09,4.77,2.3c2.06,1.74,4.33,3.24,6.52,4.84c0.5,0.37,1.02,0.72,1.62,1.14
		c-0.23,1.53-0.47,3.03-0.7,4.54c-0.68,4.46-1.29,8.93-2.03,13.38c-1.14,6.85-3.59,13.24-7.36,19.06c-3.41,5.27-7.66,9.8-12.76,13.5
		c-3.2,2.32-6.72,3.07-10.51,2c-1.45-0.41-2.86-1.11-4.15-1.9c-2.71-1.66-4.98-3.9-7.17-6.17c-6.96-7.21-11.26-15.83-13.25-25.61
		c-0.68-3.36-1.15-6.76-1.74-10.13c-0.21-1.2-0.09-2.3,0.54-3.38c2.85-4.93,3.28-10.27,2.31-15.74c-0.44-2.49,0.22-4.45,1.86-6.19
		c0.93-0.98,1.89-1.94,2.91-2.83c2.19-1.93,4.55-3.54,7.63-3.69C84.69,43.76,85.47,43.5,86.39,43.32z M82.77,41.22
		c-0.52,0.06-1.04,0.08-1.55,0.18c-2.42,0.49-4.67,1.37-6.6,2.96c-0.5,0.41-1.06,0.73-1.61,1.08c-0.03,0.06-0.05,0.11-0.08,0.17
		c-0.04,0.04-0.08,0.09-0.13,0.13c-0.03,0.12-0.07,0.24-0.1,0.36c-0.03-0.06-0.09-0.14-0.08-0.16c0.05-0.07,0.11-0.13,0.18-0.2
		c0.02-0.07,0.04-0.13,0.06-0.2c0.05-0.03,0.1-0.06,0.15-0.1c1.29-2.85,3.75-4.08,6.67-4.58C80.68,40.7,81.73,40.84,82.77,41.22z
		 M77.78,31.18c1.45,0.2,3.02,0.34,3.61,2.41c-2.28-0.13-4.17-0.47-6.02-0.28c-1.72,0.18-3.38,0.91-5.28,1.46
		C71.67,31.9,74.29,30.71,77.78,31.18z M67.63,68.05c0.71-2.67,1.44-5.33,2.33-7.96c0.26,3.27-0.1,6.41-1.93,9.77
		c-0.28-0.68-0.38-0.84-0.4-1.01C67.6,68.58,67.57,68.3,67.63,68.05z M61.46,77.37c1.15-1.54,3.11-1.88,4.55-0.94
		c1.31,0.85,1.71,2.05,1.07,3.47c-0.37,0.82-0.84,1.59-1.24,2.4c-0.8,1.61-1.6,3.23-2.35,4.86c-0.28,0.6-0.01,1.03,0.89,1.16
		c1.66-1.56,1.81-4.14,3.4-6.1c0.85,3.43,1.64,6.63,2.41,9.83c0.03,0.14-0.1,0.33-0.19,0.6c-1.69,0.47-3.34,0.24-4.87-0.66
		c-3.57-2.09-5.27-5.35-5.52-9.37C59.5,80.69,60.32,78.91,61.46,77.37z M50.25,173.78c-5.67-0.41-10.95-1.76-16.34-3.32
		c0.41-2.58,1.36-4.79,2.47-6.95c0.74-1.44,1.52-2.87,2.32-4.29c1.31-2.32,2.99-4.27,5.42-5.51c1.99-1.02,3.86-2.29,6.3-2.82
		c0.03,1.36-0.02,2.59,0.1,3.81c0.28,2.87,0.61,5.74,0.99,8.6C51.99,166.87,51.23,170.25,50.25,173.78z M45.1,135.46
		c-0.71,3.74-0.83,7.53-0.05,11.3c0.09,0.44,0.26,0.91,0.17,1.33c-0.08,0.37-0.4,0.91-0.7,0.97c-0.33,0.07-1.02-0.22-1.11-0.49
		c-0.39-1.19-0.78-2.42-0.88-3.66c-0.39-4.72,0.15-9.32,1.41-13.92c1.5-5.51,3.46-10.82,5.75-16.02c0.76-1.73,1.56-3.45,2.39-5.15
		c1.56-3.2,2.48-6.57,2.9-10.09c0.03-0.26,0.15-0.51,0.26-0.84c0.93-0.12,1.31,0.25,1.21,0.88c-0.31,2.05-0.5,4.14-1.08,6.12
		c-0.82,2.76-1.86,5.46-2.96,8.12C49.51,121,46.52,127.97,45.1,135.46z M54.82,173.41c-0.05,0.34-0.29,0.64-0.53,1.15
		c-0.49-0.12-0.96-0.24-1.62-0.4c0.26-1.34,0.49-2.56,0.74-3.78c0.75-3.6,0.42-7.17-0.17-10.75c-0.53-3.2-0.96-6.42-0.41-9.69
		c0.21-1.23,0.86-1.89,2-2.18c0.09,0.16,0.16,0.23,0.16,0.3c0.21,6.39,0.49,12.79,0.57,19.18C55.6,169.3,55.11,171.36,54.82,173.41z
		 M56.92,160.61c-0.31-4.23-0.48-8.48-0.69-12.72c-0.02-0.35,0.06-0.71,0.09-1.14c2.26-0.87,4.38-2.05,6.96-2.48
		c-0.05,3.29,0.92,6.18,1.78,9.11c0.99,3.37,1.91,6.76,2.94,10.13c1.18,3.86,3.46,6.2,7.42,6.96c1.59,0.31,3.16,0.73,4.71,1.22
		c1.54,0.49,3.08,1.03,4.54,1.72c2.28,1.07,4.5,2.29,6.74,3.45c0.31,0.16,0.6,0.34,1.5,0.85c-2.92,0.11-34.09-2.67-36.57-3.2
		c0.11-0.76,0.18-1.55,0.34-2.31C57.48,168.36,57.2,164.5,56.92,160.61z"/>
	<path d="M103.97,45.57c0,0-0.01,0.02-0.03,0.03L103.97,45.57z"/>
	<path d="M103.91,45.64L103.91,45.64L103.91,45.64C103.91,45.64,103.91,45.64,103.91,45.64z"/>
	<path d="M107.65,74.63c0.11,0.59,0.25,1.18,0.36,1.72c-0.67,0.39-1.22,0.71-1.95,1.13c2.01,0.54,9.01,0.72,11.51,0.32
		c-1.26-0.5-2.32-0.92-3.45-1.37c0.51-1.06,0.96-2.01,1.45-3.03c2.33,0.44,4.58,2.01,7.16,0.08c-0.69-0.16-1.09-0.25-1.5-0.35
		c-0.86-0.2-1.78-0.28-2.57-0.63c-4.5-1.98-9.1-1.78-13.75-0.71c-0.29,0.07-0.51,0.4-1.04,0.84c1.37,0.13,2.39,0.24,3.51,0.34
		C107.48,73.59,107.55,74.11,107.65,74.63z"/>
	<path d="M76.02,72.23c-1.3,0.53-2.51,1.27-4.35,1.28c2.51,2.06,4.54,0.08,6.66-0.08c0.51,1.02,0.98,1.97,1.41,2.83
		c-0.82,1.06-2.47,0.53-3.17,1.72c1.87,0,3.67,0.03,5.47-0.01c1.87-0.04,3.77,0.3,5.92-0.44c-0.53-0.35-0.79-0.55-1.07-0.71
		c-0.36-0.19-0.73-0.35-1.06-0.51c0.31-1.23,0.57-2.27,0.85-3.41c0.99-0.06,1.96-0.12,3.21-0.2c-0.4-0.42-0.59-0.8-0.85-0.87
		C84.67,70.75,80.29,70.5,76.02,72.23z"/>
	<path d="M94.58,88.51c-0.05,1.08-0.13,2.18,0.02,3.24c0.27,2,2.24,3.02,4.06,2.13c1.57-0.76,2.84-1.91,3.81-3.36
		c0.19-0.28,0.24-0.66,0.51-1.43c-1.76,1.79-3.32,2.83-4.57,3.18c-1.04,0.28-1.8-0.19-1.92-1.27c-0.07-0.62-0.06-1.26,0.01-1.89
		c0.69-6.06,0.21-12.06-0.94-18.02c-0.16-0.85-0.49-1.66-0.74-2.49c-0.2,0.02-0.39,0.04-0.59,0.07c-0.26,1.84-0.14,3.72,0.07,5.54
		C94.87,78.97,94.82,83.73,94.58,88.51z"/>
	<path d="M72.11,67.52c1.34-1.02,2.35-1.87,3.44-2.58c3.36-2.2,6.87-3.13,10.72-1.21c0.79,0.39,1.54,0.97,3.03,0.75
		c-0.33-0.63-0.44-1.2-0.78-1.45c-2.43-1.78-5.14-2.68-8.14-1.96c-1.57,0.38-3.1,0.98-4.57,1.66C73.98,63.59,72.66,65,72.11,67.52z"
		/>
	<path d="M106.55,64.49c1-0.39,1.94-0.95,2.94-1.34c2.75-1.07,5.54-1.68,8.34-0.19c0.86,0.46,1.64,1.05,2.99,1.93
		c-0.97-2.38-2.63-3.17-4.2-3.93c-3.71-1.78-7.94-0.54-10.93,2.26c-0.18,0.17-0.2,0.74-0.05,0.96
		C105.79,64.4,106.31,64.58,106.55,64.49z"/>
	<path d="M99.67,101.54c2.78,0.29,5.3-0.57,7.71-1.83c0.21-0.11,0.19-0.69,0.37-1.45c-1.93,0.64-3.28,1.1-4.63,1.55
		c-1.29,0.43-2.77,0.31-3.97,1.27C99.44,101.34,99.55,101.53,99.67,101.54z"/>
	<path d="M88.68,101.09c1.94,0.94,3.19,1.18,5.38,0.96c0.58-0.06,1.27-0.03,1.5-0.88c-1.9-0.95-4-0.8-6.01-1.1
		C88.99,99.99,88.56,100.4,88.68,101.09z"/>
	<path d="M97.78,106.23c0.95-0.06,1.98-0.16,2.34-1.93c-2.06,0.1-3.82-0.15-5.82,0.74C95.35,106.33,96.58,106.31,97.78,106.23z"/>
	<path d="M73.03,150.41c1.51,0.42,2.59,0.01,3.6-0.43c1.98-0.87,4-0.84,6.07-0.57c0.89,0.12,1.78,0.26,2.67,0.32
		c0.97,0.06,1.96,0.08,3.33-0.8c-2.7-0.75-5.01-0.98-7.3-1.33C78.25,147.1,75.72,148.39,73.03,150.41z"/>
	<path d="M110.27,149.99c0.71-0.04,1.43-0.18,2.12-0.37c2.53-0.71,5.07-1.18,7.72-0.64c0.63,0.13,1.35-0.14,2.33-0.26
		c-4.68-2.49-10.26-2.11-13.07,0.8C109.69,149.7,109.99,150.01,110.27,149.99z"/>
</g>
</svg>
