<?xml version="1.0" encoding="utf-8"?>
<!-- Generator: Adobe Illustrator 28.0.0, SVG Export Plug-In . SVG Version: 6.00 Build 0)  -->
<svg version="1.1" id="Layer_1" xmlns="http://www.w3.org/2000/svg" xmlns:xlink="http://www.w3.org/1999/xlink" x="0px" y="0px"
	 viewBox="0 0 200 200" style="enable-background:new 0 0 200 200;" xml:space="preserve">
<style type="text/css">
	.st0{fill:none;}
	.st1{stroke:#000000;stroke-width:0.75;stroke-miterlimit:10;}
	.st2{stroke:#000000;stroke-width:0.4942;stroke-miterlimit:10;}
</style>
<g>
	<g>
		<path class="st0" d="M128.47,144.27c0.01,0.03,0.01,0.06,0.02,0.09C128.48,144.33,128.47,144.3,128.47,144.27L128.47,144.27z"/>
		<path class="st0" d="M128.51,144.39c0-0.01-0.01-0.02-0.01-0.03C128.5,144.37,128.51,144.38,128.51,144.39L128.51,144.39z"/>
		<path class="st0" d="M128.94,144.46c0.14,0,0.27,0.01,0.41,0.01C129.21,144.47,129.08,144.47,128.94,144.46z"/>
		<path class="st0" d="M128.59,144.45L128.59,144.45c0.05,0,0.1,0.01,0.15,0.01C128.69,144.46,128.64,144.45,128.59,144.45z"/>
		<path class="st0" d="M127.23,143.43c-0.07,0.03-0.13,0.05-0.2,0.08c-0.06-0.04-0.12-0.08-0.18-0.12c0.06,0.04,0.12,0.08,0.18,0.12
			C127.1,143.48,127.16,143.45,127.23,143.43z"/>
		<path d="M51.06,178.83c8.63,0,17.26-0.08,25.89,0.3c7.51,0.33,15.04,0.21,22.56,0.2c3.8-0.01,7.61-0.31,11.41-0.32
			c5.85-0.01,11.67-0.71,17.53-0.47c1.75,0.07,3.52-0.07,5.28-0.2c5.83-0.42,11.66-0.85,17.48-1.34c2.12-0.18,4.24-0.48,6.34-0.8
			c3.34-0.51,6.37-1.97,9.45-3.23c1.01-0.41,1.96-1.07,2.81-1.77c1.5-1.23,1.59-1.91,0.68-3.6c-0.52-0.98-1.07-1.96-1.66-2.9
			c-1.84-2.91-3.76-5.81-6.48-7.95c-5.82-4.57-12.4-7.71-19.46-9.93c-5.38-1.7-10.67-3.66-16.05-5.52
			c-0.35-1.71-0.76-3.24-0.96-4.79c-0.4-3.12-1.64-5.86-3.43-8.41c-1.01-1.44-2.26-2.42-4-2.77c-1.33-0.27-2.65-0.61-4.09-0.95
			c0-1.77-0.04-3.43,0.01-5.09c0.05-1.66,0.2-3.32,0.3-4.88c1.05-0.87,1.98-1.64,2.85-2.37c3.59,0.14,8.07-0.65,10.99-1.93
			c0-0.88,0.04-1.81-0.01-2.73c-0.06-1.01-0.25-2.02-0.32-3.04c-0.07-0.92-0.08-1.86-0.06-2.78c0.02-0.9-0.58-1.88,0.42-2.87
			c1.24,3.64,1.31,7.33,1.87,11.08c0.82-0.31,1.49-0.57,2.09-0.79c0.71-1.54,0.47-3.03,0.37-4.5c-0.05-0.74-0.23-1.47-0.21-2.21
			c0.01-0.31,0.38-0.62,0.89-1.37c0.31,2.73-0.07,5,0.84,7.39c1.71-1.12,3.65-1.51,5.22-2.86c-0.48-5.35-0.86-10.67-1.08-16.48
			c1.58,1.79,1.02,3.55,1.3,5.12c0.31,1.73,0.58,3.47,0.86,5.2c0.26,1.59,0,3.27,0.77,5.01c2.07-1.47,3.54-3.18,3.69-5.51
			c0.19-2.95,0.25-5.97-0.11-8.89c-1.13-9.22-3.04-18.29-5.77-27.17c-0.24-0.79-0.45-1.61-0.57-2.43c-1.18-7.8-3.7-15.04-8.01-21.74
			c-5.1-7.91-12.01-13.29-20.81-16.33c-5.02-1.73-10.11-2.06-15.32-0.65c-2.29,0.62-4.26,1.75-6.09,2.94
			c-1.51-0.38-2.83-0.88-4.19-1.03c-7.58-0.84-14.1,1.75-19.67,6.69c-2.99,2.65-5.28,5.98-7.15,9.53
			c-2.51,4.78-4.52,9.76-5.76,15.03c-0.93,3.97-1.87,7.94-2.79,11.91c-0.4,1.72-0.82,3.43-1.12,5.16c-0.74,4.29-1.41,8.6-2.14,12.89
			c-0.67,3.92-1.94,7.74-2.07,11.76c-0.03,0.94-0.22,1.89,0.35,2.7c0.61,0.87,1.26,1.76,2.48,2.24c0.33-1.35,0.63-2.5,0.88-3.66
			c0.63-2.9,1.21-5.81,1.88-8.7c0.12-0.5-0.02-1.39,1.26-1.34c-0.76,5.13-1.97,10.14-2.94,15.22c1.06,0.71,1.96,1.31,3.07,2.05
			c0.44-1.08,0.88-1.89,1.1-2.76c0.84-3.23,1.61-6.47,2.4-9.71c0.14-0.58,0.1-1.28,1.05-1.43c0.29,5.21-1.5,10.04-2.56,15.13
			c1.67,0.67,3.18,1.28,4.85,1.96c0.21-0.65,0.38-1.05,0.47-1.48c0.42-2,0.79-4,1.25-5.99c0.09-0.41,0.47-0.76,0.95-1.48
			c0.43,3.47-0.41,6.33-0.89,9.43c4.88,1.89,10.01,1.79,14.87,2.28c1.49,1.22,2.8,2.4,4.23,3.43c1.43,1.02,2.97,1.88,4.61,2.9
			c0.08,2.48,0.41,5.04-0.04,7.52c-1.65,0.51-3.16,0.91-4.63,1.44c-1.96,0.71-3.25,2.05-3.78,4.13c-0.43,1.71-1,3.37-1.45,5.08
			c-0.59,2.23-1.12,4.48-1.72,6.93c-2.22,0.96-4.13,1.93-6.13,2.63c-3.76,1.31-7.6,2.41-11.37,3.7c-3.5,1.2-6.96,2.53-10.43,3.84
			c-0.51,0.19-0.99,0.51-1.46,0.8c-4.53,2.79-7.33,7.06-9.49,11.72c-1.32,2.85-2.12,5.93-3.12,8.92c-0.2,0.59-0.23,1.23-0.34,1.86
			c1.44,1.16,2.95,1.79,4.64,1.96C39.38,178.31,45.2,178.83,51.06,178.83z M127.23,143.43c-0.07,0.03-0.13,0.05-0.2,0.08
			c-0.06-0.04-0.12-0.08-0.18-0.12C126.97,143.4,127.1,143.41,127.23,143.43z M132.84,77.03c3.94,5.07,1.65,12.8-4.26,14.93
			c-0.65,0.23-1.38,0.23-2.22,0.36c0-3.44,0-6.64,0-10.05c2.16,1.02,2.68,3.47,4.8,4.58c0.32-1.65-0.2-2.85-1.13-3.85
			c-1.07-1.14-2.24-2.18-3.37-3.26c-0.11-2.21,0.35-3.09,1.97-3.73C130.29,75.33,131.79,75.68,132.84,77.03z M127.45,47.85
			c0.02,0.18,0,0.37,0,0.55c-0.02,1.92-1.53,4.09-3.28,4.76c-1.12,0.43-2.41,0.17-3.06-0.62c-0.69-0.83-0.63-2.33,0.27-3.3
			c0.94-1.01,1.91-2.02,3.01-2.86C125.89,45.22,127.27,45.93,127.45,47.85z M116.93,44.46c1.22-1.25,2.49-2.43,3.53-3.85
			c0.6-0.82,1.82-0.6,2.32,0.32c0.25,0.47,0.32,1.04,0.42,1.39c-0.12,2.03-0.79,3.63-2.07,4.92c-0.49,0.5-1.22,0.87-1.9,1.06
			c-0.97,0.26-1.82-0.14-2.4-0.99C116.25,46.42,116.18,45.22,116.93,44.46z M91.41,29.33c1.3,1.72,1.85,3.7,1.79,5.89
			c-0.39-0.97-0.7-1.99-1.2-2.91c-0.57-1.04-1.27-2.01-1.98-2.97c-0.62-0.84-1.6-1.4-2.12-2.52C89.4,27.23,90.33,27.9,91.41,29.33z
			 M65.81,42.58c2.18,1,4.3,2.15,6.38,3.36c0.8,0.47,1.37,1.3,1.04,2.36c-0.29,0.94-1.16,1.38-2.81,1.37
			c-2.25-0.29-4.51-1.28-6.26-3.21c-0.45-0.5-0.72-1.32-0.76-2.01C63.31,43.14,64.67,42.05,65.81,42.58z M61.82,48.68
			c0.6-0.61,1.66-0.64,2.53-0.06c1.13,0.76,2.25,1.53,3.38,2.3c0.15,0.1,0.31,0.2,0.44,0.33c0.47,0.46,0.87,0.96,0.68,1.69
			c-0.17,0.64-0.83,1.04-2.07,1.06c-1.81-0.26-3.79-0.85-5.05-2.81C61.13,50.27,61.17,49.33,61.82,48.68z M66.41,92.25
			c-2.67,0.16-4.66-1.28-6.13-3.18c-2.7-3.5-3.23-7.86-0.39-11.84c1.13-1.58,2.61-1.95,4.39-1.21c1.64,0.69,2,1.42,1.84,3.8
			c-1.79,2.02-4.81,3.28-4.4,7.02c2.11-1.09,2.64-3.52,4.58-4.53C66.81,84.51,66.85,89.68,66.41,92.25z M74.18,107.68
			c-3.08-4.49-4.54-9.5-5.25-14.79c-0.27-2.01-0.35-4.06-0.39-6.09c-0.15-6.49-0.35-12.98-1.15-19.42
			c-0.17-1.36-0.49-2.71-0.71-3.92c2.5-3.12,4.9-6.07,7.24-9.06c1.14-1.46,2.29-2.93,3.26-4.5c2.14-3.43,4.9-6.27,7.99-8.84
			c2.1-1.75,4.42-2.66,7.19-2.21c0.73,0.12,1.4,0.11,2.15-0.21c2.57-1.09,5.11-0.56,7.51,0.58c0.99,0.47,1.95,1.11,2.76,1.85
			c4.93,4.51,9.89,8.96,13.86,14.42c1.79,2.45,4.17,4.46,6.28,6.68c0.44,0.46,0.86,0.94,1.32,1.43c-1.1,4.31-1.44,8.63-1.52,12.99
			c-0.09,4.54-0.21,9.08-0.51,13.61c-0.45,6.78-2.18,13.18-6.38,18.67c-2.24,2.93-5.2,5.08-8.65,6.34
			c-8.41,3.06-16.91,3.14-25.33,0.04C79.88,113.81,76.64,111.26,74.18,107.68z M112.13,117.64c0,2.08,0,3.92,0,5.76
			c0,1.84,0,3.67,0,5.75c-0.76,0.17-1.63,0.46-2.53,0.54c-3.13,0.29-6.27,0.64-9.41,0.72c-3.98,0.1-7.97-0.02-11.95-0.09
			c-0.82-0.02-1.66-0.17-2.44-0.43c-0.28-0.09-0.4-0.67-0.85-1.52c3.44,0.72,6.17,0.37,8.89-0.23c1.9-0.42,3.82-0.72,5.69-1.25
			c4.05-1.15,7.24-3.63,10.05-6.68C110.38,119.34,111.13,118.43,112.13,117.64z M76.24,131.61c0.52-2.49,2.02-3.86,4.27-4.64
			c0.69-0.24,1.4-0.41,2.16-0.63c0.48,1.11,0.44,2.07,0.11,2.99c-1.25,0.33-2.51-0.97-3.76,0.15c0.79,1.31,1.99,1.68,3.13,1.89
			c2.82,0.51,5.66,1.08,8.52,1.2c4.35,0.18,8.72,0.06,13.08-0.05c2.03-0.05,4.06-0.42,6.09-0.61c2.03-0.19,4.06-0.34,6.08-0.52
			c0.9-0.08,1.9,0.13,2.62-0.99c-0.34-0.32-0.66-0.85-1.09-0.98c-0.78-0.23-1.63-0.23-2.69-0.35c-0.11-0.73-0.23-1.52-0.35-2.34
			c0.35-0.14,0.61-0.35,0.83-0.32c2.69,0.39,4.99,1.4,6.15,4.1c0.29,0.68,0.74,1.3,0.98,1.99c1.1,3.26,1.39,6.68,1.94,10.07
			c-1.04,0.74-2.01,1.2-3.15,1.27c-0.57-1.49-1.11-2.95-1.69-4.39c-0.04-0.11-0.32-0.12-0.67-0.24c-0.17,1.78,0.54,3.4,0.6,5.27
			c-0.41,0.15-0.88,0.33-1.39,0.52c-1.3-1.57-0.86-3.69-2.27-5.5c-0.65,1.25-0.41,2.16-0.34,3.04c0.07,0.91,0.24,1.82,0.39,2.85
			c-0.62,0.18-1.1,0.33-1.71,0.5c-1.2-3.55-1.31-7.17-2.62-10.61c-0.07,0.37-0.23,0.75-0.2,1.12c0.14,2.31,0.34,4.62,0.49,6.92
			c0.06,0.9,0.45,1.81-0.02,2.71c-4.81,1.45-20.84,1.79-24.21,0.21c-0.19-1.91-0.36-3.83-0.57-5.75c-0.02-0.15-0.23-0.27-0.45-0.51
			c-1.09,1.88-0.39,4.05-1.19,6.09c-0.89-0.08-1.78-0.16-2.76-0.25c-0.5-2.54,0.47-5.18-0.9-8.02c-1.07,2.61-0.43,5.14-1.68,7.41
			c-0.65-0.16-1.25-0.3-1.99-0.49c-0.04-3.59,1.44-7.07,0.69-11.04c-0.41,0.46-0.73,0.65-0.78,0.9c-0.57,2.63-1.1,5.26-1.64,7.89
			c-0.07,0.36-0.17,0.71-0.26,1.06c-1.25-0.1-1.25-0.1-2.45-0.93C74.47,138.97,75.47,135.31,76.24,131.61z M44.71,154.7
			c2.49-1,5-1.97,7.49-2.96c1.27-0.51,2.44-0.55,3.7,0.18c3.32,1.92,7.05,2.36,10.76,2.25c4.09-0.11,7.57-1.7,9.66-5.52
			c0.22-0.41,0.5-0.78,0.77-1.16c0.11-0.15,0.26-0.25,0.59-0.56c5.3,0.97,10.71,2.21,16.28,2.41c5.55,0.2,11.07-0.03,17.04-0.71
			c-1.73,2.22-2.06,4.36-1.93,6.64c0.16,2.92,1.51,5.2,3.85,6.75c2.49,1.66,5.31,2.66,8.34,2.8c5.63,0.25,10.89-4.23,11.75-9.8
			c0.69-4.48-0.99-7.88-4.42-10.57c-0.02,0-0.04,0-0.05,0l-0.05-0.08c-0.01-0.03-0.01-0.06-0.02-0.09v0c0,0,0,0,0,0
			c0.01,0.03,0.02,0.06,0.04,0.09c0,0.01,0.01,0.02,0.01,0.03c0.03,0.02,0.05,0.04,0.08,0.06c0.05,0,0.1,0.01,0.15,0.01
			c0.07,0,0.14,0,0.2,0.01c0.14,0,0.27,0.01,0.41,0.01c0.27,0.01,0.54,0.04,0.78,0.12c1.23,0.41,2.44,0.88,3.63,1.4
			c3.14,1.39,6.38,2.46,9.64,3.55c5.46,1.83,10.63,4.35,15.35,7.72c1.52,1.08,2.98,2.21,4.14,3.68c0.22,0.27,0.38,0.59,0.66,1.01
			c-1.82-0.16-3.47-0.33-5.13-0.45c-5.85-0.42-9.86,2.54-12.89,7.16c-0.65,0.99-1.11,2.15-1.48,3.29c-0.34,1.03-0.44,2.14-0.67,3.38
			c-0.71,0.09-1.43,0.18-2.15,0.26c-2.95,0.29-5.91,0.59-8.86,0.86c-0.92,0.08-1.86,0.17-2.78,0.09c-4.74-0.36-9.45,0.08-14.17,0.28
			c-5.93,0.24-11.87,0.23-17.81,0.32c-0.27,0-0.54-0.09-0.95-0.17c-0.28-2.62-0.45-5.3-2.09-7.6c-0.87-1.23-1.79-2.39-3.03-3.22
			c-1.3-0.87-2.66-1.68-4.09-2.33c-1.46-0.67-3.08-0.54-4.67-0.51c-3.67,0.07-6.98,1.21-9.63,3.74c-2.68,2.56-3.73,5.89-3.59,9.53
			c-3.29,0.64-25.68,0.45-28.87-0.27c2.64-2.67,3.99-5.73,3.93-9.49c-0.06-3.61-0.89-6.75-3.98-9.25
			C41.94,156.42,43.15,155.32,44.71,154.7z"/>
		<path d="M86.74,74.3c0.25-0.05,0.48-0.2,0.83-0.36c-0.92-0.52-1.45-0.83-2.03-1.16c0.23-1.44-0.18-2.83,0.36-4.18
			c0.73-0.08,1.38-0.08,2-0.23c0.38-0.09,0.7-0.4,1.26-0.75c-2.36-0.91-4.45-0.59-6.55-0.26c-3.38,0.53-6.29,2.08-8.97,4.12
			c-0.74,0.56-1.31,1.25-1.19,2.52c1.69-0.72,2.97-1.74,4.39-2.52c0.22-0.12,0.53-0.08,0.97-0.14c0.05,0.85,0.09,1.65,0.12,2.18
			c-1.06,0.9-1.89,1.61-2.94,2.51c0.62,0.03,0.92,0.13,1.14,0.04c2.81-1.05,5.72-1.41,8.7-1.48C85.47,74.58,86.11,74.43,86.74,74.3z
			"/>
		<path d="M108,71.91c-0.66,0.44-1.13,0.76-1.61,1.08c1.38,0.48,2.65,0.5,3.92,0.59c1.29,0.09,2.59,0.21,3.87,0.4
			c1.22,0.18,2.43,0.48,3.64,0.73c0.06-0.14,0.12-0.27,0.17-0.41c-0.84-0.66-1.67-1.31-2.53-1.98c-0.11-0.81-0.26-1.64,0.64-2.33
			c0.78,0.42,1.57,0.89,2.39,1.29c0.77,0.37,1.41,1.14,2.51,0.98c-0.31-1.91-1.8-2.47-3.01-3.23c-3.84-2.4-8.05-3.25-12.52-2.74
			c-0.38,0.04-0.71,0.41-1.38,0.81c1.44,0.28,2.5,0.49,3.64,0.71C107.83,69.23,107.91,70.52,108,71.91z"/>
		<path d="M94.91,88.9c0.08-0.14,0.16-0.22,0.16-0.3c0-1.87-1.65-3.08-1.92-4.85c2.95-6.11,2.93-13.23-0.29-18.89
			c1.51,6.51,1.67,12.85-2.03,18.67C91.55,85.93,92.44,88.01,94.91,88.9z"/>
		<path d="M88.67,97.71c-0.58-0.23-1.08-0.28-1.35,0.43c0.97,1.44,1.01,1.59,2.07,2.05c1.53,0.66,3.09,1.24,4.67,1.77
			c3.29,1.11,6.21,0.21,8.88-1.79c1.28-0.96,1.95-2.04,2.38-3.82c-1.22-0.12-1.84,0.81-2.51,1.47c-2.51,2.49-5.42,3.05-8.69,1.95
			C92.28,99.15,90.48,98.41,88.67,97.71z"/>
		<path d="M75.14,63.62c0.27-0.06,0.56-0.1,0.79-0.23c2.58-1.48,5.33-2.47,8.28-2.9c0.27-0.04,0.58-0.08,0.78-0.24
			c0.34-0.27,0.77-0.59,0.85-0.96c0.13-0.59-0.3-1.13-0.86-1.24c-0.8-0.15-1.7-0.29-2.45-0.08c-3.07,0.86-5.79,2.35-7.64,5.07
			c-0.08,0.11-0.01,0.32-0.01,0.47C74.99,63.56,75.07,63.63,75.14,63.62z"/>
		<path d="M108.49,57.91c0.29,0.21,0.65,0.46,0.97,0.46c2.36,0,4.51,1,6.78,1.41c0.71,0.13,1.42,0.24,2.19,0.37
			c-0.07-0.37-0.04-0.6-0.14-0.71c-2.06-2.18-4.68-3.28-7.6-3.64c-0.68-0.08-1.45,0.21-2.11,0.48
			C107.95,56.55,107.92,57.5,108.49,57.91z"/>
		<path d="M94.21,104.94c0.93,1.43,2.2,0.9,3.3,0.88c0.75-0.01,1.45-0.28,1.41-1.43C97.34,104.2,95.83,104.29,94.21,104.94z"/>
	</g>
	<g>
		<path class="st1" d="M91.98,71.28c-0.48-6.19-6.83-10.64-12.85-9.65c-1.45,0.24-2.73,0.81-3.93,1.67c-0.92,0.66-1.76,1.44-2.5,2.3
			c-1.48,1.74-2.33,3.92-2.32,6.2c0.02,5.82,5.68,10.51,11.32,10.26C87.4,81.8,92.44,77.15,91.98,71.28z M81.65,81.32
			c-6.95,0.32-13.02-6.69-9.89-13.4c1.44-3.09,4.68-5.69,8.14-5.89c4.54-0.26,9.11,2.59,10.71,6.88c0.05,0.14,0.1,0.29,0.15,0.43
			C92.81,75.53,87.77,81.04,81.65,81.32z"/>
		<path class="st1" d="M123.55,71.46c-0.48-6.19-6.83-10.64-12.85-9.65c-1.45,0.24-2.73,0.81-3.93,1.67
			c-0.92,0.66-1.76,1.44-2.5,2.3c-1.48,1.74-2.33,3.92-2.32,6.2c0.02,5.82,5.68,10.51,11.32,10.26
			C118.97,81.98,124.01,77.33,123.55,71.46z M113.22,81.5c-6.95,0.32-13.02-6.69-9.89-13.4c1.44-3.09,4.68-5.69,8.14-5.89
			c4.54-0.26,9.11,2.59,10.71,6.88c0.05,0.14,0.1,0.29,0.15,0.43C124.39,75.72,119.34,81.22,113.22,81.5z"/>
		<g>
			<path class="st1" d="M91.67,71.9c1.57-1.43,2.9-2.04,5.12-1.74c1.95,0.27,4.11,1.13,5.15,2.89c0.21,0.36,0.77,0.14,0.61-0.27
				c-0.88-2.17-3.76-3.17-5.89-3.39c-1.7-0.18-4.91,0.19-5.13,2.42C91.52,71.89,91.61,71.95,91.67,71.9L91.67,71.9z"/>
		</g>
		<g>
			<path class="st2" d="M122.82,73.55c0.62,0.72,1.38,1.08,2.12,1.47c0.7,0.38,1.43,1.09,2.17,1.21c0.12,0.02,0.22-0.24,0.15-0.38
				c-0.43-0.82-1.2-1.03-1.84-1.32c-0.84-0.39-1.66-0.85-2.49-1.25C122.83,73.22,122.73,73.45,122.82,73.55L122.82,73.55z"/>
		</g>
		<g>
			<path class="st1" d="M70.63,71.48c-0.86-0.01-1.71,0.5-2.47,0.86c-0.86,0.41-1.89,0.74-2.64,1.33c-0.18,0.14-0.12,0.52,0.15,0.52
				c0.92,0,1.75-0.51,2.54-0.93c0.81-0.43,1.84-0.83,2.51-1.45C70.83,71.71,70.81,71.48,70.63,71.48L70.63,71.48z"/>
		</g>
	</g>
</g>
</svg>
