<?xml version="1.0" encoding="utf-8"?>
<!-- Generator: Adobe Illustrator 28.0.0, SVG Export Plug-In . SVG Version: 6.00 Build 0)  -->
<svg version="1.1" id="Layer_1" xmlns="http://www.w3.org/2000/svg" xmlns:xlink="http://www.w3.org/1999/xlink" x="0px" y="0px"
	 viewBox="0 0 200 200" style="enable-background:new 0 0 200 200;" xml:space="preserve">
<style type="text/css">
	.st0{fill:none;}
</style>
<g>
	<path class="st0" d="M75.61,160.53c0.06-0.17,0.11-0.34,0.17-0.51l0,0C75.72,160.19,75.66,160.36,75.61,160.53z"/>
	<path class="st0" d="M68.23,65.76c0.08-0.05,0.16-0.1,0.24-0.15l0,0C68.39,65.66,68.31,65.71,68.23,65.76L68.23,65.76z"/>
	<path class="st0" d="M97.07,106.21c0.78,0.27,1.55,0.39,2.19-0.35c0,0,0,0,0,0C98.62,106.61,97.85,106.48,97.07,106.21z"/>
	<path class="st0" d="M134.85,72.9c-0.01,0.02-0.03,0.04-0.04,0.06C134.82,72.94,134.84,72.92,134.85,72.9L134.85,72.9z"/>
	<path class="st0" d="M99.36,105.81C99.36,105.81,99.36,105.81,99.36,105.81c0.38,0.05,0.73,0.03,0.9-0.33
		C100.09,105.84,99.74,105.86,99.36,105.81z"/>
	<path class="st0" d="M72.48,57.81c0.11-0.06,0.23-0.12,0.35-0.19C72.7,57.69,72.59,57.75,72.48,57.81L72.48,57.81z"/>
	<path class="st0" d="M56.07,85.28L56.07,85.28c0.01,0.02,0.03,0.03,0.05,0.05C56.1,85.32,56.08,85.3,56.07,85.28z"/>
	<path class="st0" d="M56.06,85.92c0.06-0.15,0.13-0.29,0.16-0.44C56.19,85.63,56.11,85.77,56.06,85.92
		C56.06,85.92,56.06,85.92,56.06,85.92z"/>
	<path class="st0" d="M56.32,115.52L56.32,115.52c0.09,0.04,0.19,0.09,0.28,0.13C56.51,115.6,56.42,115.56,56.32,115.52z"/>
	<path class="st0" d="M118.65,125.02c-0.09-0.06-0.19-0.17-0.27-0.21C118.46,124.86,118.56,124.96,118.65,125.02
		C118.65,125.02,118.65,125.02,118.65,125.02z"/>
	<path class="st0" d="M130.02,97.22c-0.02,0.03-0.05,0.06-0.08,0.09C129.97,97.28,130,97.25,130.02,97.22L130.02,97.22z"/>
	<path class="st0" d="M130.72,109.79c-0.04-0.01-0.13-0.03-0.19-0.05c-0.06,0.14-0.12,0.28-0.19,0.42c0.06-0.14,0.12-0.28,0.19-0.42
		C130.59,109.76,130.68,109.78,130.72,109.79z"/>
	<path class="st0" d="M129,37.02c0.02-0.01,0.03-0.03,0.05-0.04c-0.06-0.07-0.12-0.13-0.17-0.2c0.06,0.07,0.12,0.13,0.17,0.2
		C129.03,36.99,129.01,37,129,37.02z"/>
	<path class="st0" d="M128.71,37.01c0.02,0.02,0.04,0.05,0.07,0.07C128.75,37.05,128.73,37.03,128.71,37.01z"/>
	<path class="st0" d="M118.25,125.29c-0.12-0.06-0.23-0.16-0.34-0.23l0,0C118.02,125.13,118.13,125.23,118.25,125.29z"/>
	<path class="st0" d="M78.05,133.12c0.04-0.01,0.1,0.11,0.16,0.17l0,0C78.16,133.23,78.09,133.11,78.05,133.12z"/>
	<path class="st0" d="M131.16,98.79c-0.05,0.06-0.09,0.12-0.14,0.18C131.07,98.91,131.12,98.85,131.16,98.79
		c-0.11-0.07-0.22-0.15-0.33-0.22c0,0,0,0,0,0C130.94,98.64,131.05,98.71,131.16,98.79z"/>
	<path class="st0" d="M131.03,120.42L131.03,120.42c0.01-0.02,0.02-0.05,0.03-0.07C131.05,120.37,131.04,120.4,131.03,120.42z"/>
	<path class="st0" d="M124.11,132.09c0.04,0.06,0.08,0.12,0.12,0.18C124.19,132.21,124.15,132.15,124.11,132.09L124.11,132.09z"/>
	<path class="st0" d="M101.99,55.87c-0.07-0.14-0.14-0.29-0.21-0.43C101.85,55.58,101.92,55.72,101.99,55.87
		C101.99,55.87,101.99,55.87,101.99,55.87z"/>
	<path class="st0" d="M124.32,131.98c-0.03,0.02-0.07,0.04-0.1,0.06C124.25,132.01,124.29,131.99,124.32,131.98
		c0.07,0.03,0.14,0.06,0.21,0.08c0,0,0,0,0,0C124.46,132.03,124.39,132,124.32,131.98z"/>
	<path class="st0" d="M124.91,117.16c-0.06-0.02-0.12-0.04-0.19-0.06C124.79,117.12,124.85,117.14,124.91,117.16L124.91,117.16z"/>
	<path class="st0" d="M74.83,144.25c-0.25,0.05-0.5,0.09-0.75,0.14C74.33,144.34,74.58,144.3,74.83,144.25L74.83,144.25z"/>
	<path class="st0" d="M52.69,115.54c0.14-0.07,0.28-0.14,0.42-0.21C52.97,115.4,52.83,115.47,52.69,115.54
		C52.69,115.54,52.69,115.54,52.69,115.54z"/>
	<path class="st0" d="M113.23,147.38L113.23,147.38c0.55,0.16,1.11,0.33,1.66,0.49C114.34,147.71,113.78,147.54,113.23,147.38z"/>
	<path class="st0" d="M52.38,87.57c-0.06,0.08-0.12,0.17-0.18,0.26l0,0C52.26,87.74,52.32,87.66,52.38,87.57z"/>
	<path class="st0" d="M73.17,164.83L73.17,164.83c0,0,0.02-0.02,0.04-0.04C73.19,164.81,73.17,164.83,73.17,164.83z"/>
	<path class="st0" d="M123.16,145.41c0.02-0.05,0.04-0.1,0.07-0.15l0,0C123.21,145.31,123.19,145.36,123.16,145.41L123.16,145.41z"
		/>
	<path class="st0" d="M145.17,96.78L145.17,96.78c0.15,0.16,0.3,0.31,0.45,0.47l0,0C145.47,97.09,145.32,96.93,145.17,96.78z"/>
	<path class="st0" d="M147.53,118.46c-0.01,0.12-0.02,0.24-0.03,0.36C147.51,118.7,147.52,118.58,147.53,118.46
		C147.53,118.46,147.53,118.46,147.53,118.46z"/>
	<path class="st0" d="M73.23,164.78c-0.02,0.02-0.05,0.05-0.07,0.07C73.19,164.83,73.21,164.81,73.23,164.78
		c0.09-0.15,0.18-0.29,0.28-0.44c0,0,0,0,0,0C73.42,164.49,73.32,164.63,73.23,164.78z"/>
	<path class="st0" d="M73.09,164.93L73.09,164.93c0.02-0.03,0.05-0.06,0.07-0.1C73.14,164.87,73.12,164.9,73.09,164.93z"/>
	<polygon class="st0" points="117.88,151.13 118.03,150.98 118.03,150.98 	"/>
	<path class="st0" d="M51.67,83.68c-0.05,0.24-0.09,0.47-0.14,0.71C51.57,84.16,51.62,83.92,51.67,83.68L51.67,83.68z"/>
	<path class="st0" d="M143.94,50.99c-0.06-0.08-0.13-0.16-0.19-0.24C143.81,50.83,143.87,50.91,143.94,50.99L143.94,50.99z"/>
	<path class="st0" d="M142.49,145.88c0.04-0.01,0.07-0.02,0.11-0.03C142.56,145.86,142.52,145.88,142.49,145.88L142.49,145.88z"/>
	<path class="st0" d="M52.22,86.97L52.22,86.97c0.05,0.05,0.1,0.1,0.15,0.16C52.31,87.07,52.26,87.02,52.22,86.97z"/>
	<path d="M125.01,117.15c0,0,0.01,0.01,0.02,0.02L125.01,117.15c-0.03,0-0.07,0.01-0.1,0.01l0,0
		C124.95,117.16,124.98,117.15,125.01,117.15z"/>
	<path d="M148.85,125.48c0,0-0.01,0.01-0.03,0.02C148.83,125.5,148.85,125.48,148.85,125.48c-0.01-0.01-0.03-0.02-0.04-0.04l0,0
		C148.82,125.46,148.83,125.47,148.85,125.48z"/>
	<path d="M142.35,135.64c0,0-0.02,0.02-0.04,0.03L142.35,135.64z"/>
	<path d="M125.07,117.21l-0.02-0.02C125.06,117.2,125.07,117.21,125.07,117.21L125.07,117.21z"/>
	<path d="M145.14,96.74c-0.02-0.03-0.04-0.06-0.05-0.08l0,0C145.1,96.68,145.12,96.71,145.14,96.74
		C145.14,96.74,145.14,96.74,145.14,96.74L145.14,96.74z"/>
	<rect x="124.91" y="117.16" width="0" height="0"/>
	<path d="M129.52,117.99c0,0,0.01-0.01,0.01-0.01c-0.01,0.01-0.02,0.02-0.03,0.03C129.51,118.01,129.51,118,129.52,117.99z"/>
	<polygon points="125.07,117.21 125.07,117.21 125.07,117.21 	"/>
	<path d="M129.5,118.01c0,0,0.01-0.01,0.02-0.02C129.51,118,129.51,118.01,129.5,118.01z"/>
	<path d="M112.09,146.19c0,0-0.02,0.02-0.03,0.03L112.09,146.19z"/>
	<path d="M113.19,147.31C113.2,147.31,113.2,147.3,113.19,147.31c-0.07-0.11-0.16-0.21-0.24-0.31
		C113.04,147.1,113.12,147.2,113.19,147.31C113.2,147.3,113.2,147.31,113.19,147.31z"/>
	<path d="M142.29,135.7c-0.01,0.01-0.01,0.01-0.01,0.01c0.09,0,0.17,0,0.26,0c-0.09,0-0.17,0-0.26,0L142.29,135.7z"/>
	<path d="M168.43,167.25c-0.07-0.34-0.23-0.67-0.37-0.99c-1.39-3.17-2.99-6.24-5.18-8.93c-1.1-1.36-2.44-2.56-3.84-3.63
		c-2.48-1.89-5.34-3.12-8.18-4.37c-0.51-0.23-1.24-0.22-1.46-0.94c2.89-2.72,2.89-3.81-0.07-7.07c0.48-1.9-0.72-3.22-2.11-4.48
		c1.38-1.25,2.01-2.63,2.12-4.32c0.06-0.85,0.44-1.72,0.84-2.5c1.25-2.4,1-4.8,0.12-7.2c-0.27-0.74-0.67-1.43-1.04-2.22
		c1.11-3.02,0.79-6.1,0.02-9.12c-0.29-1.14-0.54-2.19-0.4-3.35c0.22-1.78-0.34-3.32-1.63-4.58c-0.31-0.3-0.6-0.62-0.96-1
		c0.63-1.73,0.33-3.33-0.63-4.83c-0.06-0.09,0-0.26,0.04-0.4c-0.01-0.01-0.03-0.02-0.04-0.03c-0.01-0.01-0.03-0.03-0.04-0.04
		c-0.39,0.08-0.55-0.07-0.45-0.47c-0.01-0.01-0.02-0.02-0.04-0.04v0c-0.02-0.03-0.04-0.06-0.05-0.08c-1.38-0.32-1.39-0.37-1.47-2.23
		c0.3,0.46,0.57,0.87,0.82,1.24c0.23,0.35,0.44,0.67,0.65,0.99c0.04,0.01,0.07,0.02,0.11,0.03c-0.01,0.03-0.02,0.06-0.02,0.09
		c0.15,0.16,0.3,0.31,0.45,0.47c0.03-0.01,0.07-0.01,0.1-0.02c0,0.03-0.01,0.06-0.02,0.09c0.2,0.14,0.4,0.27,0.6,0.41
		c2.42,1.68,4.11,1.04,4.85-1.85c0.22-0.85,0.38-1.73,0.66-2.55c0.44-1.28,0.25-2.45-0.43-3.56c-0.37-0.59-0.82-1.14-1.01-1.39
		c0.03-2.91,0.03-5.46,0.08-8.02c0.01-0.51,0.05-1.09,0.29-1.52c1.11-1.98,0.65-3.71-0.74-5.19c1.14-2.18,0.63-4.21-0.06-6.2
		c-0.54-1.56-1.2-3.08-1.73-4.65c-0.12-0.37,0.06-0.84,0.1-1.26c0.45,0.44,0.58,0.92,0.76,1.39c0.16,0.41,0.32,0.83,0.59,1.18
		c0.63,0.83,2.06,1.16,2.88,0.65c0.75-0.47,0.96-1.17,0.74-2.07c-0.49-1.95-0.85-3.94-1.39-5.88c-0.15-0.54-0.63-1.09-1.12-1.4
		c-0.6-0.38-0.69-0.88-0.93-1.46c-0.68-1.65-1.13-3.46-2.99-4.42c-0.82-0.42-1.29-1.33-1.39-2.42c-0.07-0.7-0.63-1.43-1.14-1.99
		c-0.83-0.9-2.11-1.52-2.64-2.54c-0.97-1.88-2.34-3.24-3.99-4.45c-0.33-0.24-0.43-0.77-0.68-1.13c-0.74-1.07-1.72-1.77-3.05-1.92
		c-0.61-0.07-1.22-0.12-1.87-0.18c-0.89-1.43-2.3-1.88-3.82-2.05c-2.83-3.2-3.74-3.75-8.52-5.27c-0.4-0.13-0.75-0.45-1.09-0.72
		c-2.16-1.67-4.68-2.5-7.31-2.95c-1.34-0.23-2.55-0.57-3.7-1.31c-2.03-1.31-4.35-1.73-6.63-1.1c-1.72,0.47-3.29,0.33-4.9-0.16
		c-0.96-0.3-1.88-0.4-2.86-0.07c-1,0.34-2.04,0.55-3.03,0.92c-1.89,0.71-3.77,1.46-5.61,2.29c-0.54,0.24-1.12,0.7-1.37,1.21
		c-0.67,1.33-1.8,2.18-2.91,3.03c-1.43,1.09-2.68,2.3-3.23,3.71c-1.52,0.46-2.9,0.61-3.97,1.27c-1.63,1.02-3.32,2.17-4.49,3.66
		c-1.58,2-3.67,3.62-4.71,6.06c-0.19,0.43-0.7,0.78-1.13,1.05c-1.62,0.99-2.52,2.47-2.93,4.26c-0.31,1.37-0.48,2.78-0.74,4.33
		c-3.27,2.84-3.26,6.64-2.49,10.64c-3.95,2.37-4.91,5.83-3.67,10.08c-2.26,3.33-2.71,7.25-3.86,10.93c-0.15,0.49-0.2,1.08-0.08,1.57
		c0.24,0.98-0.08,1.94-0.03,2.86c0.1,2.03-0.6,4.26,1.06,5.87c-0.53,2.56-0.41,4.92,0.35,7.28c-1.18,1.86-1.76,3.88-1.88,6.05
		c-0.08,1.4-0.2,2.81-0.34,4.2c-0.22,2.17-0.22,4.26,1.63,5.76c-2.1,4.34-1.81,6.46,1.39,10.12c-0.3,0.74-0.57,1.57-0.96,2.35
		c-0.87,1.73-1.11,3.53-0.82,5.42c0.08,0.51,0.22,1.07,0.09,1.55c-0.69,2.5-0.13,4.72,1.1,6.33c0.11,1.6-0.02,2.79,0.31,3.84
		c0.35,1.09,1.14,2.05,1.79,3.16c-0.87,0.4-1.68,0.74-2.46,1.13c-3.88,1.94-7.88,3.65-11.3,6.39c-3.65,2.92-5.95,6.71-7.44,11.08
		c-0.27,0.79-0.11,1.42,0.58,1.84c2.94,1.82,5.93,3.65,9.37,4.26c4.44,0.79,8.92,1.38,13.41,1.88c3.69,0.41,7.42,0.54,11.12,0.86
		c9.21,0.8,18.42,0.35,27.62-0.04c8.67-0.37,17.35-0.65,26.02-0.98c4.87-0.18,9.75-0.19,14.6-0.58c9.37-0.75,18.62-2.36,27.73-4.67
		c1.78-0.45,3.49-1.26,5.15-2.09C168.48,169.49,168.73,168.65,168.43,167.25z M147.63,143.6c0.36,0.12,0.72,0.24,1.08,0.37
		c-0.09,0.21-0.18,0.42-0.26,0.62c-0.35-0.16-0.69-0.32-1.04-0.49C147.49,143.94,147.56,143.77,147.63,143.6z M148.81,125.45
		c0.01,0.01,0.03,0.02,0.04,0.04c0,0.03,0.01,0.06,0.01,0.09c0.1,0.06,0.2,0.12,0.3,0.18c-0.09,0.06-0.17,0.12-0.26,0.18
		c-0.01-0.12-0.02-0.24-0.04-0.36c-0.02-0.01-0.04-0.03-0.07-0.04C148.8,125.51,148.8,125.48,148.81,125.45
		c-0.29-0.25-0.58-0.51-0.89-0.78c-0.32-0.28-0.65-0.57-1.02-0.89c0.38-0.41,0.63-0.69,0.99-1.08
		C148.77,123.55,149.01,124.43,148.81,125.45z M145.78,104.86c0.96,1.05,1.58,1.84,1.15,3.05
		C145.48,107.07,145.46,107.02,145.78,104.86z M146.57,112.71c0.49,0.64,0.79,1.04,1.12,1.48c-0.63,1.73-1.42,3.17-3.4,3.58
		c-0.58-1.3-0.43-2.21,0.49-3.03C145.37,114.21,145.83,113.56,146.57,112.71z M145.6,129.79c0-0.02-0.01-0.03-0.01-0.04
		c-0.95,0.02-1.33-0.8-2.4-1.59c1.53,0.17,2.18,0.59,2.4,1.59c0.02,0,0.04,0,0.06,0c0.01,0.02,0.01,0.04,0.02,0.07
		c0.1,0.04,0.2,0.07,0.3,0.11c-0.08,0.06-0.15,0.12-0.23,0.19c-0.02-0.1-0.05-0.2-0.07-0.29
		C145.64,129.81,145.62,129.8,145.6,129.79z M145.66,140.31c-0.67-0.24-1.14-0.41-2.11-0.76c1.02-0.25,1.43-0.35,1.98-0.49
		C145.57,139.49,145.6,139.8,145.66,140.31z M144.52,122.26c0.08-0.75,0.15-1.4,0.23-2.08c0.42,0,0.7-0.07,0.92,0.02
		c0.31,0.12,0.58,0.35,1.01,0.62C146.18,121.83,145.6,122.25,144.52,122.26z M149.61,77.14c-0.9-0.65-1.46-1.28-1.48-2.5
		C149.35,75.14,149.91,75.77,149.61,77.14z M148.16,68.72v1.31c-0.28-0.08-0.7-0.08-0.8-0.26
		C147.03,69.15,147.39,68.85,148.16,68.72z M146.46,65.29c0.12-0.07,0.4,0.11,0.85,0.26c-0.39,0.32-0.59,0.57-0.85,0.67
		c-0.15,0.05-0.39-0.16-0.58-0.26C146.07,65.73,146.22,65.44,146.46,65.29z M146.02,57.62c-1.1-0.23-1.1-0.23-1.38-1.62
		C145.27,56.74,145.65,57.18,146.02,57.62z M144.68,60.06c0.94,0.05,1.26,0.6,1.31,1.22c0.04,0.46-0.04,1.18-0.35,1.39
		c-0.85,0.59-1.43-0.11-2.18-0.93C143.95,61.07,144.34,60.53,144.68,60.06z M143.08,109.98c0.25-0.29,0.52-0.56,0.79-0.83
		c0.19,0.23,0.38,0.47,0.57,0.7c-0.34,0.21-0.67,0.43-1.01,0.63c-0.04,0.03-0.14-0.04-0.37-0.12
		C143.07,110.15,143.04,110.03,143.08,109.98z M141.75,134.98c0.04,0.02,0.09,0.03,0.13,0.05c0.16,0.2,0.31,0.41,0.47,0.61
		c0.06,0.02,0.12,0.05,0.19,0.07c-0.09,0-0.17,0-0.26,0c-0.15-0.21-0.31-0.41-0.46-0.62C141.8,135.05,141.78,135.02,141.75,134.98
		c-0.19-0.08-0.38-0.15-0.57-0.23c-0.23-0.09-0.46-0.2-0.68-0.32c-0.18-0.1-0.23-0.41-0.36-0.65
		C141.08,133.88,141.12,133.89,141.75,134.98z M139.87,87.86c0.73,0.45,1.47,0.94,1.5,1.94c0.02,0,0.04,0.01,0.06,0.01
		c0.01,0.04,0.02,0.07,0.03,0.1c0.03,0.02,0.05,0.03,0.08,0.06c0.02,0.02-0.01,0.08-0.02,0.13c-0.02-0.06-0.04-0.12-0.06-0.18
		c0,0,0,0,0,0c-0.03-0.02-0.06-0.03-0.09-0.05c0-0.02,0-0.04,0-0.06c-1.06-0.11-1.76-0.82-2.51-1.36
		C139.02,87.67,139.48,87.62,139.87,87.86z M139.67,93.85c-0.04,0.1-0.09,0.2-0.13,0.29c-0.28-0.06-0.55-0.13-0.83-0.19
		c0.08-0.21,0.16-0.42,0.24-0.63C139.19,93.5,139.43,93.67,139.67,93.85z M139.04,73c0.04,0.01,0.09,0.01,0.13,0.02
		c-0.03,0-0.07,0.01-0.1,0.01l-0.07-0.03c0-0.01,0.01-0.02,0.01-0.03c-0.4-0.39-0.83-0.76-1.15-1.2c-0.15-0.2-0.06-0.58-0.09-1.19
		c1.09,0.73,1.58,1.36,1.25,2.39C139.01,72.98,139.02,72.99,139.04,73z M136.88,51.33c0.52-0.46,1.16-0.68,1.91-0.03
		c-0.66,0.56-1.28,1.08-1.96,1.66C136.37,52.32,136.39,51.75,136.88,51.33z M136.66,74.96c0.23-0.21,0.45-0.44,0.7-0.63
		c0.02-0.02,0.31,0.25,0.3,0.26c-0.2,0.28-0.43,0.54-0.65,0.8C136.89,75.25,136.78,75.11,136.66,74.96z M135.09,46.96
		c0.73,0.4,0.68,0.92,0.31,1.29c-0.19,0.2-0.69,0.11-1.41,0.18C134.51,47.73,134.79,47.35,135.09,46.96z M131.52,126.69
		c0.57,0.91,0.17,1.4-0.55,1.86C130.42,127.71,130.68,127.18,131.52,126.69z M123.68,88.98c0.25-1.54-0.05-3.17,0.71-4.65
		c1.29,0.63,1.4,2.3,3.28,3.07c-0.17-1.02-0.14-1.65-0.39-2.14c-0.4-0.78-0.91-1.53-1.51-2.17c-1.4-1.47-1.89-3.14-1.23-5.48
		c0.35-0.61,1.25-1.16,2.21-1.61c1.36-0.64,2.37-0.39,3.19,0.88c2.24,3.47,2.32,7.14,0.8,10.88c-0.97,2.38-2.9,3.97-4.9,5.43
		c-0.6,0.44-1.45,0.53-2.32,0.83C122.91,92.18,123.42,90.58,123.68,88.98z M123.57,95.02c0.87-0.21,1.54-0.49,2.22-0.51
		c0.48-0.01,1.18,0.18,1.41,0.53c1.34,1.98,2.62,4.04,2.54,6.54c-0.02,0.73-0.38,1.57-0.84,2.14c-0.89,1.1-2.48,1.21-3.56,0.28
		c-1.61-1.39-2.48-3.22-2.39-5.37C123,97.5,123.33,96.38,123.57,95.02z M127.76,110.14c-0.37-0.36-0.71-0.7-1.21-1.19
		c0.65-0.33,1.09-0.55,1.48-0.75C128.6,108.51,128.62,108.52,127.76,110.14z M108.66,139.64c1.08-0.36,2.11-0.71,3.49-1.17
		c1.82,2.48,3.45,4.81,4.68,7.77c-0.8-0.09-1.34-0.03-1.76-0.22C113.49,145.31,109.98,141.8,108.66,139.64z M100.46,139.31
		c-5.42,0.32-10.7-0.42-15.52-2.52c0.28-2.25,0.53-4.22,0.77-6.17c0.18-0.08,0.33-0.23,0.48-0.22c3.73,0.16,7.1-1.02,10.42-2.6
		c3.62-1.72,6.94-3.89,10.18-6.18c1.29-0.91,2.37-2.11,3.54-3.19c0.43-0.4,0.85-0.82,1.63-1.58c0.26,6.36-0.34,12.24,1.82,17.8
		C111.81,136.54,104.98,139.04,100.46,139.31z M102.43,147.55c-0.27,0.93-0.83,1.76-2.34,2.04c-2-2.24-2.25-5.07-2.98-7.96
		c1.9-0.11,3.62-0.22,5.46-0.33C103.28,143.46,103.03,145.53,102.43,147.55z M92.22,148.62c-0.41-2.86,0.09-5.05,0.35-7.4
		c0.73,0.08,1.31,0.15,1.99,0.23C94.64,143.96,94.25,146.21,92.22,148.62z M68.36,106.56c-0.28,0.79-0.84,1.57-1.47,2.11
		c-1,0.85-2.31,0.35-2.71-0.9c-0.1-0.33-0.18-0.69-0.18-1.03c0.04-2.11,0.24-4.21,0.99-6.2c0.24-0.63,0.74-1.15,1.13-1.72
		c0.33-0.48,0.67-0.95,1.12-1.59c1.22,0.44,1.58,1.35,1.69,2.31C69.19,101.9,69.16,104.28,68.36,106.56z M68.16,136.38
		c-1.21-0.83-1.51-1.68-1.18-2.8C68.63,134.5,68.63,134.5,68.16,136.38z M64.34,139.57c0.27-0.29,0.57-0.56,0.92-0.75
		c0.08-0.04,0.48,0.24,0.52,0.43c0.15,0.62-0.24,0.97-0.8,1.11c-0.14,0.04-0.32-0.06-0.65-0.14
		C64.32,139.9,64.25,139.66,64.34,139.57z M65.05,127.12c-0.37-0.68-0.6-1.5,0.55-1.9c0.26,0.72,0.52,1.43,0.91,2.51
		C65.81,127.46,65.21,127.41,65.05,127.12z M69.11,118.65c0.06-0.03,0.32,0.28,0.63,0.57c-0.36,0.24-0.6,0.45-0.88,0.56
		c-0.05,0.02-0.4-0.41-0.36-0.5C68.62,119.02,68.86,118.8,69.11,118.65z M69.39,117.41c1.04-0.53,1.64-0.1,2.35,0.36
		c-0.29,0.27-0.53,0.49-0.84,0.78C70.42,118.18,69.98,117.85,69.39,117.41z M75.51,139.99c1.84-0.97,3.67-1.99,5.71-2.79
		c0.08,0.44,0.24,0.74,0.14,0.9c-0.17,0.28-0.46,0.54-0.76,0.7c-2.95,1.57-5.9,3.12-8.87,4.66c-0.37,0.19-0.82,0.22-1.72,0.45
		C71.66,141.76,73.66,140.96,75.51,139.99z M78.13,144.64c1.69-2.26,3.64-4.3,5.64-6.39c0.85,0.47,1.54,0.84,2.23,1.22
		c-1.99,3.07-6.16,6.53-9,7.36C77.43,145.97,77.68,145.23,78.13,144.64z M81.83,127.9c0-1.59,0.07-3.18,0.08-4.77
		c0.02-1.66,0-3.32,0-4.98c0.13-0.03,0.26-0.05,0.4-0.08c0.13,0.29,0.36,0.58,0.38,0.88c0.22,3.34,0.42,6.68,0.6,10.03
		c0.07,1.41-0.25,2.71-1.41,4.2C81.53,131.14,81.83,129.51,81.83,127.9z M88.1,140.32c0.93,0.15,1.68,0.27,2.29,0.37
		c0.81,1.37-2.54,6.22-5.42,7.85C85.12,145.23,87.25,143.1,88.1,140.32z M106.88,140.19c0.84,2.28,1.93,4.26,2.16,6.6
		c-2.08-0.49-3.07-1.68-4.85-5.85C105.16,140.67,105.97,140.45,106.88,140.19z M113.47,137.92c0.72-0.55,1.21-0.91,1.81-1.37
		c2.36,1.86,4.7,3.69,7.04,5.53C119.12,141.4,116.07,140.45,113.47,137.92z M116.52,135.57c-0.03-0.02,0-0.14,0-0.44
		c3.21,1.12,6.12,2.65,9.29,4.33c-1.79,0.17-1.97,0.23-2.89-0.27C120.76,138.03,118.64,136.79,116.52,135.57z M118.84,130.72
		c-0.79-0.58-0.93-1.14-0.39-1.97C119.47,129.25,119.05,129.93,118.84,130.72z M99.72,43.66c0.38,1.09-0.38,1.48-1.24,2.1
		C98.06,44.4,98.62,43.93,99.72,43.66z M99.35,58.44c0.24,0.42,0.43,0.62,0.46,0.84c0.07,0.51,0.06,1.03,0.1,1.88
		c-0.7-0.51-1.15-0.83-1.75-1.27C98.58,59.39,98.91,58.97,99.35,58.44z M96.9,54.43c-0.57,1.8-0.57,1.82-2.21,1.1
		C95.36,55.02,95.91,54.42,96.9,54.43z M92.21,62.95c-0.89-0.18-1.28-0.73-1.27-1.8C92.29,61.3,92.29,61.3,92.21,62.95z
		 M91.89,25.48c-0.13,0.16-0.27,0.31-0.4,0.47c-0.35-0.39-0.7-0.78-1.14-1.27C91.52,24.21,91.38,25.28,91.89,25.48z M87.45,45.34
		c-0.01,0.16-0.02,0.32-0.03,0.48c-0.36,0.08-0.88,0.34-1.05,0.19c-0.26-0.22-0.27-0.72-0.52-1.54
		C86.65,44.91,87.05,45.13,87.45,45.34z M81.91,46.35c0.44,1.26,1.76,2.48,0.42,4.05C81.45,48.46,81.43,48.33,81.91,46.35z
		 M69.79,66.55c0.2,0.11,0.35,0.2,0.5,0.28c1.77,0.91,2.34,0.7,3.01-1c0.22-0.56,0.41-1.18,0.8-1.6c0.94-1.01,1.27-2.07,0.71-3.38
		c-0.17-0.4-0.2-0.86-0.32-1.44c1.25-1.07,1.5-2.57,1.57-4.22c0.08-1.74,0.75-3.44,0.28-5.23c-0.06-0.21,0.11-0.53,0.25-0.74
		c0.61-0.86,1.21-1.73,1.91-2.51c0.24-0.27,0.76-0.29,1.37-0.5c0.08,0.85,0.19,1.52,0.2,2.18c0.04,1.96,0.69,3.6,2.17,4.95
		c1.23,1.13,2.45,2.29,3.49,3.58c1.34,1.69,2.8,3.32,3.44,5.48c0.43,1.47,1.51,2.54,2.95,2.8c1.62,0.29,2.97,1.11,4.39,1.76
		c1.99,0.9,4.01,0.72,5.99,0.37c1.98-0.35,2.51-1.91,1.63-4.06c-2.16-0.41-2.23-0.49-2.07-2.27c0.92,0.67,1.7,1.26,2.08,2.27
		c1.13,0.66,2.42,1.14,3.33,2.02c1.12,1.08,2.25,1.96,3.74,2.39c0.18,0.05,0.28,0.38,0.57,0.79c-2.64,0.1-5.07,0.36-7.24,1.61
		c-0.91,0.53-1.77,1.16-2.62,1.79c-0.16,0.12-0.17,0.43-0.32,0.81c1.52,0.1,2.55-1.01,4.01-1.17c0.2,0.79,0.41,1.63,0.65,2.61
		c-0.59,0.36-1.16,0.7-1.98,1.19c0.62,0.29,1.1,0.73,1.45,0.65c2.92-0.7,5.8-0.28,8.71,0.03c0.38,0.04,0.79-0.13,1.49-0.26
		c-0.82-1.1-1.92-0.92-2.82-1.47c0.13-0.84,0.28-1.76,0.47-2.95c0.89,0.51,1.64,0.93,2.39,1.35c1.32,0.73,1.74,0.43,1.72-1.31
		c1.49,0.54,2.95,1.06,4.6,1.65c-0.02,4.28,0.23,8.62-0.23,12.93c-0.34,3.25-0.88,6.49-1.35,9.73c-0.66,4.52-2.37,8.68-4.43,12.72
		c-1.89,3.7-4.86,5.87-8.81,7.08c-6.11,1.86-12.33,2.55-18.63,1.96c-4.26-0.4-7.97-2.22-10.54-5.91c-3.17-4.57-5.28-9.57-6.63-14.95
		c-1.81-7.25-2.72-14.61-3.2-22.04c-0.14-2.11-0.34-4.22-0.52-6.28C68.64,67.61,69.22,67.08,69.79,66.55z M65.87,48.77
		c-0.11-1.02-0.16-1.49-0.22-2.05C66.73,47.16,66.73,47.16,65.87,48.77z M60.5,82.43c0.19-0.67,0.5-1.33,0.83-1.94
		c0.72-1.32,1.65-1.66,3.1-1.23c2.88,0.87,3.79,3.39,2.18,6.03c-0.69,1.13-1.36,2.28-2,3.44c-0.33,0.59-0.38,1.18,0.42,1.64
		c1.32-0.48,1.18-2.27,2.6-2.97c0.81,2.79,1.23,5.63,1.86,8.41c0.07,0.29-0.1,0.63-0.15,0.89c-1.59,0.35-2.79-0.29-3.87-1.04
		C61.07,92.62,59.07,87.53,60.5,82.43z M60.56,97.88c-0.24,0.4-0.47,0.8-0.71,1.2c-0.13-0.07-0.25-0.15-0.38-0.22
		c0.24-0.4,0.48-0.8,0.72-1.2C60.31,97.73,60.44,97.8,60.56,97.88z M59.05,95.98c-0.08-0.72-0.15-1.33-0.24-2.13
		C60.39,95.02,60.39,95.05,59.05,95.98z M59.32,103.67c1.16,0.23,2.39-0.01,3.16,1.33c-0.54-0.09-1.08-0.24-1.62-0.24
		c-0.58,0-1.17,0.13-2.12,0.25C59.01,104.38,59.14,104.08,59.32,103.67z M61.33,128.24c0.37,0.07,0.86,0.46,0.95,0.8
		c0.12,0.43-0.12,0.96-0.24,1.69c-1.22-0.68-2.45-0.92-2.83-2.53C60,128.21,60.69,128.11,61.33,128.24z M59.84,109.31
		c0-1.2-0.01-1.2,0.88-2.61c0.55,0.59,0.95,1.02,1.33,1.43C61.13,109.45,61.13,109.45,59.84,109.31z M56.75,66.78
		c0.2-0.13,0.63-0.01,0.89,0.12c0.09,0.04,0.1,0.56-0.02,0.69c-0.66,0.69-1.38,1.32-2.37,2.25C55.55,68.42,55.8,67.4,56.75,66.78z
		 M56.29,116.45c-0.11,0.18-0.34,0.29-0.52,0.42c-0.03-0.22-0.16-0.5-0.07-0.65c0.09-0.14,0.35-0.16,0.56-0.23
		c0-0.02-0.01-0.04-0.01-0.06c0.02-0.02,0.04-0.03,0.06-0.05c0-0.13,0.01-0.25,0.01-0.38c0.09,0.04,0.19,0.09,0.28,0.13
		c-0.1,0.08-0.2,0.17-0.3,0.25c0,0.03,0,0.06,0,0.09c-0.02,0.01-0.03,0.01-0.05,0.01C56.29,116.17,56.35,116.35,56.29,116.45z
		 M55.26,96.3c0.1,0.32,0.18,0.61,0.27,0.89c-0.16,0.03-0.4,0.13-0.45,0.06c-0.16-0.18-0.26-0.42-0.34-0.64
		C54.72,96.58,54.97,96.47,55.26,96.3z M56.26,100.23c-0.49,0.53-0.78,0.84-1.18,1.28c-0.46-0.23-1.03-0.35-1.31-0.7
		c-0.27-0.34-0.26-0.92-0.43-1.66C54.41,99.54,55.19,99.83,56.26,100.23z M54.06,77.3c-0.19,0.72-0.33,1.25-0.6,2.29
		C52.87,78.3,53.03,77.77,54.06,77.3z M53.55,107.37c0.55,0.02,1.12,0.31,1.63,0.56c0.11,0.06,0.06,0.45,0.12,0.94h-2.77
		C52.42,107.96,52.67,107.34,53.55,107.37z M55.44,112.34c-0.95,0.36-1.54,0.59-2.09,0.8c-0.2-0.32-0.36-0.46-0.36-0.6
		c-0.02-0.71,0.35-1.25,1.06-1.2C54.43,111.36,54.78,111.84,55.44,112.34z M51.67,83.68c0.36,0.09,0.73,0.18,1.09,0.27
		c-0.02,0.19-0.04,0.38-0.06,0.57c-0.39-0.04-0.78-0.09-1.17-0.13C51.57,84.16,51.62,83.92,51.67,83.68z M52.79,122.45
		c0.97-0.09,1.91,0.11,2.99,0.76c-0.45,0.44-0.73,0.92-1.14,1.08c-0.44,0.18-1.06,0.21-1.5,0.04C52.3,124,52.37,123.3,52.79,122.45z
		 M51.29,175.28c-6.24-0.7-12.33-1.22-17.66-4.95c0.4-2.3,1.6-4.26,2.86-6.15c2.37-3.58,5.81-5.94,9.6-7.76
		c4.79-2.29,9.67-4.38,14.49-6.62c2.25-1.04,4.44-2.2,6.63-3.35c0.79-0.41,1.54-0.73,2.47-0.85c1.21-0.16,2.36-0.69,3.55-1.03
		c0.29-0.08,0.58-0.14,0.87-0.2c0.25-0.05,0.5-0.09,0.75-0.14c0.02-0.03,0.04-0.06,0.07-0.08c0.04-0.11,0.08-0.22,0.11-0.33
		c-0.02,0.13-0.03,0.26-0.05,0.39c-0.04,0.01-0.09,0.02-0.13,0.03c-0.37,0.44-0.7,0.92-1.14,1.28c-3.19,2.59-5.84,5.67-8.29,8.95
		c-1.38,1.84-2.81,3.65-4.24,5.46c-3.25,4.11-5.92,8.6-8.58,13.1C52.14,173.78,51.71,174.53,51.29,175.28z M142.64,173.81
		c-4.49,0.48-8.99,0.86-13.49,1.17c-4.15,0.28-8.31,0.43-12.47,0.58c-5.13,0.19-10.27,0.29-15.4,0.47
		c-2.39,0.09-4.77,0.29-7.16,0.42c-0.52,0.03-1.04,0-1.81,0c0.07-0.55,0.11-1.04,0.21-1.51c1.49-7.28,2.99-14.55,4.47-21.84
		c0.15-0.74,0.39-1.52-0.09-2.27c-1.06,1.29-1.67,3.09-3.67,12.54c-0.9,4.23-1.46,8.53-2.19,12.85c-5.39,1.36-31.62,0.57-37.45-0.84
		c0.1-1.17,0.77-2.13,1.35-3.06c2.83-4.49,5.53-9.07,9.03-13.11c1.85-2.13,3.42-4.52,5.17-6.75c1.63-2.08,3.54-3.9,5.58-5.66
		c1.23,2.6,1.96,2.86,4.22,1.43c1.62-1.03,3.14-2.21,4.9-3.46c-0.22,0.97-0.43,1.73-0.56,2.49c-0.09,0.51-0.14,1.06-0.06,1.57
		c0.23,1.46,1.46,2.13,2.75,1.39c0.98-0.57,1.84-1.37,2.7-2.12c0.45-0.4,0.8-0.91,1.46-1.67c0.12,1.05,0.13,1.8,0.3,2.5
		c0.31,1.27,1.65,1.85,2.68,1.04c0.8-0.63,1.45-1.52,2-2.4c0.45-0.72,0.67-1.6,1-2.44c0.7,0.16,0.45,0.7,0.57,1.04
		c0.12,0.33,0.11,0.71,0.25,1.03c0.41,0.97,0.74,2.01,1.33,2.87c1,1.49,2.46,1.68,3.91,0.65c0.56-0.4,1.04-0.93,1.75-1.57
		c0.25,1.04,0.49,1.93,0.66,2.82c0.83,4.38,2.31,8.54,4.33,12.5c0.8,1.57,1.85,3.01,2.86,4.46c0.33,0.47,0.89,0.77,1.48,1.26
		c0.36-0.44,0.78-0.73,0.84-1.09c0.1-0.59,0.09-1.25-0.06-1.83c-1.09-4.29-2.19-8.58-4.03-12.63c-0.43-0.95-1.02-1.83-1.92-2.57
		c0.11,0.33,0.22,0.66,0.34,0.98c0.41,1.16,0.91,2.3,1.21,3.48c0.68,2.73,1.27,5.49,1.91,8.32c-2.55-2.64-5.98-12.86-6.02-17.82
		c2.82,1.85,2.82,1.85,4.84,1.72c0.28-0.47,0.58-0.99,0.91-1.56c0.2,0.16,0.43,0.29,0.57,0.48c2.1,2.74,4.11,5.56,6.3,8.23
		c2.02,2.46,4.17,4.83,6.37,7.13c1.63,1.7,2.33,2.01,4.39,2.68c0.09-0.48,0.28-0.95,0.22-1.39c-0.05-0.41-0.35-0.8-0.58-1.18
		c-2.7-4.53-6.05-8.51-10.01-11.98c-0.12-0.11-0.32-0.13-0.48-0.19l-0.15,0.15c0.09,0.12,0.18,0.25,0.26,0.37
		c0.26,0.37,0.52,0.75,0.81,1.1c2.11,2.62,4.25,5.21,6.32,7.86c0.19,0.25,0.36,0.53,0.5,0.81c0.1,0.19,0.19,0.39,0.28,0.59
		c0.13,0.28,0.25,0.57,0.39,0.84c0,0,0,0,0,0c0,0,0,0,0,0c0,0,0,0,0,0c0,0,0,0,0,0c-0.43-0.22-0.94-0.36-1.26-0.68
		c-1.49-1.51-3.01-3.01-4.37-4.64c-2.44-2.93-4.77-5.93-7.13-8.93c-0.23-0.3-0.32-0.71-0.45-1.09c0.55,0.16,1.11,0.33,1.66,0.49
		c2.75,0.81,3.9-0.25,3.29-3.02c-0.06-0.25-0.1-0.5-0.19-0.99c0.7,0.09,1.18,0.43,1.61,0.76c2.47,1.87,4.96,3.72,7.37,5.66
		c2.83,2.28,5.63,4.59,8.34,7.01c4.76,4.24,9.62,8.4,13.1,13.85c0.27,0.43,0.53,0.87,0.89,1.47
		C146.94,173.04,144.8,173.58,142.64,173.81z M162.82,169.67c-3.76,0.98-7.54,1.86-11.3,2.77c-1.54-2.09-2.92-4.02-4.36-5.9
		c-0.75-0.98-1.58-1.91-2.44-2.8c-5.56-5.74-11.87-10.63-17.97-15.76c-1.12-0.94-2.37-1.72-3.56-2.56c-0.01,0-0.02,0-0.03,0
		l-0.06-0.06c0.04-0.03,0.09-0.07,0.13-0.1c-0.02,0.05-0.04,0.1-0.07,0.15c0.01,0.01,0.02,0.01,0.02,0.02
		c0.86-0.06,1.73-0.09,2.59-0.19c1.06-0.12,1.44-1.05,0.79-1.94c-0.21-0.28-0.49-0.51-0.73-0.77c-0.23-0.25-0.46-0.51-0.98-1.07
		c0.95,0.13,1.62,0.04,2.06,0.32c3.85,2.43,8.07,4.02,12.36,5.39c4.82,1.54,9.45,3.52,14.06,5.55c5.2,2.29,8.79,6.15,11.26,11.16
		c0.62,1.26,1.16,2.55,1.73,3.79C165.38,168.94,164.08,169.34,162.82,169.67z"/>
	<path d="M145.67,97.29L145.67,97.29c0.01,0.01,0.03,0.02,0.04,0.03c0,0,0,0,0,0C145.69,97.31,145.68,97.3,145.67,97.29z"/>
	<path d="M112,146.06c-0.04,0.04-0.07,0.07-0.11,0.11C111.93,146.13,111.97,146.1,112,146.06L112,146.06z"/>
	<path d="M142.44,70.16c-0.04,0.02-0.09,0.04-0.13,0.06l0,0C142.36,70.2,142.4,70.18,142.44,70.16z"/>
	<path d="M125.07,117.1l0,0.11l0,0C125.07,117.21,125.07,117.15,125.07,117.1z"/>
	<path d="M112.03,146.25C112.02,146.25,112.02,146.26,112.03,146.25c-0.05-0.02-0.09-0.05-0.13-0.08
		C111.94,146.2,111.98,146.23,112.03,146.25c0.19,0.18,0.4,0.35,0.6,0.53C112.43,146.6,112.22,146.43,112.03,146.25L112.03,146.25z"
		/>
	<path d="M130.69,98.47L130.69,98.47c0,0,0.02-0.02,0.03-0.03C130.71,98.46,130.69,98.47,130.69,98.47z"/>
	<path d="M141.89,135.03l-0.05,0.04C141.86,135.06,141.89,135.03,141.89,135.03c-0.04-0.02-0.09-0.04-0.13-0.05l0,0
		C141.8,135,141.84,135.01,141.89,135.03z"/>
	<path d="M141.46,89.91c-0.03-0.02-0.06-0.03-0.09-0.05l0.06-0.05l-0.06,0.05C141.4,89.88,141.43,89.89,141.46,89.91z"/>
	<path d="M130.06,97.94L130.06,97.94c0.21,0.18,0.42,0.36,0.64,0.53C130.48,98.3,130.27,98.12,130.06,97.94z"/>
	<path d="M142.44,70.18c0,0,0.03-0.04,0.07-0.07L142.44,70.18L142.44,70.18z"/>
	<path d="M68.77,65.48c-0.03,0.01-0.06,0.02-0.08,0.03C68.71,65.5,68.74,65.49,68.77,65.48L68.77,65.48z"/>
	<path d="M142.58,70.03l-0.07,0.07C142.54,70.07,142.58,70.03,142.58,70.03z"/>
	<path d="M134.87,72.71L134.87,72.71c-0.01,0.06-0.01,0.12-0.02,0.18l0,0C134.86,72.84,134.87,72.78,134.87,72.71z"/>
	<rect x="134.85" y="72.9" width="0" height="0"/>
	<path d="M56.31,115.9L56.31,115.9c0,0.03,0,0.06,0,0.09C56.31,115.96,56.31,115.93,56.31,115.9z"/>
	<path d="M130.13,97.88c0.1,0.09,0.21,0.18,0.31,0.27C130.34,98.05,130.23,97.96,130.13,97.88c-0.02-0.01-0.03-0.03-0.05-0.04l0,0
		C130.1,97.85,130.11,97.86,130.13,97.88L130.13,97.88z"/>
	<path d="M131.24,120.12c-0.03,0.05-0.07,0.1-0.1,0.15c0,0,0,0,0,0C131.17,120.22,131.2,120.17,131.24,120.12z"/>
	<path d="M113.15,147.35L113.15,147.35c0,0,0.01-0.01,0.03-0.03C113.16,147.34,113.15,147.35,113.15,147.35z"/>
	<path d="M145.71,97.32c0.2,0.14,0.4,0.27,0.6,0.41C146.11,97.59,145.91,97.46,145.71,97.32C145.71,97.32,145.71,97.32,145.71,97.32
		z"/>
	<path d="M145.67,97.29c0.01,0.01,0.03,0.02,0.04,0.03c0.01-0.03,0.01-0.06,0.02-0.09c0,0-0.02,0.02-0.03,0.03
		C145.68,97.27,145.67,97.29,145.67,97.29z"/>
	<path d="M99.31,105.81L99.31,105.81l0.03,0.04C99.33,105.83,99.31,105.81,99.31,105.81z"/>
	<path d="M94.98,96.04c-2.76,0.63-4.96,2.22-7.32,4.13c0.92,3.2,2.75,5.6,5.56,7.17c3.26,1.82,6.47,1.36,9.3-1.11
		c1.29-1.13,2.18-2.53,3.04-3.98c1.43-2.42,1.14-3.71-1.56-5.38c-0.45-0.27-0.95-0.47-1.45-0.64
		C100.04,95.38,97.52,95.46,94.98,96.04z M100.4,105.36L100.4,105.36L100.4,105.36c-0.03,0-0.06,0-0.09,0
		c-0.01,0.04-0.03,0.08-0.04,0.12c-0.18,0.36-0.53,0.38-0.9,0.33c0,0.02-0.01,0.03-0.01,0.04c-0.03,0-0.06,0-0.09,0.01
		c-0.64,0.75-1.41,0.62-2.19,0.35c-0.19-0.06-0.37-0.13-0.56-0.2c0.92-0.05,1.83-0.1,2.75-0.15c0.02-0.02,0.03-0.04,0.05-0.06l0,0
		l0,0l0,0c0.02,0,0.04,0,0.05,0.01c0.13-0.54,0.56-0.44,0.95-0.45c0.01-0.02,0.02-0.04,0.03-0.07c0.05-0.05,0.11-0.09,0.16-0.14
		C100.47,105.23,100.44,105.3,100.4,105.36z M102.97,99.38c0.18,1.33-0.83,1.93-1.47,2.69c-0.94,1.11-2.2,1.79-3.61,2.06
		c-3.34,0.64-5.73-0.93-7.85-3.48c0.44-0.23,0.73-0.5,1.04-0.52C95.02,99.91,98.93,98.98,102.97,99.38z"/>
	<path d="M100.34,105.3l0.03,0.03C100.35,105.31,100.34,105.3,100.34,105.3z"/>
	<path d="M100.4,105.36L100.4,105.36c0,0-0.02-0.02-0.03-0.03L100.4,105.36z"/>
	<path d="M73.46,73.47c0.34,0.83,0.56,1.35,0.84,2.02c1.28-0.74,2.38-1.37,3.56-2.04c0.26,1.13,0.47,2.03,0.66,2.87
		c-0.88,0.56-2.01,0.37-2.62,1.44c1.1,0.67,2.02,0.16,2.93,0.06c0.88-0.09,1.75-0.19,2.63-0.24c0.97-0.05,1.94-0.07,2.91-0.05
		c0.92,0.02,1.9,0.45,2.8-0.59c-0.63-0.41-1.16-0.76-1.74-1.13c0.11-0.92,0.22-1.74,0.31-2.52c1.52-0.1,2.58,1.11,4.19,0.73
		c-0.29-0.4-0.42-0.75-0.67-0.9c-1.14-0.65-2.27-1.39-3.49-1.84c-2.93-1.08-5.87-1.24-8.66,0.47c-0.88,0.54-1.82,0.6-2.8,0.59
		c-0.78-0.01-1.56,0-2.35,0C72.06,73.44,73.2,73.18,73.46,73.47z"/>
	<path d="M89.72,83.43c-0.42,1.12-0.51,2.43-0.48,3.64c0.08,2.47,1.14,3.63,3.58,3.69c2.2,0.05,4.41-0.19,6.6-0.44
		c0.76-0.09,1.49-0.53,2.18-0.91c0.32-0.18,0.53-0.58,0.84-0.95c-1.25-0.55-2.3-0.19-3.32,0c-2.3,0.43-4.57,0.57-7.09-0.4
		c-0.91-1.56-0.93-3.15-0.31-4.83c0.8-2.19,1.02-4.46,0.81-6.79c-0.09-0.97-0.05-1.94-0.04-2.92c0.02-2.15-0.37-4.23-1.07-6.25
		c-0.26-0.74-0.49-1.54-1.43-1.72c-0.05,0.09-0.13,0.16-0.14,0.24c-0.02,0.17-0.07,0.36-0.01,0.51
		C91.85,72.03,91.88,77.72,89.72,83.43z"/>
	<path d="M83.84,63.11c0.53,0.03,1.07,0.05,1.58-0.04c0.29-0.05,0.55-0.33,0.85-0.53c-3.1-2.6-8.2-1.13-11.03,3.39
		c0.85-0.43,1.75-0.78,2.55-1.29C79.66,63.45,81.66,62.96,83.84,63.11z"/>
	<path d="M94.89,109.56c-0.08,0-0.16,0.06-0.23,0.11c-0.06,0.04-0.09,0.12-0.22,0.29c0.54,0.96,1.58,0.87,2.46,0.98
		c1.09,0.13,2-0.25,2.87-1.38C97.96,109.55,96.42,109.55,94.89,109.56z"/>
	<polygon points="73.51,164.34 73.51,164.34 73.51,164.34 73.51,164.34 	"/>
	<path d="M75.78,159.93c0,0,0.01,0.01,0.01,0.01C75.79,159.94,75.79,159.93,75.78,159.93z"/>
	<path d="M77.57,156.81c1.26-2.14,2.59-4.23,3.87-6.35c0.17-0.29,0.17-0.69,0.24-1.04c-0.15-0.09-0.3-0.19-0.45-0.28
		c-0.19,0.3-0.34,0.63-0.56,0.91c-3.72,4.67-6.52,9.9-9.27,15.16c-0.24,0.47-0.45,0.97-0.59,1.48c-0.32,1.11-0.54,2.24,0.04,3.34
		c1.28-0.03,1.32,0,1.61-0.48c0.68-1.14,1.28-2.32,1.96-3.46c1.41-2.36,2.84-4.7,4.27-7.05c0.71-1.17,1.37-2.36,1.41-3.95
		c-1.02,1.1-1.91,2.07-2.8,3.03c-0.05-0.03-0.11-0.04-0.16-0.05C77.26,157.63,77.36,157.18,77.57,156.81z"/>
	<path d="M80.42,171.42c0.59-1.49,1.03-2.52,1.41-3.58c0.39-1.08,0.71-2.18,1.07-3.26c0.36-1.09,0.71-2.18,1.12-3.25
		c0.43-1.16,0.9-2.3,1.38-3.43c0.45-1.06,0.96-2.08,1.38-3.15c0.4-0.99,1.21-1.85,1.08-3.2C84.44,154.83,80.13,166.15,80.42,171.42z
		"/>
	<path d="M127.16,101.27c-0.31-2.13-0.92-3.6-2.58-5.94C125.15,99.12,125.6,100.11,127.16,101.27z"/>
	<path d="M65.98,106.59c1.2-0.88,0.9-2.11,0.98-3.18c0.09-1.13,0.19-2.3-0.31-4.03C65.91,102.13,65.64,104.27,65.98,106.59z"/>
</g>
</svg>
