<?xml version="1.0" encoding="utf-8"?>
<!-- Generator: Adobe Illustrator 28.0.0, SVG Export Plug-In . SVG Version: 6.00 Build 0)  -->
<svg version="1.1" id="Layer_1" xmlns="http://www.w3.org/2000/svg" xmlns:xlink="http://www.w3.org/1999/xlink" x="0px" y="0px"
	 viewBox="0 0 200 200" style="enable-background:new 0 0 200 200;" xml:space="preserve">
<style type="text/css">
	.st0{fill:none;}
</style>
<g>
	<path class="st0" d="M75.89,61.43c0.2-0.06,0.4-0.11,0.59-0.17C76.28,61.32,76.08,61.38,75.89,61.43L75.89,61.43z"/>
	<path class="st0" d="M123.79,122.28L123.79,122.28c0.41-0.35,0.82-0.72,1.22-1.09C124.61,121.56,124.21,121.93,123.79,122.28z"/>
	<path class="st0" d="M116.01,127.4c0,0.31,0.02,0.62,0.05,0.95C116.02,128.03,116.01,127.71,116.01,127.4z"/>
	<path class="st0" d="M117.15,50.25c-0.01,0.02-0.01,0.05-0.02,0.09C117.14,50.3,117.15,50.28,117.15,50.25z"/>
	<path class="st0" d="M118.3,134.46c-0.14-0.01-0.3-0.13-0.45-0.19c-1-1.99-1.63-4.1-1.8-5.91c0.17,1.81,0.8,3.92,1.8,5.91
		C118,134.32,118.16,134.44,118.3,134.46z"/>
	<path class="st0" d="M117.17,50.18L117.17,50.18c0,0.02-0.01,0.04-0.02,0.07C117.16,50.23,117.17,50.21,117.17,50.18z"/>
	<path class="st0" d="M41.38,100.52c0.01-0.17,0.03-0.35,0.04-0.52l0,0C41.41,100.17,41.39,100.34,41.38,100.52z"/>
	<path class="st0" d="M41.36,100.84c-0.02,0.21-0.03,0.42-0.06,0.63C41.33,101.26,41.34,101.05,41.36,100.84z"/>
	<path class="st0" d="M75.8,61.45L75.8,61.45l-0.1,0.01C75.74,61.46,75.8,61.45,75.8,61.45L75.8,61.45L75.8,61.45L75.8,61.45z"/>
	<path class="st0" d="M107.5,38.12c-0.02,0.02-0.06,0.06-0.1,0.1l0,0C107.44,38.18,107.48,38.14,107.5,38.12z"/>
	<path class="st0" d="M70.53,55.51C70.53,55.51,70.53,55.51,70.53,55.51c0.09-0.05,0.17-0.11,0.26-0.16
		C70.7,55.41,70.61,55.46,70.53,55.51z"/>
	<path class="st0" d="M104.63,29.61c-0.24,0-0.48,0-0.72,0.01l0,0C104.15,29.61,104.39,29.61,104.63,29.61z"/>
	<path class="st0" d="M75.98,46.03L75.98,46.03c-0.03-0.03-0.08-0.06-0.11-0.09C75.9,45.97,75.95,46,75.98,46.03z"/>
	<rect x="75.89" y="61.43" width="0" height="0"/>
	<path d="M41.44,99.89C41.44,99.89,41.44,99.89,41.44,99.89c0,0,0.01,0.02,0.01,0.04C41.44,99.9,41.44,99.89,41.44,99.89z"/>
	<path d="M41.45,99.92c0.01,0.02,0.01,0.04,0.01,0.04c-0.01,0.01-0.02,0.02-0.03,0.04c0,0,0,0,0,0c0.01-0.01,0.02-0.02,0.03-0.04
		c0.01-0.11,0.02-0.21,0.02-0.28c-0.01,0.07-0.01,0.18-0.02,0.28C41.46,99.96,41.45,99.94,41.45,99.92z"/>
	<path d="M71.25,54.99L71.25,54.99c-0.03,0.05-0.07,0.09-0.1,0.14c-0.02,0.01-0.04,0.02-0.06,0.04l0,0
		c0.02-0.01,0.04-0.02,0.06-0.04C71.18,55.08,71.21,55.03,71.25,54.99z"/>
	<path d="M70.43,55.58C70.43,55.58,70.43,55.58,70.43,55.58c0,0,0.02-0.02,0.03-0.03C70.45,55.55,70.44,55.56,70.43,55.58z"/>
	<path d="M75.88,61.45L75.88,61.45L75.88,61.45c0,0,0-0.01,0-0.02l0,0C75.88,61.44,75.88,61.44,75.88,61.45z"/>
	<path d="M39.71,96.42c-0.3,0.1-0.6,0.2-0.89,0.3C39.11,96.62,39.41,96.52,39.71,96.42L39.71,96.42z"/>
	<polygon points="41.42,100 41.42,100 41.42,100 41.42,100 	"/>
	<polygon points="107.28,38.34 107.2,38.26 107.28,38.34 	"/>
	<path d="M107.46,27.13l-0.07-0.05c-0.04,0.02-0.09,0.03-0.13,0.04c0.04-0.01,0.08-0.03,0.13-0.04L107.46,27.13z"/>
	<path d="M123.25,122.52C123.25,122.52,123.25,122.52,123.25,122.52c0.07-0.04,0.15-0.08,0.22-0.12
		C123.4,122.44,123.33,122.48,123.25,122.52z"/>
	<path d="M67.11,178.02c11.45,0.31,22.91,0.43,34.36,0.61c3.94,0.06,7.9-0.13,11.83,0.14c14.22,0.99,28.33,0.25,42.37-2.17
		c0.74-0.13,1.49-0.22,2.24-0.22c4.52-0.05,8.62-1.65,12.7-3.35c0.98-0.41,1.41-1.21,1.51-2.19c0.04-0.46-0.02-0.94-0.13-1.39
		c-0.17-0.63-0.33-1.3-0.67-1.85c-2.53-4.08-5.21-8.12-9-11.09c-4.07-3.19-8.56-5.75-13.51-7.43c-2.57-0.87-5.12-1.83-7.63-2.88
		c-1.98-0.83-3.92-1.75-5.28-3.57c-0.99-1.34-2.54-1.89-4.11-2.28c-0.62-0.16-1.28-0.18-1.92-0.26c-1.43-1.44-2.99-2.63-4.63-3.72
		c-2.07-1.37-4.3-2.3-6.89-1.92c-0.02,0-0.04,0-0.06,0c-0.14-0.01-0.3-0.13-0.45-0.19c-1-1.99-1.63-4.1-1.8-5.91
		c-0.03-0.33-0.05-0.65-0.05-0.95c0-0.46,0.03-0.89,0.1-1.28c1.14,0.4,2.26,1.06,3.43,1.15c5.26,0.41,9.84-1.21,13.33-5.26
		c2.38-2.76,3.68-6.07,4.36-9.64c0.19-0.99,0.41-1.98,0.54-2.62c1.82-0.71,3.42-1.09,4.75-1.91c2.23-1.37,4.48-2.82,6.38-4.6
		c6.88-6.45,10.64-14.17,9.12-23.89c-0.92-5.86-3.12-10.99-7.95-14.72c-0.44-0.34-0.84-0.75-1.21-1.17c-2.01-2.23-3.98-4.49-6-6.7
		c-2.21-2.41-3.61-5.13-4.14-8.43c-1.56-9.7-6.33-17.35-14.92-22.4c-1.53-0.9-3.09-1.79-4.74-2.41c-4.83-1.81-9.78-1.65-14.68-0.31
		c-2.41,0.66-4.72,1.7-7.26,2.63c-0.34-0.3-0.8-0.76-1.32-1.15c-2.33-1.79-4.76-3.39-7.77-3.73c-1.49-0.17-3-0.19-4.5-0.15
		c-10.34,0.29-17.82,5.3-22.64,14.23c-2.09,3.87-3.72,7.96-6.3,11.58c-1.45,2.03-3.04,3.81-5.25,4.98
		c-1.41,0.74-2.91,1.32-4.28,2.13C34.5,59.97,31.67,67.91,32.97,77.95c0.48,3.71,2.56,6.41,6.5,7.24c0.35,0.07,0.67,0.27,1.19,0.49
		c-0.44,0.63-0.75,1.19-1.17,1.65c-1.95,2.13-3.06,4.67-3.96,7.38c-1.87,5.62-1.48,11.1,0.79,16.48c1.9,4.51,5.54,6.98,10.13,8.18
		c1.46,0.38,2.97,0.44,4.43-0.19c0.48-0.21,0.97-0.38,1.43-0.56c0.26,0.45,0.41,0.69,0.54,0.93c4.69,8.65,12.55,11.88,21.06,10.97
		c2.68-0.29,5.08-1.22,7.12-3.05c0.81-0.73,1.64-1.49,2.74-1.92c0.56,3.9,0.47,6.21-0.36,8.2c-3.48-0.71-5.59,1.19-7.15,4.06
		c-0.4,0.74-0.84,1.46-1.34,2.32c-0.8,0.27-1.68,0.57-2.56,0.87c-2.63,0.88-4.98,2.16-6.7,4.43c-0.38,0.5-0.92,0.94-1.49,1.21
		c-3.22,1.52-6.44,3.01-9.9,4c-3.6,1.03-7.11,2.38-10.63,3.69c-1.22,0.45-2.41,1.08-3.48,1.82c-5.46,3.79-9.6,8.65-11.91,14.95
		c-0.16,0.44-0.31,0.89-0.38,1.35c-0.16,1.03,0.12,1.92,1.17,2.29c1.14,0.4,2.31,0.79,3.5,0.94c2.51,0.32,5.04,0.53,7.56,0.69
		c3.93,0.25,7.88,0.39,11.81,0.64C57,177.33,62.05,177.88,67.11,178.02z M152.99,87.91c0.05-0.45,0.35-0.88,0.7-1.26
		c0.47,3.56,0.23,6.9-2.42,9.65c-1.07,1.11-2.35,1.84-3.8,2.28c-0.27,0.08-0.62-0.11-0.95-0.2c-0.01,0.01-0.02,0.02-0.02,0.03
		c0.05,0.13,0.1,0.26,0.15,0.38c-0.07-0.14-0.14-0.29-0.21-0.43c0.03,0.01,0.06,0.02,0.09,0.02c1.26-1.36,2.6-2.66,3.77-4.1
		C151.81,92.44,152.74,90.32,152.99,87.91z M149.22,82.43l0.09,0.04l-0.09,0.23L149.22,82.43z M141.74,95.79
		c0.04-0.01,0.08-0.03,0.12-0.04c0.63-1.31,1.29-2.62,1.89-3.94c1.99-4.35,2.44-8.79,0.81-13.36c-0.08-0.24-0.01-0.53-0.01-0.98
		c0.29,0.15,0.58,0.21,0.65,0.36c1.75,3.84,2.6,7.83,1.53,12c-0.69,2.69-2.06,4.93-4.87,5.91c-0.01,0.03-0.03,0.06-0.04,0.08
		c-0.16,0.07-0.31,0.15-0.47,0.22C141.48,95.97,141.61,95.88,141.74,95.79z M141.87,99.84c0.02-0.01,0.04-0.02,0.06-0.03
		c0.7-0.83,1.37-1.68,2.11-2.47c1.02-1.1,2.11-2.13,3.11-3.24c1.31-1.45,1.99-3.15,1.92-5.13c-0.04-1.03-0.02-2.06,0.02-3.09
		c0.01-0.41,0.14-0.82,0.23-1.28c0.34,0.2,0.59,0.28,0.59,0.37c0.09,1.68,0.24,3.36,0.18,5.03c-0.06,1.82-0.77,3.46-1.91,4.89
		c-1.69,2.14-3.71,3.86-6.25,4.93c-0.01,0.01-0.01,0.01-0.02,0.02l-0.07,0.02c-0.17,0.03-0.35,0.06-0.52,0.09
		C141.5,99.9,141.69,99.87,141.87,99.84z M44.59,65.81l0.15,0.05l-0.1,0.03c-0.02,0.01-0.04,0.01-0.06,0.02
		c0,0.52,0.09,1.07-0.08,1.53c-0.84,2.26-0.38,4.41,0.5,6.5c0.61,1.45,1.4,2.82,2.11,4.23c-0.04,0.04-0.09,0.08-0.13,0.12
		c0.02-0.06,0.04-0.13,0.06-0.19c-0.26-0.01-0.63,0.1-0.75-0.03c-2.67-2.92-3.66-6.36-3.01-10.24c0.13-0.75,0.35-1.63,1.3-1.91
		C44.59,65.87,44.59,65.84,44.59,65.81z M37.91,68.22c0.76-2.03,2.03-3.54,3.94-4.51c0.29-0.15,0.68-0.12,1.6-0.25
		c-0.7,0.65-0.99,0.93-1.28,1.19c-2.59,2.29-3.32,5.16-2.3,8.37c0.75,2.36,1.71,4.67,3.22,6.69c0.02,0,0.03-0.01,0.05-0.01
		c0.1,0.19,0.2,0.38,0.31,0.57c0.05,0.08,0.1,0.17,0.16,0.25c-0.01,0.05-0.02,0.1-0.02,0.15c-0.01-0.07-0.02-0.13-0.03-0.2
		c-0.04-0.07-0.07-0.13-0.11-0.2c-0.1-0.17-0.21-0.33-0.31-0.49c-0.02-0.02-0.03-0.04-0.05-0.06c-0.34,0.04-0.76,0.21-0.97,0.07
		C39.23,77.79,36.21,72.76,37.91,68.22z M41.78,111.67l-0.07-0.06c-0.09-0.27-0.18-0.55-0.26-0.82c-0.03-0.02-0.05-0.05-0.07-0.07
		c-0.5-0.08-1.09-0.04-1.43-0.31c-1.42-1.12-2.43-2.52-2.79-4.37c-0.43-2.23-0.47-4.43,0.18-6.62c0.19-0.65,0.53-1.15,1.3-1.09
		c0.01-0.03,0.02-0.06,0.03-0.08c0.05-0.51,0.1-1.01,0.14-1.52c0.3-0.1,0.6-0.2,0.89-0.3c0.02-0.03,0.04-0.06,0.06-0.09
		c-0.02,0.03-0.03,0.06-0.05,0.09l-0.03,0.04l-0.03,0.04c-0.26,0.09-0.53,0.17-0.79,0.26c-0.05,0.52-0.11,1.05-0.16,1.57
		c-0.02,0-0.04,0-0.06,0c-0.16,0.5-0.35,1-0.46,1.52c-0.92,4.21-0.16,7.94,3.2,10.88c0.03,0.01,0.07,0.01,0.1,0.02
		c0.1,0.3,0.2,0.61,0.3,0.91c0.04,0.02,0.07,0.05,0.11,0.07C41.85,111.7,41.82,111.68,41.78,111.67z M43.55,112.02l-0.06,0.05
		c-0.04,0.02-0.08,0.05-0.12,0.07c0.04-0.02,0.08-0.05,0.11-0.07c-0.62-0.89-1.22-1.8-1.85-2.68c-1.89-2.62-2.28-5.43-1.04-8.42
		c0.08-0.19,0.22-0.36,0.38-0.52c0.15-0.15,0.31-0.29,0.45-0.44c0-0.04,0.01-0.08,0.01-0.11v0c0,0,0,0,0,0
		c0.02-0.11,0.04-0.22,0.05-0.27l0,0l0,0c0-0.02,0-0.02,0,0c0.01-0.04,0.01-0.03,0,0c0,0.01,0,0.03-0.01,0.06
		c-0.01,0.07-0.01,0.18-0.02,0.28c-0.01,0.01-0.02,0.02-0.03,0.04c-0.02,0.17-0.03,0.35-0.04,0.52c-0.01,0.11-0.01,0.21-0.02,0.32
		c-0.02,0.21-0.03,0.42-0.06,0.63c-0.04,0.31-0.09,0.62-0.19,0.92c-0.64,2.02,0.02,3.67,1.2,5.24c1.82,2.4,3.88,4.56,6.28,6.55
		C46.44,114.43,45.23,112.67,43.55,112.02z M46.93,110.44c-1.96-2.37-2.65-5.3-1.88-8.65c0.81,2.16,0.82,4.31,2.07,5.96
		c1.23,1.62,2.57,3.17,3.9,4.8C49.26,112.7,48.01,111.74,46.93,110.44z M72.23,176c1.93-9.61,3.15-19.29,6.71-28.79
		c1.09,0.53,2,0.96,2.88,1.39c-1.68,9.26-3.34,18.37-5.01,27.58C75.34,176.47,73.9,176.42,72.23,176z M113.53,126.3
		c0.16,3.1,0.97,6.1,2.11,8.97c-0.45,1.2-1.42,1.55-2.46,1.64c-2.52,0.23-5.05,0.58-7.57,0.52c-5.91-0.14-11.83-0.28-17.62-1.66
		c-0.63-0.15-1.24-0.36-1.98-0.58c0.16-2.71,0.3-5.12,0.45-7.65c4.81,0.82,9.32-0.52,13.82-1.6c4.14-0.99,7.43-3.51,10.29-6.59
		c0.81-0.87,1.66-1.71,2.85-2.94C113.44,120.04,113.36,123.18,113.53,126.3z M110.21,144.22c-0.97,0.18-1.77,0.33-2.59,0.48
		c-1.2-1.22-1.1-2.58-0.71-3.95c0.28-0.98,1.04-1.23,2.08-0.89C109.36,141.19,109.75,142.59,110.21,144.22z M105.89,146.08
		c0.14,1.05,0.23,1.76,0.33,2.55c-1.24,0.68-2.4,0.53-3.83,0.31c-0.1-0.78-0.19-1.55-0.31-2.49
		C103.41,146.31,104.5,146.21,105.89,146.08z M102.15,142.45c0.09-2.38,0.76-2.85,3.41-2.49c0,1.47,0,2.94,0,4.34
		c-1.04,0.86-2.05,0.34-3.2,0.44C102.27,143.87,102.12,143.16,102.15,142.45z M92.39,143.76c-0.62-1.91,0.24-3.19,1.21-4.51
		c0.89,0,1.71,0,2.65,0c-0.43,1.71-0.8,3.22-1.22,4.92C94.14,144.03,93.26,143.89,92.39,143.76z M94.55,145.9c0,1.01,0,1.9,0,2.87
		c-1.15,0.47-2.21-0.11-3.62-0.1c-0.05-0.91-0.24-1.59-0.06-2.15c0.13-0.42,0.72-0.94,1.14-0.97
		C92.82,145.49,93.65,145.76,94.55,145.9z M96.37,146c1.58,0.13,2.69,0.23,4.02,0.34c0.13,0.77,0.26,1.56,0.38,2.25
		c-0.27,0.23-0.4,0.44-0.55,0.45c-0.74,0.06-1.5,0.12-2.24,0.07c-0.53-0.04-1.08-0.21-1.57-0.43c-0.19-0.09-0.37-0.47-0.35-0.71
		C96.09,147.36,96.24,146.76,96.37,146z M100.62,144.33c-1.32,0.42-2.47,0.24-3.6-0.14c-0.83-3.9,0.51-5.27,4.3-4.42
		C101.09,141.29,100.85,142.8,100.62,144.33z M91.95,138.77c-0.48,1.44-0.95,2.87-1.5,4.52c-0.8-0.09-1.68-0.19-2.7-0.3
		C87.32,139,88.31,138.05,91.95,138.77z M89.33,145.08c-0.04,0.87-0.08,1.83-0.13,2.98c-1.79,0.02-3.33-0.41-5.3-1.21
		c0.41-0.74,0.57-1.49,1.02-1.75C86.25,144.31,87.7,144.35,89.33,145.08z M82.49,146.52c-1.01-0.47-1.97-0.92-3.19-1.49
		c0.5-0.71,0.74-1.46,1.19-1.62c1.08-0.39,2.27-0.76,3.46,0.21C83.47,144.55,83.04,145.43,82.49,146.52z M78.5,176.27
		c0.1-1.06,0.12-1.98,0.29-2.87c1.5-7.99,2.51-16.08,4.42-24.19c1.92,0.49,3.62,0.92,5.45,1.38c-2.65,8.46-4.1,16.94-5.25,25.6
		C81.78,176.68,80.25,176.38,78.5,176.27z M90.81,176.89c-2.13-0.03-3.98,0.12-5.74-0.49c0.3-5.93,3.33-21.74,4.94-25.54
		c1.48,0.17,3.02,0.35,4.73,0.54c-0.08,0.8-0.1,1.43-0.21,2.05c-1.09,6.26-2.22,12.51-3.28,18.78
		C91.01,173.69,90.97,175.18,90.81,176.89z M92.65,176.94c-0.31-2.23-0.17-4.28,0.16-6.29c1.03-6.27,2.17-12.52,3.29-18.91
		c1.54-0.69,3.15-0.37,4.81-0.25c0.43,2.19-0.22,4.09-0.55,5.98c-1.09,6.35-2.31,12.68-2.73,19.2
		C95.99,177.38,94.38,177.21,92.65,176.94z M104.95,176.57c-1.87,0-3.6,0-5.56,0c0-0.83-0.09-1.66,0.01-2.46
		c0.57-4.46,1.19-8.9,1.78-13.36c0.35-2.69,0.67-5.38,1.01-8.07c0.05-0.36,0.12-0.72,0.19-1.17c1.54-0.14,3.01-0.28,4.71-0.44
		c0.04,0.65,0.16,1.27,0.1,1.86c-0.67,6.52-1.38,13.03-2.04,19.55C105.03,173.77,105.02,175.07,104.95,176.57z M111.85,175.26
		c-0.01,0.36-0.11,0.72-0.2,1.24c-1.6,0-3.15,0-4.84,0c-0.39-2.33-0.07-4.55,0.11-6.77c0.24-2.99,0.56-5.97,0.83-8.96
		c0.28-3.17,0.53-6.35,0.8-9.51c0.9-1.15,2.3-0.67,3.54-1.39c0.12,0.74,0.27,1.24,0.27,1.74
		C112.2,159.5,112.03,167.38,111.85,175.26z M107.96,148.99c-0.27-1.26-0.43-2.05-0.64-3.04c1.42-0.43,2.72-0.83,4.08-1.24
		c0.41,0.52,0.79,0.92,1.08,1.39c0.24,0.38,0.36,0.83,0.56,1.32C111.57,148.6,109.76,148.07,107.96,148.99z M112.56,143.24
		c-1.97-0.18-2.23-0.54-2.29-3.38c0.37-0.12,0.78-0.29,1.21-0.38c0.36-0.08,0.73-0.09,1.06-0.12c0.15,0.2,0.34,0.33,0.36,0.48
		c0.21,1.74,1.44,2.78,2.57,3.91c0.78,0.77,1.52,1.59,2.32,2.43c-0.98,1.19-2.23,0.82-3.15,1.28
		C112.86,144.9,112.86,144.9,112.56,143.24z M113.65,176.56c-0.04-0.85-0.1-1.57-0.11-2.3c-0.03-7.68-0.04-15.35-0.07-23.03
		c0-1.36-0.01-1.36,1.61-1.79c2.37,8.87,2.6,18.09,4.61,27.38C117.42,176.94,115.59,176.99,113.65,176.56z M121.32,176.86
		c-2.31-9.13-2.14-18.67-5.24-27.93c1.59-0.47,2.91-0.87,4.22-1.25c1.53,3.18,7.14,23.45,8.08,29.15
		C126.06,177.2,123.74,176.99,121.32,176.86z M130.56,176.96c-0.27-0.75-0.6-1.5-0.81-2.27c-1.52-5.6-2.95-11.23-4.55-16.82
		c-1-3.5-2.25-6.94-3.39-10.41c0.25-0.22,0.43-0.46,0.67-0.57c1.1-0.49,2.22-0.95,3.5-1.49c2.21,5.06,3.35,10.35,4.77,15.54
		c1.4,5.15,2.73,10.31,4.15,15.67C133.49,177.13,132.13,176.94,130.56,176.96z M139.91,147.53c2.6,1.06,5.17,2.22,7.8,3.17
		c4.82,1.74,9.14,4.4,13.09,7.55c2.23,1.78,3.92,4.25,5.79,6.47c0.78,0.93,1.43,1.97,2.1,2.99c0.62,0.94,1.14,1.92,1.11,3.18
		c-2.93,1.59-6.01,2.66-9.26,3.14c-4.08,0.6-8.18,1.03-12.27,1.53c-1.94,0.23-3.87,0.44-5.88,0.66c-0.39-4.99-0.69-9.83-1.17-14.65
		c-0.48-4.82-1.29-9.59-2.89-14.59C139.11,147.25,139.52,147.37,139.91,147.53z M130.34,141.38c3.27,0.87,5.05,2.93,5.93,5.96
		c1.24,4.25,2.01,8.58,2.56,12.96c0.44,3.53,0.73,7.09,1.11,10.63c0.11,1.02,0.32,2.04,0.41,3.06c0.07,0.72,0.01,1.46,0.01,2.11
		c-1.78,0.67-1.78,0.68-3.56,0.36c-0.25-0.81-0.55-1.69-0.79-2.58c-1.64-6.07-3.23-12.15-4.93-18.2c-0.76-2.7-1.75-5.34-2.64-8.01
		c-0.15-0.44-0.36-0.87-0.47-1.32c-0.26-1.04-0.23-2.01,0.63-2.85C129.19,142.91,129.67,142.2,130.34,141.38z M128.39,141.73
		c-0.41,0.47-0.82,0.94-1.21,1.39c-3.17-1.46-5.81-3.89-6.79-6.2C122.55,137.28,125.29,138.92,128.39,141.73z M118.67,137.35
		c2.3,2.21,4.49,4.32,6.77,6.5c-0.48,0.83-1.32,1.04-2.45,1.12c-0.78-1.11-1.53-2.38-2.48-3.49c-0.96-1.11-2.1-2.06-3.33-3.23
		C117.87,137.84,118.32,137.57,118.67,137.35z M116.13,138.63c1.43,2.43,4.56,3.67,5.26,7.04c-0.68,0.17-1.26,0.32-1.78,0.45
		c-1.46-1.45-2.84-2.81-4.21-4.17c-0.2-0.2-0.45-0.38-0.56-0.62c-0.27-0.57-0.71-1.2-0.63-1.74
		C114.33,138.73,115.17,138.59,116.13,138.63z M120.24,121.19c0.27-1.33,1.12-2,1.93-2.52c3.35-2.17,5.23-5.2,5.54-9.22
		c0.93,0.51,0.84,1.28,0.85,2.03c0.02,1.89-0.15,3.79-1.17,5.39C125.78,119.4,123.52,121.03,120.24,121.19z M132.5,113.4
		c-0.15,1.39-0.16,2.84-0.6,4.14c-0.86,2.58-3.26,5.43-8.11,4.75c-0.01,0.01-0.02,0.02-0.03,0.03l0,0
		c-0.09,0.03-0.18,0.06-0.26,0.09c-0.08,0.03-0.17,0.08-0.25,0.12c0,0,0,0,0,0c0,0,0,0,0,0c0.07-0.04,0.15-0.08,0.22-0.12
		c0.07-0.04,0.15-0.08,0.22-0.12v0c0.04,0.01,0.07,0.01,0.1,0.01c0.41-0.35,0.82-0.72,1.22-1.09c0.69-0.62,1.39-1.24,2.17-1.75
		c2.23-1.46,3.7-3.38,4.28-5.99c0.07-0.32,0.26-0.62,0.37-0.89C132.55,112.61,132.53,113.08,132.5,113.4z M127.7,80.74
		c2.35,0.86,2.72,3.53,4.96,4.49c0.33-3.78-2.79-5-4.5-7.11c-0.07-2.62,0.61-3.59,2.81-4c1.42-0.26,2.56,0.17,3.45,1.33
		c3.93,5.13,1.58,12.54-3.89,14.89c-0.88,0.38-1.76,0.57-2.88,0.18C127.67,87.34,127.53,84.13,127.7,80.74z M117.06,50.19
		c0,0,0.04,0,0.08,0c0.01,0,0.02,0,0.03,0l0,0l0,0c0,0.02-0.01,0.04-0.02,0.07c-0.01,0.02-0.01,0.05-0.02,0.09
		c-0.02,0.07-0.04,0.17-0.08,0.33C117.06,50.35,117.06,50.27,117.06,50.19z M107.17,27.15C107.17,27.15,107.17,27.15,107.17,27.15
		c0.03-0.01,0.05-0.02,0.08-0.03c0.04-0.01,0.08-0.03,0.13-0.04c0.03,0,0.05-0.01,0.08-0.01c0.1-0.87,0.86-0.78,1.43-0.84
		c1.17-0.11,2.17,0.4,3.05,1.11c1.04,0.85,2.48,1.4,2.47,3.09c0.06,0.04,0.11,0.07,0.17,0.11c-0.03-0.01-0.07-0.03-0.1-0.04
		c-0.85-0.68-1.7-1.36-2.54-2.04c-1.31-1.07-2.78-1.61-4.48-1.39c0,0.02-0.01,0.04-0.01,0.06
		C107.34,27.14,107.23,27.14,107.17,27.15c-0.01,0-0.02,0.01-0.03,0.01c-0.03,0.01-0.03,0.01,0,0
		C107.15,27.16,107.16,27.15,107.17,27.15C107.17,27.15,107.17,27.15,107.17,27.15C107.12,27.15,107.11,27.15,107.17,27.15z
		 M103.73,29.72c0-0.03,0-0.07,0-0.1c0.06,0,0.12,0,0.18,0c0.82-0.54,1.68-0.95,2.7-1.09c2.52-0.34,4.56,0.29,6.2,2.37
		c1.31,1.66,2.31,3.43,2.61,5.51c0.54,3.79,0.98,7.6,1.45,11.41c0.03,0.26-0.08,0.53-0.16,0.98c-1.12-0.89-1.45-2.05-1.63-3.22
		c-0.38-2.49-0.7-5-0.98-7.5c-0.25-2.19-1.04-4.16-2.12-6.05c-1.02-1.8-2.5-2.7-4.63-2.5c-0.9,0.08-1.8,0.08-2.71,0.08
		c-0.24,0-0.48,0-0.72,0.01c-0.04,0.03-0.08,0.05-0.12,0.08c-0.03,0.11-0.07,0.23-0.08,0.26C103.72,29.91,103.72,29.82,103.73,29.72
		z M103.79,56.71c0.28,2.04,1.32,2.93,3.35,3.04c0.82,0.05,1.65,0.01,2.63,0.01c-0.51,1.26-1.52,1.51-2.48,1.81
		c-2.32,0.72-4.43,0.54-6.13-1.44c-1.83-2.13-2.21-4.64-0.85-6.99c1.26-2.19,2.84-4.15,5.06-5.6c0.41,0.87-0.3,1.29-0.56,1.8
		C103.62,51.69,103.44,54.18,103.79,56.71z M109.08,58.7c-0.64,0.62-1.32,0.36-1.98,0.03c-0.82-0.41-1.28-1.13-1.38-1.99
		c-0.31-2.55-0.15-5.05,1.37-7.25c0.51-0.74,1.16-1.39,1.75-2.09C108.12,55.31,108.12,55.31,109.08,58.7z M94.21,26.1
		c1.46,1.68,2.89,3.44,2.84,6.4c-0.99-1.81-1.58-3.34-2.58-4.55c-0.98-1.19-2.37-2.04-3.94-3.33C92.21,24.49,93.38,25.13,94.21,26.1
		z M93.94,29.34c0.83,0.52,1.65,1.23,1.4,2.57c-1.23-0.89-2.28-1.81-3.48-2.45c-1.2-0.65-2.54-1.03-3.82-1.53
		C90.38,27.12,92.18,28.24,93.94,29.34z M67.79,40.14c0.34-4.38,2.49-7.6,6.78-9.14c1.73-0.62,3.39-1.66,5.69-0.88
		c-0.88,0.29-1.46,0.58-2.08,0.68c-1.71,0.28-3.17,1.1-4.66,1.9c-2.54,1.37-3.76,3.57-4.08,6.35c-0.18,1.58-0.27,3.18-0.48,4.76
		c-0.18,1.37-0.48,2.73-0.72,4.09c-0.14-0.01-0.27-0.02-0.41-0.03C67.8,45.3,67.59,42.71,67.79,40.14z M76.21,45.69
		c0,0.06-0.04,0.12-0.08,0.17c-0.05,0.06-0.1,0.11-0.14,0.17l0,0l0,0c-0.03-0.03-0.08-0.06-0.11-0.09
		c-0.04-0.03-0.07-0.06-0.06-0.08c0.03-0.16,0.1-0.3,0.16-0.47C76.06,45.49,76.21,45.59,76.21,45.69z M70.53,55.51
		c-0.03,0.02-0.07,0.04-0.1,0.06l0,0c0,0,0,0,0,0c0.01-0.01,0.02-0.02,0.03-0.03c0.02-0.02,0.03-0.03,0.03-0.03
		C70.5,55.51,70.52,55.51,70.53,55.51c0.09-0.05,0.17-0.11,0.26-0.16c0.1-0.06,0.2-0.13,0.3-0.19c0-0.03,0-0.07-0.01-0.11
		c0.06-0.02,0.11-0.04,0.16-0.07c0.49-0.67,0.98-1.35,1.47-2.02c-0.44,1.54-0.46,1.62-1.47,2.02c-0.03,0.05-0.07,0.09-0.1,0.14
		c-0.02,0.01-0.04,0.02-0.06,0.04C71.1,55.54,70.87,55.6,70.53,55.51z M67.34,90.62c-0.68,0-1.44,0.18-2.07-0.03
		c-6.35-2.15-8.64-10.31-4.37-15.42c1.02-1.22,2.36-1.38,3.83-0.89c1.7,0.56,2.21,1.33,2.36,3.75c-1.96,2.16-4.96,3.45-4.72,7.11
		c2.27-0.76,2.6-3.31,4.51-4.21c0.7,0.24,0.45,0.89,0.45,1.37C67.36,84.99,67.34,87.69,67.34,90.62z M74.83,106.08
		c-3.78-5.78-5.18-12.16-5.45-18.93c-0.26-6.56-0.61-13.11-0.99-19.66c-0.09-1.49-0.42-2.97-0.73-4.43
		c-0.32-1.47,0.1-2.55,1.38-3.35c1.03-0.64,2.06-1.31,3.02-2.06c2.34-1.84,3.71-4.19,3.72-7.24c0-0.37,0.05-0.75,0.09-1.12
		c0.01-0.08,0.1-0.15,0.39-0.55c0,2.34,0.18,4.39-0.04,6.4c-0.33,2.9-2.04,5.02-4.59,6.35c-0.86,0.45-1.95,0.45-3.07,0.68
		c1.37,0.88,2.84,0.91,4.46,0.93c-0.37,0.62-0.64,1.07-1.04,1.73c4.62-0.83,8.71-2.9,13.21-3.31c0.24-0.02,0.45-0.28,0.9-0.58
		c-0.59-0.43-0.91-0.87-1.27-0.9c-1.2-0.11-2.44-0.27-3.61-0.05c-1.61,0.29-3.17,0.81-4.75,1.27c-0.2,0.06-0.4,0.11-0.59,0.17
		c0,0.01,0,0.01,0,0.02l-0.04,0c-0.02,0-0.04,0-0.04,0l0,0c0,0-0.06,0-0.1,0.01l-0.03,0l0.14-0.01c0.02-0.01,0.05-0.01,0.07-0.02
		c0.08-0.25,0.13-0.52,0.21-0.77c0.05-0.15,0.11-0.29,0.2-0.42c1.6-2.12,2.24-4.5,2.18-7.12c-0.04-1.78-0.01-3.56-0.01-5.33
		c0.51-0.36,0.94-0.66,1.36-0.95c-0.1-0.23-0.11-0.45-0.23-0.53c-0.95-0.65-0.96-0.65-0.94-2.03c2.63-1.39,5.52-0.91,8.28-0.67
		c0.26-0.93-0.19-1.19-0.61-1.3c-0.99-0.27-2-0.47-3.01-0.65c-0.52-0.1-1.06-0.11-1.59-0.51c1.48,0,2.97-0.03,4.45,0.01
		c1.35,0.04,2.56,1,4.08,0.71c-0.29-1.96-2.29-1.55-3.31-2.83c0.67,0.08,1.2-0.01,1.56,0.21c1.52,0.91,2.99,1.9,4.47,2.87
		c0.29,0.19,0.54,0.43,0.94,0.76c0.83-2.04-1.08-2.61-1.87-4.02c2.5,0.44,3.35,2.75,5.28,3.52c0.83-0.1,1.1-0.86,1.44-1.5
		c0.81-1.52,1.94-2.76,3.35-3.74c1.27-0.89,2.63-1.44,4.56-0.85c-1.02,0.55-1.82,0.97-2.61,1.4c-1.25,0.67-2.47,1.38-3.24,2.63
		c-0.35,0.57-0.61,1.19,0.31,1.8c1.52-1.93,3.34-3.49,5.91-3.74c0.04-0.03,0.08-0.07,0.12-0.1c0.07-0.01,0.14-0.02,0.2-0.03
		c0.04-0.04,0.08-0.08,0.1-0.1c0.04-0.04,0.02-0.02-0.1,0.1c0.02,0,0.03-0.01,0.05-0.01c0.04-0.01,0.08-0.01,0.09-0.02
		c0.02,0,0.02,0,0,0c-0.02,0-0.05,0.01-0.09,0.02c-0.02,0-0.03,0-0.05,0.01l0,0l0,0c-0.04,0.04-0.08,0.08-0.12,0.12l0,0l0,0
		c-0.07,0-0.13,0.01-0.2,0.02c-1.06,0.87-2.59,1.28-3.07,3.1c0.97-0.17,1.77-0.37,2.58-0.43c0.77-0.05,1.54,0.04,2.31,0.08
		c0.01-0.02,0.01-0.03,0.02-0.05c0.03-0.01,0.07-0.01,0.1-0.01c0.04-0.07,0.08-0.13,0.12-0.2c0,0.06,0.02,0.15-0.01,0.16
		c-0.03,0.02-0.07,0.03-0.11,0.03c-0.01,0.02-0.03,0.05-0.04,0.07c-0.03,0-0.05,0-0.08,0c-0.23,0.47-0.36,1.03-0.72,1.35
		c-1.39,1.25-2.81,2.5-4.32,3.6c-2.17,1.58-3.88,3.56-5.29,5.79c-2.34,3.71-1.16,8.82,2.53,11.15c2.32,1.46,4.65,1.23,6.89-0.2
		c0.86-0.55,1.61-1.26,2.52-1.99c2,2.38,4.63,3.1,7.47,2.8c0.98,1.44,1.85,2.73,2.89,4.26c-0.51-0.03-0.86,0.04-1.11-0.08
		c-0.75-0.38-1.46-0.84-2.18-1.27c-3.26-1.96-6.62-1.85-9.98-0.4c-1.53,0.66-3.09,1.34-4.22,2.93c1.73,0.72,2.81-1.04,4.42-0.74
		c0.17,0.83,0.36,1.73,0.55,2.69c-0.6,0.35-1.13,0.66-1.95,1.13c0.62,0.31,1.01,0.69,1.35,0.64c3.28-0.46,6.55-0.17,9.83,0.06
		c0.23,0.02,0.47-0.21,0.86-0.39c-0.57-1.22-1.92-0.66-2.74-1.42c0.11-0.81,0.23-1.71,0.35-2.69c1.62-0.36,2.39,1.36,3.98,1.51
		c0.65-0.37,1.45-0.83,2.4-1.37c1.14,0.28,2.4,0.59,3.83,0.95c0,1.7,0.05,3.38-0.01,5.05c-0.13,3.84-0.44,7.69-0.45,11.53
		c-0.02,4.75-0.84,9.35-2.39,13.79c-1.97,5.66-5.33,10.29-10.74,13.23c-3.11,1.69-6.5,2.43-9.93,2.95
		c-5.95,0.89-11.82,0.32-17.47-1.71C80.93,112.7,77.41,110.03,74.83,106.08z M85.26,137.71c0.59-0.2,1.36,0.18,2.13,0.31
		c-0.56,1.51-1.03,2.79-1.58,4.25c-0.9-0.27-1.75-0.53-2.84-0.86c0.32-1,0.41-1.69,0.75-2.21C84.1,138.61,84.64,137.92,85.26,137.71
		z M79.36,137.02c1.32-1.52,2.5-1.49,4.31-0.17c-0.64,1.22-1.28,2.44-2.02,3.84c-1.02-0.57-1.82-1.02-3.05-1.71
		c0.21,0.79,0.2,1.24,0.42,1.49c0.41,0.47,0.95,0.83,1.45,1.25c-0.84,0.92-1.52,1.67-2.35,2.58c-0.72-0.38-1.5-0.8-2.49-1.33
		C76.66,140.74,77.84,138.76,79.36,137.02z M75.66,145.17c0.72,0.49,1.39,0.95,2.11,1.44c-0.7,2.36-1.35,4.6-2.04,6.82
		c-1.3,4.21-2.11,8.53-2.85,12.87c-0.55,3.22-1.29,6.4-1.98,9.78c-2.58,0.27-4.77-0.02-7.03-0.5c1.32-5.55,2.95-10.91,4.74-16.23
		c0.57-1.68,1.04-3.4,1.57-5.09c0.92-2.98,2.12-5.81,4.32-8.1C74.81,145.82,75.19,145.56,75.66,145.17z M66.71,148.3
		c1.31-3.05,3.76-4.82,6.84-5.79c0.13-0.04,0.31,0.05,0.47,0.11c0-0.01-0.01-0.02-0.01-0.03c0.02,0.02,0.05,0.03,0.07,0.05
		c-0.02-0.01-0.04-0.01-0.06-0.02c0.2,0.67,0.39,1.35,0.61,2.09c-3.14,2.47-4.69,5.92-5.76,9.69c-0.62,2.16-1.43,4.26-2.08,6.42
		c-1.46,4.84-2.88,9.69-4.36,14.72c-1.65,0.17-3.47,0.22-5.48-0.29c0.14-0.74,0.2-1.37,0.38-1.96c1.93-6.17,4-12.29,6.64-18.2
		C64.96,152.85,65.75,150.53,66.71,148.3z M30.13,173.49c0.14-0.69,0.17-1.22,0.34-1.71c1.81-5.11,5.14-9.11,9.24-12.53
		c1.67-1.39,3.53-2.49,5.58-3.22c3.61-1.3,7.25-2.56,10.85-3.89c1.67-0.62,3.29-1.35,4.93-2.05c0.82-0.35,1.63-0.73,2.9-1.31
		c-1.83,4.7-3.54,8.93-5.13,13.2c-1.59,4.3-3.06,8.64-4.66,13.19c-3.86-0.16-7.88-0.12-11.86-0.54
		C38.34,174.2,34.29,174.4,30.13,173.49z"/>
	<path d="M88.42,73.92c-0.89-0.47-1.42-0.75-2.1-1.12c0.09-0.91,0.18-1.87,0.29-2.97c1.56,0.47,2.87,0.86,4.17,1.24
		c0.08-0.19,0.16-0.38,0.25-0.57c-1.83-2.01-4.33-2.76-6.86-3.34c-3.73-0.85-6.7,1.05-9.66,3.04c-0.72-0.51-1.37-0.97-2.28-1.62
		c0,0.66-0.12,1.06,0.02,1.31c0.6,1.08,1.42,1.94,2.61,2.25c1.32-0.33,1.98-1.85,3.48-1.65c0.23,0.95,0.44,1.83,0.62,2.58
		c-0.72,0.94-2.17,0.37-2.67,1.85c0.88,0,1.59,0.06,2.29-0.01c2.69-0.27,5.35-0.88,8.09-0.29C87.06,74.71,87.58,74.27,88.42,73.92z"
		/>
	<path d="M94.31,70.03c0.78,3.7,0.55,7.42-0.13,11.15c-0.4,2.19-0.55,4.47-0.5,6.7c0.07,2.73,2.4,4.14,4.97,3.17
		c1.32-0.5,2.55-1.2,3.4-2.38c0.21-0.29,0.19-0.75,0.37-1.59c-1.32,0.91-2.2,1.6-3.15,2.15c-1.74,1-3.49,0.12-3.67-1.87
		c-0.08-0.83,0.04-1.68,0.13-2.52c0.41-3.62,1.11-7.2,0.95-10.89c-0.16-3.64-1.03-7.02-2.86-10.16c-0.5-0.86-1.17-1.64-1.75-2.45
		c-0.2,0.11-0.4,0.21-0.6,0.32c0.35,0.83,0.75,1.64,1.03,2.49C93.14,66.1,93.89,68.03,94.31,70.03z"/>
	<path d="M96.19,99.3c0.81-0.02,1.06-0.66,0.57-1.66c-2.22-0.38-4.58-0.78-6.87-1.16c-0.78,0.7-0.66,1.31,0.03,1.68
		C91.88,99.21,94.04,99.37,96.19,99.3z"/>
	<path d="M101.94,98.6c1.52-0.41,3.05-0.81,4.16-2.05c0.12-0.14,0.02-0.48,0.02-1.08c-2.29,0.76-4.53,1.09-6.87,2.46
		C101.06,98.78,101.07,98.83,101.94,98.6z"/>
	<path d="M98.36,103.09c1.19-0.03,2.28-0.3,2.93-1.67c-2.08,0-3.92,0-6.23,0C95.98,103.19,97.19,103.13,98.36,103.09z"/>
</g>
</svg>
