<?xml version="1.0" encoding="utf-8"?>
<!-- Generator: Adobe Illustrator 28.0.0, SVG Export Plug-In . SVG Version: 6.00 Build 0)  -->
<svg version="1.1" id="Layer_1" xmlns="http://www.w3.org/2000/svg" xmlns:xlink="http://www.w3.org/1999/xlink" x="0px" y="0px"
	 viewBox="0 0 200 200" style="enable-background:new 0 0 200 200;" xml:space="preserve">
<style type="text/css">
	.st0{fill:none;}
</style>
<g>
	<path class="st0" d="M84.05,163.84c-0.14,0.05-0.29,0.1-0.43,0.16C83.76,163.95,83.91,163.89,84.05,163.84
		C84.05,163.84,84.05,163.84,84.05,163.84z"/>
	<path class="st0" d="M81.09,136.8C81.09,136.8,81.09,136.8,81.09,136.8c0.01-0.01,0.02-0.03,0.03-0.04
		C81.11,136.77,81.1,136.79,81.09,136.8z"/>
	<polygon class="st0" points="81.15,136.72 81.16,136.71 81.16,136.71 	"/>
	<path class="st0" d="M81.15,124.98C81.15,124.98,81.15,124.98,81.15,124.98c-0.29,0.08-0.59,0.15-0.88,0.23l0,0
		C80.56,125.13,80.85,125.06,81.15,124.98z"/>
	<path class="st0" d="M78.9,126.36c-0.05,0-0.11-0.01-0.16-0.02C78.79,126.35,78.84,126.36,78.9,126.36z"/>
	<path class="st0" d="M79.62,128.79c0.02,0.05,0.03,0.09,0.04,0.13C79.65,128.88,79.63,128.84,79.62,128.79z"/>
	<path class="st0" d="M79.58,128.68L79.58,128.68c0.01,0.04,0.03,0.08,0.04,0.12C79.6,128.75,79.59,128.72,79.58,128.68z"/>
	<path class="st0" d="M83.23,171L83.23,171c-0.01,0-0.02,0-0.04,0C83.2,171,83.21,171,83.23,171z"/>
	<path class="st0" d="M79.52,126.1L79.52,126.1c-0.32,0.06-0.65,0.13-0.97,0.19l0,0C78.87,126.23,79.2,126.17,79.52,126.1z"/>
	<path d="M79.66,126.03c0.02,0.02,0.04,0.04,0.04,0.04c0.11-0.27,0.22-0.53,0.33-0.8c-0.11,0.27-0.22,0.53-0.33,0.8L79.66,126.03z"
		/>
	<path d="M93.68,42.3c0,0,0.02,0.02,0.04,0.04L93.68,42.3z"/>
	<path d="M82.28,124.04c0.2-0.05,0.4-0.1,0.6-0.15c0,0,0.01-0.03,0.03-0.07l-0.03,0.07C82.68,123.94,82.48,123.99,82.28,124.04z"/>
	<path d="M81.16,136.71c0.41-0.13,0.82-0.26,1.23-0.39C81.98,136.45,81.57,136.58,81.16,136.71
		C81.16,136.71,81.16,136.71,81.16,136.71z"/>
	<path d="M82.84,123.83c0,0,0.01,0.01,0.02,0.03L82.84,123.83c-0.41,0.1-0.82,0.2-1.22,0.29l0,0
		C82.02,124.03,82.43,123.93,82.84,123.83z"/>
	<path d="M79.55,128.59L79.55,128.59c0.06-0.04,0.11-0.08,0.17-0.12C79.67,128.52,79.61,128.56,79.55,128.59z"/>
	<path d="M93.16,42.93L93.16,42.93c-0.01,0.02-0.02,0.03-0.03,0.05l0,0C93.14,42.96,93.15,42.94,93.16,42.93z"/>
	<path d="M79.9,128.36C79.9,128.36,79.9,128.36,79.9,128.36c-0.1,0.1-0.2,0.2-0.29,0.3C79.7,128.56,79.8,128.46,79.9,128.36z"/>
	<path d="M79.62,125.99c0,0,0.02,0.02,0.04,0.04L79.62,125.99z"/>
	<path d="M81.76,126.97l0-0.02C81.76,126.96,81.76,126.97,81.76,126.97z"/>
	<path d="M97.5,46.24c0.19-0.22,0.38-0.44,0.56-0.66C97.87,45.8,97.69,46.02,97.5,46.24c-0.03,0.04-0.06,0.09-0.09,0.13l0,0
		C97.44,46.32,97.47,46.28,97.5,46.24z"/>
	<polygon points="81.16,136.71 81.16,136.71 81.16,136.71 81.16,136.71 	"/>
	<path d="M93.72,42.34c0.02,0.02,0.04,0.04,0.04,0.04c0.21-0.16,0.42-0.32,0.63-0.48c-0.21,0.16-0.42,0.32-0.63,0.48L93.72,42.34z"
		/>
	<path d="M167.39,163.62c-1.89-3.5-3.81-6.99-7.24-9.31c-0.27-0.18-0.55-0.53-0.6-0.83c-0.15-0.96-0.83-1.36-1.59-1.68
		c-2.49-1.05-5-2.06-7.49-3.11c-7.26-3.05-14.82-5.11-22.41-7.14c-2.21-0.59-4.19-1.99-4.55-4.76c-0.42-3.22-0.9-6.45-1.57-9.62
		c-0.59-2.78-1.68-5.37-4.54-6.68c-0.13-0.06-0.2-0.27-0.44-0.62c0.23-2.86,0.48-5.91,0.72-8.91c1.39-1.76,2.83-3.39,4.04-5.18
		c1.26-1.86,2.4-3.83,3.42-5.84c0.96-1.91,1.69-3.93,2.53-5.93c5.09,1.05,8.62-1.09,11.26-4.99c1.29-1.9,1.8-4.15,1.91-6.42
		c0.15-3.16-1.63-5.62-3.22-7.86c0.94-2.85,1.81-5.49,2.7-8.19c0.61-0.11,1.24-0.18,1.83-0.35c0.51-0.15,0.99-0.43,1.63-0.71
		c-1.25-0.57-2.35,0.6-3.43-0.37c0.83-3.32-0.06-6.55-0.81-9.79c-0.06-0.26-0.13-0.53-0.16-0.8c-0.91-6.36-3.45-12.14-6.51-17.7
		c-2.02-3.67-5.14-6.22-8.78-8.2c-2.72-1.48-5.58-2.46-8.77-2.64c0.79-1.04,1.86-0.92,2.81-1.02c0.98-0.1,1.99-0.14,2.97-0.07
		c0.98,0.07,1.98,0.23,2.91,0.52c0.89,0.28,1.7,0.79,3.05,1.44c-1.03-1.65-2.12-2.24-3.29-2.65c-3.47-1.24-6.91-0.73-10.45,0.53
		c-0.26-0.93-0.45-1.7-0.7-2.45c-0.68-1.96-1.3-3.97-2.98-5.38c-0.32-0.27-0.69-0.63-1.26-0.08c1.81,1.96,2.68,4.36,3.17,7.44
		c-0.63-1.01-1.02-1.61-1.38-2.22c-1.21-2.05-2.96-2.96-5.38-2.98c-3.93-0.04-7.43,1.24-10.85,2.97c-2.01,1.01-4.03,2.02-6.13,2.85
		c-4.03,1.59-8.12,3.01-12.17,4.55c-2.87,1.09-5.76,2.14-8.35,3.84c-5.76,3.79-10.39,8.61-13.79,14.66
		c-2.17,3.86-3.07,7.87-2.57,12.23c0.28,2.42,1.01,4.69,2.38,7.36c-0.36-2.6-0.8-4.62-0.86-6.65c-0.06-2.15,0.11-4.33,0.45-6.46
		c0.33-2.04,1.19-3.94,2.5-5.56c-0.27,2.79-0.64,5.55-0.78,8.32c-0.15,2.81,0.43,5.57,1.1,8.3c0.89,3.65,1.96,6.42,3.07,7.62
		c-0.21-1.61-0.89-3.02-0.7-4.9c1.67,2.95,3.17,5.59,4.74,8.36c-1.28,2.52-2.59,5.13-1.83,8.35c0.74,3.12,2.15,5.65,4.64,7.71
		c2.54,2.09,5.45,2.1,8.53,1.86c0.36,0.85,0.69,1.58,0.97,2.33c1.55,4.19,3.76,8.04,6.7,11.38c1.69,1.92,2.91,3.83,2.71,6.47
		c-0.04,0.53,0.18,1.07,0.22,1.61c0.11,1.6,0.18,3.2,0.27,4.71c-2.2,1.2-4.18,2.26-6.14,3.35c-2.24,1.24-4.14,2.89-5.72,4.9
		c-1.44,1.83-2.32,3.85-2.18,6.24c0.11,1.96,0.14,3.93,0.22,6.03c-1.04,0.49-2.07,1.03-3.15,1.46c-8.38,3.34-16.76,6.69-25.17,9.95
		c-1.66,0.64-2.92,1.4-2.92,3.44c-1.99,1.07-3.3,2.81-4.31,4.75c-1.7,3.28-3.27,6.61-4.87,9.86c1.17,2.66,3.24,4.17,5.77,5.1
		c2.37,0.86,4.74,1.74,7.27,2.1c2.5,0.35,4.98,0.84,7.46,1.34c5.13,1.03,10.26,2.1,15.39,3.14c4.65,0.95,9.29,1.35,13.93-0.11
		c1.11-0.35,2.3-0.54,3.46-0.61c6.58-0.39,13.16-0.9,19.75-1.01c8.18-0.13,16.21-1.28,24.12-3.17c6.9-1.64,13.86-2.36,20.92-2.65
		c5.77-0.23,11.53-0.79,17.29-1.27c1.79-0.15,2.99-1.44,3.01-3.22c0.01-1.24-0.16-2.52-0.47-3.72
		C168.43,165.74,167.95,164.64,167.39,163.62z M59.46,54.61l0.2-0.07l0,0.13L59.46,54.61z M68.45,166.37
		c-0.9,0.6-1.88,1.06-2.8,1.62c-2.22,1.36-2.44,1.63-3.28,3.86c-0.81-0.28-0.76-0.92-0.6-1.55c0.26-1.02,0.98-1.71,1.81-2.28
		c1.02-0.71,2.08-1.38,3.4-2.25c-5.24-0.17-9.86,2.02-14.61,1.98c-0.67-0.86-0.39-1.42,0.15-1.81c0.72-0.53,1.48-1.05,2.29-1.42
		c2.95-1.34,5.93-2.61,8.89-3.92c1.54-0.68,3.08-1.39,4.66-2.1c0.16,0.98-0.5,1.14-0.98,1.37c-1.62,0.78-3.27,1.5-4.91,2.24
		c-2.05,0.93-4.11,1.85-6.14,2.81c-0.79,0.37-1.54,0.86-2.2,1.62c0.48-0.04,0.97-0.01,1.43-0.12c3.51-0.8,7.04-1.51,10.64-1.79
		c0.97-0.08,1.96-0.35,3.27,0.45C69.06,165.62,68.83,166.11,68.45,166.37z M70.44,158.15c-0.11,0-0.21,0-0.27,0
		c-0.05,0.01-0.04,0.01,0,0c-0.02,0-0.04,0-0.04,0c0,0,0.02,0,0.04,0c0.06-0.01,0.19-0.04,0.32-0.08c0.02-0.03,0.04-0.06,0.05-0.08
		C70.51,158.05,70.48,158.1,70.44,158.15z M70.81,145.75c-4.8,1.41-9.15,3.82-13.57,6.08c-3.31,1.7-6.85,2.78-10.4,3.85
		c-1.46,0.44-2.96,0.58-5.08-0.23c10.06-4.67,20.08-7.68,29.47-12.29c0.22,0.31,0.44,0.5,0.52,0.73c0.11,0.33,0.11,0.7,0.18,1.15
		C71.55,145.3,71.21,145.63,70.81,145.75z M137.24,76.7c1.16,1.51,2.02,3.29,1.91,5.23c-0.22,4.01-1.89,7.29-5.44,9.41
		c-1.51,0.9-3.14,1.23-5.13,0.65c0.79-3.5,1.52-6.72,2.29-10.18c0.33,0.33,0.68,0.54,0.84,0.85c0.74,1.44,1.38,2.93,2.14,4.35
		c0.33,0.62,0.9,0.9,1.64-0.03c-0.75-1.58-1.54-3.26-2.37-4.93c-0.48-0.97-1.02-1.9-1.53-2.86c-0.53-0.99-0.38-2,0.31-2.77
		c0.79-0.88,1.79-1.64,3.09-1.1C135.81,75.65,136.73,76.05,137.24,76.7z M120.64,48.52c2.86,3.08,6.4,5.09,10.9,6.82
		c-5.7-0.26-9.13-3.17-12.07-6.97C120.08,47.75,120.4,48.26,120.64,48.52z M116,46.45c1.19,2.94,3.22,5.2,5.74,7.05
		c2.56,1.88,5.32,3.39,8.21,4.71c1.47,0.68,2.88,1.47,4.89,2.5c-1.92,0.69-3.16,0.36-4.27-0.1c-4.37-1.8-8.51-3.98-11.76-7.54
		c-1.98-2.18-3.36-4.69-4.09-7.54c-0.19-0.74-0.18-1.52-0.33-2.91C115.09,44.3,115.56,45.37,116,46.45z M109.76,24.9
		c1.09,2.09,1.35,4.35,0.88,6.76c-0.18-0.45-0.4-0.9-0.53-1.37c-0.36-1.29-0.6-2.63-1.05-3.89c-0.6-1.7-1.68-2.97-3.9-3.19
		C107.85,22.65,108.75,22.96,109.76,24.9z M108.68,30.05c-1.2-1.28-2.38-2.55-3.57-3.82c0,0,0,0,0,0c-0.02-0.02-0.04-0.04-0.05-0.06
		c0.02,0.02,0.04,0.04,0.05,0.06C107.66,26.45,108.75,27.61,108.68,30.05z M69.78,50.61c7.97-1.28,15.55-3.68,22.66-7.56
		c0.19-0.1,0.46-0.07,0.7-0.08c0.01-0.02,0.02-0.03,0.03-0.05c0.18-0.21,0.35-0.42,0.53-0.62c0.21-0.15,0.42-0.31,0.63-0.46
		c0.03-0.05,0.07-0.1,0.1-0.15c-0.01,0.07-0.02,0.14-0.03,0.21c-0.21,0.16-0.42,0.32-0.63,0.48c-0.19,0.2-0.37,0.4-0.56,0.59
		c-0.02,0-0.05,0-0.07,0c-0.09,0.17-0.17,0.36-0.25,0.53c-0.05,0.1-0.1,0.19-0.16,0.27c-0.06,0.08-0.12,0.15-0.2,0.19
		c-1.29,0.81-2.59,1.65-3.98,2.25c-5.31,2.27-10.8,3.97-16.46,5.12c-1.5,0.31-3.01,0.43-5.08,0.05
		C68.26,51.03,69.01,50.74,69.78,50.61z M64.12,55.29c4.37,0.53,8.64-0.1,12.87-1.11c5.72-1.36,11.23-3.33,16.52-5.89
		c0.81-0.39,1.52-0.98,2.32-1.38c0.49-0.25,1.05-0.38,1.58-0.54c0.03-0.04,0.06-0.08,0.09-0.13c0.19-0.22,0.38-0.44,0.56-0.66
		c0.02,0.02,0.05,0.05,0.07,0.07c-0.19,0.22-0.37,0.44-0.56,0.66c-0.05,0.02-0.11,0.03-0.16,0.05c-0.34,0.53-0.75,0.98-1.2,1.37
		c-0.2,0.17-0.4,0.33-0.61,0.48c-0.21,0.15-0.43,0.29-0.65,0.43c-0.22,0.13-0.44,0.26-0.67,0.39c-0.57,0.31-1.15,0.58-1.72,0.86
		c-5.63,2.69-11.5,4.79-17.64,5.93c-3.43,0.64-6.96,1.15-10.49,0.41c-0.48-0.1-0.94-0.35-1.9-0.71
		C63.43,55.38,63.79,55.25,64.12,55.29z M67.07,73.96c-1.75-2.86-2.46-5.97-1.98-9.31c0.07-0.47,0.41-0.9,0.69-1.49
		c0.17,0.38,0.32,0.54,0.3,0.69c-0.42,3.09,0.74,5.84,1.89,8.58c0.41,0.97,1.02,1.89,0.77,3.02c0.02,0,0.03,0,0.05,0l0.04,0.13
		l-0.11-0.08c0-0.02,0.01-0.04,0.01-0.06C67.77,75.44,67.45,74.58,67.07,73.96z M61.23,55.08c0.15-0.01,0.31-0.01,0.46-0.01
		c0,0.06,0,0.12,0,0.17c-0.16,0-0.31-0.01-0.47-0.02C61.22,55.23,61.22,55.08,61.23,55.08z M61.35,62.1
		c0.05-0.31,0.32-0.59,0.77-1.36c0.06,0.92,0.14,1.3,0.1,1.67c-0.45,3.95,0.37,7.52,3.11,10.54c0.34,0.37,0.5,0.9,0.73,1.36
		c0.03,0,0.05,0,0.08-0.01c0.13,0.24,0.25,0.48,0.38,0.72c0.02,0.02,0.05,0.05,0.07,0.07c-0.05-0.04-0.09-0.08-0.14-0.11
		c-0.12-0.21-0.24-0.42-0.37-0.62c-0.01-0.02-0.02-0.03-0.02-0.05c-1.17,0.16-1.66-0.79-2.23-1.5
		C61.28,69.65,60.69,66.01,61.35,62.1z M67.97,91.7c-3.58-2.07-5.22-5.37-5.49-9.37c-0.11-1.65,0.6-3.15,1.54-4.71
		c1.78,1.26,3.37,2.39,5.03,3.56c-0.96,2.07-1.93,4.17-2.85,6.15c0.46,0.79,1.02,0.87,1.39,0.35c0.52-0.72,0.86-1.57,1.27-2.36
		c0.56-1.09,0.84-2.35,1.84-3.35c0.82,3.48,1.6,6.78,2.41,10.25C71.26,92.95,69.54,92.61,67.97,91.7z M75.94,94.67
		c-1.7-4.29-2.76-8.76-3.42-13.49c0.86-0.32,1.68-0.62,2.72-1.01c-2.04-1.75-2.98-3.92-2.95-6.42c0.01-1.61,0.15-3.26,0.53-4.82
		c0.88-3.6,2.13-7.08,3.71-10.64c0.89-0.15,1.85-0.33,2.81-0.46c5.88-0.74,11.46-2.43,16.7-5.23c0.44-0.23,0.97-0.29,1.47-0.42
		c0.01-0.01,0.01-0.01,0.02-0.02c0.01,0,0.01,0,0.02,0c0.26-0.7,0.84-0.92,1.5-1c0.01-0.03,0.03-0.05,0.04-0.08l0.18-0.11
		l-0.11,0.17c-0.04,0-0.07,0.01-0.11,0.01c-0.31,0.6-0.78,0.98-1.5,1c0,0.01,0,0.01-0.01,0.01c-0.01,0-0.02,0.01-0.03,0.01
		c-1.76,1.97-4.03,3.19-6.39,4.26c-0.56,0.25-1.15,0.44-2.02,0.76c2.86,0.2,6.96-1.56,10.88-4.41c3.16-2.29,5.74-5.16,8.12-8.36
		c3.92,8.19,10.24,13.87,17.46,18.69c1.71,1.14,3.61,2.01,5.6,3.1c0,0.28,0.05,0.72-0.01,1.14c-0.71,4.82-1.45,9.64-2.16,14.45
		c-1.17,7.86-3.61,15.28-7.96,21.98c-3.07,4.73-6.89,8.81-11.28,12.35c-0.7,0.57-1.45,1.08-2.22,1.55
		c-4.44,2.71-8.93,2.54-13.31-0.06c-3.13-1.86-5.68-4.44-8.18-7.06C81.61,105.96,78.29,100.61,75.94,94.67z M114.94,128.83
		c-0.74,0.4-1.41,0.87-2.14,1.12c-2.72,0.95-5.46,1.84-8.2,2.72c-1.97,0.63-3.95,1.24-5.95,1.78c-1.09,0.3-1.66,1.01-2,2
		c-0.06,0.17-0.08,0.35-0.12,0.53c-0.84,3.46,1.61,4.76,4.05,3.94c2.64-0.89,5.36-1.52,8.06-2.27c1.2,0.56,1.57,1.68,1.81,2.85
		c0.6,2.91,1.16,5.82,1.75,8.86c-0.77,0.94-1.45,1.89-2.24,2.73c-1,1.04-2.05,2.04-3.15,2.97c-2.66,2.23-4.86,4.83-6.56,7.86
		c-0.17,0.3-0.45,0.53-0.85,0.99c-2.24-3.21-4.42-6.3-6.56-9.4c-0.67-0.97-1.16-2.06-1.9-2.96c-1.26-1.55-1.4-3.25-1.05-5.09
		c0.22-1.15,0.51-2.29,0.64-3.44c0.08-0.69-0.09-1.41-0.15-2.23c-2.9-0.5-5.79-0.79-8.4-2.45c0.41-0.74,1.21-0.94,1.85-1.27
		c1.64-0.85,2.72-2.05,2.89-3.96c0.13-1.52,0.35-3.04,0.46-4.56c0.07-0.89,0.01-1.78,0.01-2.78c11.29,1.9,20.42-1.58,28.03-9.94
		c-0.09,1.97-0.23,3.95-0.27,5.92C114.9,124.72,114.94,126.71,114.94,128.83z M101.72,136.84c-0.28,0.31-0.42,0.56-0.63,0.69
		c-0.58,0.34-1.23,0.47-1.69-0.15c-0.15-0.2-0.09-0.77,0.1-0.95c0.52-0.52,1.15-0.95,1.85-0.23
		C101.46,136.32,101.52,136.5,101.72,136.84z M112.56,153.39c0.26,1.1,0.44,1.87,0.69,2.91c-0.78,0.69-1.68,1.32-2.39,2.12
		c-2.34,2.62-4.61,5.3-6.9,7.96c-1.34,1.56-2.56,3.25-4.61,4.2c-2.37-2.88-5.07-5.41-6.36-9.03c-0.5-1.41-1.54-2.63-2.36-3.93
		c-0.53-0.84-1.18-1.61-1.61-2.49c-0.25-0.5-0.17-1.16-0.3-2.34c0.75,0.8,1.15,1.12,1.42,1.52c2.66,3.97,5.28,7.96,7.93,11.94
		c0.82,1.22,1.68,1.31,2.63,0.26c0.48-0.53,0.91-1.12,1.28-1.74c1.67-2.83,3.78-5.26,6.28-7.39
		C109.67,156.17,110.99,154.84,112.56,153.39z M84.19,161.92l-0.04-0.25l0.15,0.03L84.19,161.92z M84.27,164.25
		c-0.16,0.05-0.32,0.16-0.46,0.13c-0.09-0.02-0.13-0.25-0.19-0.38c0.14-0.05,0.29-0.1,0.43-0.16c0,0,0,0,0,0c0,0,0,0,0,0
		C84.13,163.98,84.2,164.11,84.27,164.25z M84.04,160.4c0.1-0.38,0.21-0.75,0.31-1.13c0.14,0.07,0.42,0.17,0.41,0.21
		c-0.07,0.35-0.19,0.7-0.3,1.04C84.32,160.49,84.18,160.44,84.04,160.4z M84.03,156.92c0.74-1.11,0.25-2.61,1.39-4.04
		c0,1.58,0.02,2.72-0.02,3.86C85.4,157.07,84.82,157.16,84.03,156.92z M84.49,122.57c-0.06-0.02-0.12-0.04-0.17-0.06
		c0.01,0.11,0.02,0.22,0.04,0.32c0,0,0,0-0.01,0c-0.01-0.13-0.03-0.26-0.04-0.38C84.37,122.49,84.43,122.53,84.49,122.57z
		 M84.25,127.33c-0.03-0.62-0.12-1.26-0.06-1.87c0.03-0.26,0.37-0.49,0.67-0.85c0.49,2.7,0.4,7.37-0.05,9.27
		c-0.31,1.32-0.92,2.28-2.38,2.39c-0.01,0.02-0.02,0.04-0.03,0.06c-0.41,0.13-0.82,0.26-1.23,0.39c0,0-0.01,0.01-0.01,0.01
		c-0.02,0.02-0.04,0.05-0.05,0.07c0,0,0,0,0,0c0,0,0,0,0,0c0.01-0.01,0.02-0.03,0.03-0.04c0.01-0.01,0.02-0.03,0.03-0.04l0.03-0.03
		c0.01-0.02,0.03-0.03,0.03-0.03c0,0,0,0,0,0l0,0c0.38-0.13,0.76-0.25,1.14-0.38c0.02,0,0.05,0,0.07-0.01
		c0.37-0.85,0.78-1.69,1.08-2.56C84.2,131.64,84.36,129.49,84.25,127.33z M81.67,127.03c0.02-0.02,0.03-0.04,0.05-0.07
		c0.02-0.02,0.03-0.04,0.05-0.07l0.16,0l-0.17,0.07C81.73,126.99,81.7,127.01,81.67,127.03C81.67,127.03,81.67,127.03,81.67,127.03
		C81.67,127.03,81.67,127.03,81.67,127.03z M78.39,126.33l0-0.04c0-0.02,0-0.04,0-0.04c0.05,0.02,0.11,0.03,0.16,0.04
		c0.32-0.07,0.65-0.13,0.97-0.19c0.03-0.04,0.06-0.07,0.09-0.11c0.1-0.22,0.2-0.44,0.3-0.66c0.02-0.04,0.04-0.08,0.05-0.12l0,0
		c0.09-0.02,0.2-0.01,0.3,0c0.29-0.08,0.59-0.16,0.88-0.23c0.02-0.03,0.04-0.07,0.05-0.11c0.14-0.25,0.28-0.5,0.42-0.74l0,0
		c0.41-0.1,0.82-0.2,1.22-0.29l0.1-0.08l-0.03,0.07c-0.01,0.03-0.03,0.07-0.03,0.07c-0.2,0.05-0.4,0.1-0.6,0.15s-0.4,0.1-0.6,0.15
		l0,0c-0.14,0.25-0.27,0.5-0.41,0.75c-0.04,0.01-0.08,0.02-0.13,0.03c-0.21,0.37-0.56,0.27-0.88,0.23
		c-0.08,0.02-0.16,0.04-0.24,0.06c-0.11,0.27-0.22,0.53-0.33,0.8c-0.06,0.01-0.12,0.02-0.17,0.03c-0.18,0.21-0.4,0.27-0.63,0.25
		c-0.05,0-0.11-0.01-0.16-0.02c-0.06-0.01-0.12-0.02-0.18-0.04c-0.05,0.01-0.1,0.02-0.15,0.03l0.02,0.15L78.39,126.33L78.39,126.33
		L78.39,126.33L78.39,126.33z M79.58,128.68c-0.01-0.03-0.02-0.06-0.02-0.08l0,0l0,0c0.06-0.04,0.11-0.08,0.17-0.12
		c0.06-0.04,0.11-0.08,0.17-0.12c0,0,0,0,0,0s0,0,0,0c-0.1,0.1-0.2,0.2-0.29,0.3C79.59,128.67,79.59,128.67,79.58,128.68
		c0.01,0.04,0.03,0.08,0.04,0.12c0.02,0.05,0.03,0.09,0.04,0.13c0.01,0.06,0.02,0.12-0.01,0.16c-0.94,1.68-1.9,3.35-2.97,5.23
		C76.34,131.15,76.89,130.14,79.58,128.68z M82.62,177.68c-0.09,0.24-0.68,0.29-1.17,0.47c-0.31-1.1-0.3-1.89,0.6-2.48
		C83.05,176.12,82.89,176.95,82.62,177.68z M82.38,144.02c-0.62-0.03-1.28-0.07-1.85-0.29c-2.38-0.93-4.43-2.33-6-4.4
		c-1.05-1.38-1.12-2.9-0.49-4.56c0.93,2.98,3.29,4.5,5.6,6.03c1.41,0.94,2.89,1.76,4.51,2.73
		C83.57,144.17,82.93,144.05,82.38,144.02z M83.23,171c0,0.16,0,0.32,0,0.47c-0.05,0-0.09,0-0.14,0c0-0.16,0-0.32,0.01-0.47
		c0,0,0.05,0,0.09,0C83.2,171,83.21,171,83.23,171L83.23,171z M83.64,166.04c0.69,0.95,0.69,0.95,0.05,2.96
		C82.71,167.95,83.64,166.98,83.64,166.04z M114.55,177.88c-3.49,0.65-7.07,0.85-10.66,1.05c-4.78,0.26-9.56,0.5-14.34,0.81
		c-1.35,0.09-2.68,0.41-4.02,0.6c-0.42,0.06-0.86,0.01-1.49,0.01c0.15-0.72,0.28-1.22,0.36-1.72c0.26-1.69,0.52-3.38,0.75-5.08
		c0.49-3.67,0.91-7.34,1.46-11c0.29-1.93,0.8-3.83,1.31-6.17c1.58,2.26,2.94,4.16,3.74,6.37c0.85,2.34,2.19,4.34,3.86,6.15
		c0.67,0.73,1.28,1.52,1.89,2.3c0.58,0.73,1.21,1.33,2.47,1.42c0.9-0.71,2.09-1.42,2.98-2.39c2.31-2.53,4.48-5.18,6.71-7.78
		c1.11-1.28,2.24-2.54,3.58-4.06c1.04,3.49,1.18,6.73,1.54,9.93C115.06,171.43,115.15,174.59,114.55,177.88z M114.36,156.36
		c1.06,0.39,1.06,0.39,0.71,1.99C114.77,157.53,114.59,157.02,114.36,156.36z M113.89,150.88c1.3,1.5,1.38,1.85,0.58,3.87
		C114.22,153.1,114.07,152.07,113.89,150.88z M115.69,159.26c0.11,0.9,0.18,1.41,0.24,1.93C114.89,160.72,114.9,160.2,115.69,159.26
		z M115.64,166.27c-0.05-0.54-0.09-0.95-0.14-1.52C116.52,165.21,116.4,165.63,115.64,166.27z M116.69,173.24
		c-0.06,0.2-0.56,0.35-0.86,0.36c-0.16,0-0.46-0.34-0.46-0.54c-0.01-0.52,0.07-1.06,0.19-1.57c0.17-0.76,0.4-1.51,0.7-2.63
		c0.28,1.04,0.57,1.79,0.66,2.56C116.99,172.01,116.87,172.66,116.69,173.24z M107.59,133.26c0.83-0.45,1.33-0.79,1.88-1.02
		c1.57-0.66,3.17-1.26,4.74-1.92c2.65-1.12,4.27-2.94,3.96-6.02c-0.03-0.26,0.07-0.53,0.17-1.16c1.09,1.4,0.95,2.64,0.47,3.81
		c-0.33,0.81-0.81,1.62-1.41,2.25C115.6,131.1,110.87,133.07,107.59,133.26z M121.82,140.77c-0.24,1.53-0.84,2.93-1.93,4.07
		c-0.54,0.57-1.09,1.16-2.37,1.02c0.92-1.14,1.8-2.01,2.4-3.04c0.6-1.04,0.92-2.25,1.37-3.4
		C122.2,139.7,121.89,140.35,121.82,140.77z M138.12,158.2c-2.76-0.74-5.53-1.5-8.25-2.37c-0.96-0.31-2.09-0.36-2.8-1.35
		c3.83,0.08,7.43,1.09,11.01,2.18c0.45,0.14,0.8,0.59,1.5,1.14C138.86,158.01,138.44,158.28,138.12,158.2z M129.38,151.14
		c0.08-0.02,0.15-0.03,0.23-0.05c0.02,0.05,0.05,0.1,0.07,0.15c-0.08,0.02-0.15,0.05-0.23,0.05
		C129.43,151.29,129.41,151.19,129.38,151.14z M131.12,151.83c0-0.06,0-0.11,0-0.17c0.23,0,0.46,0,0.69,0c0,0.06,0,0.11,0,0.17
		C131.59,151.83,131.35,151.83,131.12,151.83z M151.54,158.09c-3.77-1.24-7.53-2.49-11.31-3.71c-1.46-0.47-2.95-0.83-4.41-1.3
		c-0.25-0.08-0.44-0.36-0.65-0.58c-0.05,0-0.09-0.01-0.14-0.01c-0.02-0.02-0.05-0.04-0.07-0.06c-0.48,0.02-0.96,0.04-1.44,0.06
		c0.5-0.47,0.98-0.47,1.44-0.06c0.04,0,0.08,0,0.13-0.01c0.03,0.02,0.05,0.05,0.08,0.08c0.94,0.09,1.92,0.06,2.8,0.34
		c5.25,1.64,10.48,3.35,15.71,5.05c0.14,0.04,0.22,0.26,0.38,0.46C153.13,158.86,152.34,158.35,151.54,158.09z M153.46,153.44
		c-1.92-0.47-3.85-0.95-5.71-1.6c-6.19-2.18-12.35-4.44-18.52-6.68c-0.74-0.27-1.66-0.41-1.12-1.8c9.66,2.46,18.85,5.87,27.99,9.41
		c0.3,0.12,0.55,0.35,1.1,0.71C155.69,153.91,154.56,153.71,153.46,153.44z"/>
	<path d="M81.76,126.97c-0.03,0.02-0.06,0.04-0.08,0.06c0,0,0,0,0,0C81.7,127.01,81.73,126.99,81.76,126.97z"/>
	<path d="M93.2,42.97l-0.01-0.01C93.2,42.97,93.2,42.97,93.2,42.97z"/>
	<path d="M81.77,126.9c-0.02,0.02-0.03,0.04-0.05,0.07C81.74,126.94,81.76,126.92,81.77,126.9L81.77,126.9z"/>
	<rect x="79.52" y="126.1" width="0" height="0"/>
	<path d="M79.62,125.99c0.1-0.22,0.2-0.44,0.3-0.66C79.81,125.55,79.71,125.77,79.62,125.99c-0.03,0.04-0.06,0.08-0.09,0.11l0,0
		C79.55,126.07,79.59,126.03,79.62,125.99z"/>
	<path d="M114.54,69.54c-1.99,0.34-3.74,1.31-5.04,2.91c-0.22,0.27-0.22,0.84-0.1,1.2c0.07,0.2,0.62,0.36,0.93,0.31
		c0.57-0.09,1.12-0.34,1.72-0.53c0.32,1.09,0.58,2.01,0.82,2.81c-0.49,0.64-1.61,0.68-1.02,1.88c0.65-0.09,1.34-0.19,2.04-0.26
		c0.72-0.08,1.43-0.14,2.15-0.18c0.72-0.04,1.44-0.03,2.16-0.04c0.72-0.01,1.45,0.03,2.16-0.06c0.68-0.08,1.34-0.31,2.45-0.57
		c-1.29-0.59-2.15-0.99-3.09-1.42c0.33-1.12,0.62-2.12,0.92-3.13c1.66-0.03,2.9,0.78,4.93,1.29c-0.55-0.86-0.73-1.4-1.1-1.66
		C121.49,69.98,118.19,68.92,114.54,69.54z"/>
	<path d="M90.9,78.81c0.11-0.02,0.18-0.25,0.36-0.52c-0.53-0.4-1.06-0.81-1.61-1.23c0.41-1.05,0.78-2.02,1.13-2.94
		c1.06-0.03,1.84,1.06,3.12,0.35c-0.33-0.56-0.51-1.18-0.92-1.53c-1.99-1.69-4.4-2.71-6.93-2.57c-3.81,0.2-7.3,1.5-9.98,5.16
		c1.72-0.59,3.05-1.07,4.39-1.48c0.47-0.14,0.99-0.12,1.58-0.18c0.11,1.03,0.2,1.89,0.29,2.74c-0.7,0.31-1.25,0.56-1.8,0.81
		c0.02,0.16,0.05,0.33,0.07,0.49c0.32,0.07,0.64,0.22,0.95,0.21c2.79-0.08,5.57-0.09,8.29,0.71C90.17,78.94,90.56,78.87,90.9,78.81z
		"/>
	<path d="M97.46,76.67c0.07,3.78,0.01,7.56,0,11.34c0,1.17-0.12,2.35,0.03,3.5c0.21,1.62,1.89,2.86,3.32,2.35
		c2.23-0.8,3.94-2.27,4.78-4.6c-1.1,1.23-2.47,2.02-3.98,2.58c-1.43,0.53-2.23,0-2.29-1.57c-0.02-0.63,0.05-1.26,0.11-1.88
		c0.61-6.51,0.11-12.95-1.43-19.3c-0.08-0.32-0.44-0.58-0.93-1.19c-0.04,0.9-0.11,1.34-0.08,1.77
		C97.14,72.01,97.42,74.34,97.46,76.67z"/>
	<path d="M109.82,63.34c0.09,0,0.18-0.02,0.27-0.03c4.14-0.39,8.24-0.16,12.33,0.52c0.49,0.08,1.01,0.01,1.59,0.01
		c-0.16-1.41-1.14-1.94-2.14-2.27c-1.44-0.48-2.93-0.88-4.43-1.09c-2.69-0.38-5.38-0.1-7.99,0.66c-0.67,0.19-1.4,0.51-1.38,1.43
		C108.1,63.11,108.77,63.39,109.82,63.34z"/>
	<path d="M92.15,63.56c-0.32-1.78-1.43-2.04-2.45-2.21c-3.16-0.54-6.3-0.32-9.33,0.73c-1.84,0.64-3.13,1.9-3.75,3.78
		c2.56-0.72,5.01-1.66,7.54-2.04C86.7,63.44,89.32,63.63,92.15,63.56z"/>
	<path d="M110.03,98.31c-2.65,0.74-5.29,1.51-8.39,2.4c1.4,1,2.39,0.74,3.3,0.54c1.92-0.4,3.88-0.74,5.48-2.01
		c0.14-0.11,0.1-0.47,0.13-0.7C110.34,98.44,110.16,98.27,110.03,98.31z"/>
	<path d="M97.41,105.12c0.58,0.37,0.86,0.69,1.14,0.7c1.69,0.03,3.39,0.02,5.08-0.05c0.26-0.01,0.5-0.43,0.79-0.69
		C102.23,104.32,100.07,104.3,97.41,105.12z"/>
	<path d="M91.4,100.11c0.22,0.46,0.28,0.83,0.51,1.01c0.25,0.21,0.64,0.33,0.98,0.35c1.55,0.11,3.16,0.48,4.77-0.68
		C95.55,99.86,93.61,99.74,91.4,100.11z"/>
</g>
</svg>
