<?xml version="1.0" encoding="utf-8"?>
<!-- Generator: Adobe Illustrator 28.0.0, SVG Export Plug-In . SVG Version: 6.00 Build 0)  -->
<svg version="1.1" id="Layer_1" xmlns="http://www.w3.org/2000/svg" xmlns:xlink="http://www.w3.org/1999/xlink" x="0px" y="0px"
	 viewBox="0 0 200 200" style="enable-background:new 0 0 200 200;" xml:space="preserve">
<style type="text/css">
	.st0{fill:none;}
</style>
<g>
	<path class="st0" d="M70.04,33.53c0.12,0.02,0.24,0.06,0.36,0.12l0,0C70.28,33.6,70.16,33.55,70.04,33.53z"/>
	<path class="st0" d="M104.11,24.13C104.11,24.13,104.11,24.13,104.11,24.13c-0.75,0.12-1.24-0.34-1.75-0.73
		C102.87,23.79,103.36,24.25,104.11,24.13z"/>
	<path class="st0" d="M104.59,24.65C104.59,24.65,104.59,24.65,104.59,24.65c-0.13-0.01-0.24-0.03-0.32-0.09
		C104.35,24.62,104.46,24.64,104.59,24.65z"/>
	<path class="st0" d="M110.71,27.86L110.71,27.86c-0.16-0.14-0.32-0.27-0.47-0.41l0,0C110.4,27.58,110.55,27.72,110.71,27.86z"/>
	<path class="st0" d="M82.97,43.73c0,0.06,0.02,0.12,0.04,0.19l0,0C82.99,43.85,82.98,43.78,82.97,43.73z"/>
	<path class="st0" d="M90.71,104.66c-0.06-0.05-0.11-0.11-0.17-0.16C90.6,104.55,90.65,104.6,90.71,104.66z"/>
	<path class="st0" d="M99.89,42.9c-0.08,0.08-0.17,0.17-0.25,0.25C99.72,43.07,99.8,42.98,99.89,42.9z"/>
	<path class="st0" d="M100.35,42.29L100.35,42.29c-0.05,0.12-0.13,0.23-0.22,0.34C100.22,42.53,100.29,42.41,100.35,42.29z"/>
	<path class="st0" d="M90.37,104.3c-0.08-0.09-0.15-0.19-0.22-0.29C90.22,104.12,90.29,104.21,90.37,104.3z"/>
	<path class="st0" d="M102.08,23.2c0.09,0.06,0.18,0.13,0.27,0.2C102.26,23.32,102.18,23.26,102.08,23.2z"/>
	<path d="M100.38,42.22L100.38,42.22l0.05,0.04C100.41,42.25,100.38,42.22,100.38,42.22z"/>
	<polygon points="100.38,42.22 100.38,42.22 100.38,42.22 	"/>
	<path d="M85.1,42.23L85.1,42.23c-0.43,0.1-0.85,0.21-1.28,0.31l0,0C84.25,42.44,84.68,42.34,85.1,42.23z"/>
	<polygon points="104.71,24.65 104.71,24.65 104.65,24.71 	"/>
	<path d="M81.21,44.91c0.02,0.01,0.03,0.03,0.03,0.03c0.01-0.02,0.03-0.05,0.04-0.07h0c-0.01,0.02-0.03,0.05-0.04,0.07L81.21,44.91z
		"/>
	<path d="M81.66,44.25c-0.01,0.01-0.02,0.03-0.03,0.04l0,0C81.64,44.28,81.65,44.27,81.66,44.25z"/>
	<path d="M52.61,180.3c4.54,0.22,9.09,0.31,13.63,0.49c7.92,0.31,15.82-0.1,23.72-0.54c5.08-0.29,10.18-0.3,15.26-0.65
		c8.27-0.57,16.54-0.57,24.81-0.32c9.56,0.29,19.1,0.19,28.59-1.17c2.6-0.37,5.19-0.87,7.61-2.03c1.34-0.64,2.16-1.6,2.56-2.99
		c0.43-1.52,0.6-3.05-0.09-4.52c-0.69-1.47-1.31-3.02-2.26-4.33c-3.7-5.08-8.3-9.16-14.06-11.76c-6.37-2.88-12.81-5.62-19.2-8.46
		c-1.57-0.7-3.11-1.49-4.61-2.33c-1.72-0.96-3.5-1.47-5.48-1.2c-0.53,0.07-1.1,0.16-1.59,0.03c-4.15-1.09-5.03-2.12-5.81-6.48
		c-0.73-4.06-0.53-8.15-0.4-12.24c0.06-1.8,0.2-3.6,0.3-5.41c2.18-1,3.71-2.5,5.05-4.26c2.14-2.82,3.47-5.94,3.88-9.47
		c0.19-1.6,0.25-3.24,0.88-4.82c4.85-0.49,8.55-2.62,10.57-7.12c2.01-4.49,1.87-8.81-1.31-12.65c0.76-3.46,1.66-6.71,1.04-10.13
		c-0.24-1.34-0.34-2.71-0.63-4.04c-0.35-1.57-0.31-3.1-0.03-4.76c0.71,0.65,1.28,1.17,2,1.84c0.28-0.46,0.6-0.73,0.6-1.01
		c0-0.43-0.16-0.89-0.34-1.3c-1.77-4.09-3.44-8.22-5.38-12.22c-1.22-2.52-2.73-4.94-4.34-7.24c-2.2-3.14-4.9-5.82-8.56-7.4
		c0.21-0.49,0.37-0.81,0.48-1.14c0.13-0.4,0.21-0.82,0.3-1.16c-1.27-1.07-1.93,0.81-2.94,0.43c-0.54-1.19,1.02-2.18,0.22-3.39
		c-0.58,0.27-1.09,0.5-1.71,0.78c-0.13-0.93-0.15-1.68-0.37-2.35c-0.11-0.34-0.58-0.67-0.96-0.77c-0.24-0.07-0.73,0.21-0.88,0.46
		c-0.4,0.69-0.68,1.45-1.21,2.61c-0.52-0.7-0.85-1.24-1.27-1.71c-2.03-2.25-4.38-4.11-6.99-5.62c-1.15-0.67-2.41-1.22-3.73-0.53
		c-0.29,1.07,0.47,1.41,0.98,1.89c1.04,0.96,2.45,1.5,3.17,2.82c0.03,0,0.05-0.01,0.08-0.01l0,0l0,0c-0.01,0.03-0.01,0.06-0.01,0.09
		c0.14,0.15,0.28,0.29,0.42,0.44c0.04,0,0.08,0,0.13,0l0,0c0,0,0,0,0,0c0.11,0.25,0.21,0.5,0.32,0.75c0.05,0.01,0.1,0.02,0.15,0.03
		c-0.04,0.01-0.09,0.02-0.13,0.02l-0.06-0.06c-0.11-0.23-0.23-0.45-0.34-0.68c-0.02-0.02-0.04-0.04-0.06-0.06
		c-0.13-0.01-0.24-0.03-0.32-0.09c-0.05-0.04-0.09-0.09-0.1-0.16c-0.01-0.05-0.01-0.12,0-0.19c-0.01-0.01-0.03-0.03-0.04-0.04
		c-0.01-0.01-0.02-0.03-0.02-0.04c-0.75,0.12-1.24-0.34-1.75-0.73c-0.09-0.07-0.18-0.13-0.27-0.2c-0.09-0.06-0.19-0.12-0.28-0.16
		c-2.04-0.98-4.04-2.04-6.09-3c-0.91-0.43-1.52,0.03-1.93,1.09c2.36,0.26,4.34,1.15,6.34,2.66c-3.42-0.49-6.54-1.07-9.68-1.34
		c-3.22-0.28-6.48-0.61-9.7,0.17c0.16,1.41,0.15,1.51,0.73,1.66c1.4,0.38,2.81,0.68,4.22,1.01c0.41,0.09,0.94,0.02,0.91,0.8
		c-5.13,0.79-9.95,2.64-14.69,4.69c-1.81,0.79-3.51,1.78-5.04,3.57c0.63-0.03,1.17-0.28,1.67-0.5c0.14-0.06,0.29-0.12,0.43-0.17
		c0.35-0.13,0.7-0.21,1.06-0.14c0.12,0.02,0.24,0.06,0.36,0.12c0.02-0.01,0.04-0.02,0.06-0.03c-0.01-0.05-0.01-0.11-0.02-0.18
		c-0.01-0.07-0.01-0.16-0.03-0.27c0.03,0.25,0.05,0.38,0.06,0.51l0,0l0,0c-0.03-0.01-0.05-0.02-0.08-0.03
		c-0.31,0.14-0.66,0.23-0.91,0.44c-3.63,3.12-7.36,6.15-10.84,9.43c-2.91,2.75-4.81,6.32-6.97,9.66c-0.59,0.91-0.99,1.91-0.06,3.11
		c0.58-0.35,1.13-0.61,1.6-0.98c0.63-0.5,1.19-1.07,1.79-1.61l0.02-0.01c0.02-0.01,0.04-0.02,0.04-0.02
		c0.03-0.02,0.07-0.04,0.1-0.06c-0.03,0.02-0.07,0.04-0.1,0.06c-0.59,1.2-1.12,2.41-1.61,3.64c-0.82,2.06-1.51,4.16-2.1,6.3
		c-0.18,0.66-0.53,1.36,0.24,2.13c1.73-1.19,1.54-3.64,3.13-4.83c0.29,0.33,0.53,0.78,0.89,0.94c0.42,0.18,0.96,0.11,1.64,0.15
		c-1.41,5.78,0.39,11.11,1.6,16.53c-3.28,3.91-3.29,8.16-1.35,12.55c2.04,4.6,5.82,6.76,10.78,7.14c0.14,0.64,0.27,1.15,0.36,1.67
		c0.31,1.79,0.48,3.62,0.94,5.36c1.33,5.03,3.86,9.17,8.77,11.52c0.96,0.46,1.83,1.13,2.7,1.68c0.05,0.6,0.11,1.05,0.11,1.5
		c0.01,4.27,0.04,8.55-0.02,12.82c-0.02,1.44-0.25,2.89-0.5,4.32c-0.09,0.49-0.42,1.07-0.82,1.34c-1.74,1.19-3.22,3.01-5.7,2.65
		c-0.25-0.04-0.53,0.11-0.79,0.2c-3.26,1.13-6.56,2.15-9.76,3.44c-3.62,1.46-7.2,3.05-10.69,4.78c-3.9,1.93-7.74,4.02-11.53,6.18
		c-2.38,1.35-4.55,3.06-6,5.45c-1.08,1.78-2.14,3.61-2.93,5.53c-0.71,1.75-1.21,3.63-1.49,5.49c-0.38,2.59,0.06,3.21,2.53,4.04
		c1.72,0.58,3.5,0.96,5.26,1.39c1.67,0.41,3.41,0.65,5.03,1.2C46.65,179.77,49.62,180.16,52.61,180.3z M128.88,144.26
		c2.15,0.99,4.31,1.94,6.46,2.91c5.23,2.33,10.46,4.66,15.68,7c2.23,1,4.35,2.17,6.42,3.93c-1.76,0.79-3.14,0.29-4.5-0.39
		c-2.77-1.38-5.52-2.79-8.29-4.15c-5.62-2.77-11.25-5.53-16.88-8.29c-0.15-0.07-0.26-0.23-0.53-0.48
		C127.68,143.87,128.22,143.96,128.88,144.26z M127.05,83.37c0.22-1.88,0.45-3.85,0.68-5.9c1.79-0.71,3.27-0.02,4.66,0.81
		c1.46,0.86,2.51,2.18,2.8,3.86c0.94,5.36-1.3,10.03-5.5,12.32c-1.19,0.65-2.44,1.13-4.1,1.01c0.17-1.59,0.3-3.1,0.49-4.6
		c0.19-1.53,0.43-3.05,0.69-4.86c0.47,0.47,0.89,0.76,1.13,1.16c0.48,0.77,0.85,1.6,1.28,2.4c0.34,0.63,0.84,0.87,1.71,0.63
		C130.8,87.26,128.77,85.49,127.05,83.37z M106.89,24.01c0.15,0.23,0.3,0.45,0.45,0.68c0.2,0.17,0.41,0.34,0.61,0.5
		c0.16,0.21,0.32,0.42,0.48,0.63c0.19,0.18,0.38,0.36,0.57,0.54c0.19,0.17,0.38,0.35,0.57,0.52c0.22,0.14,0.44,0.28,0.65,0.42
		c0,0.05,0,0.1,0.01,0.14c0.16,0.14,0.32,0.27,0.47,0.41c0.05,0,0.11,0,0.16-0.01c0.01,0.15,0.03,0.3,0.04,0.41
		c-0.03-0.09-0.08-0.21-0.12-0.33c-0.03-0.02-0.05-0.04-0.08-0.07c-0.27,0-0.43-0.13-0.47-0.41c-0.03-0.02-0.05-0.05-0.08-0.07v0
		l0,0c-0.22-0.14-0.44-0.28-0.66-0.43c-0.19-0.17-0.38-0.35-0.58-0.52c-0.19-0.18-0.38-0.36-0.57-0.54
		c-0.16-0.21-0.32-0.42-0.48-0.62c-0.2-0.17-0.4-0.35-0.61-0.52c-0.14-0.22-0.27-0.45-0.41-0.67l-0.13-0.11L106.89,24.01z
		 M64.88,95.34c-3.66-1.49-5.76-4.29-6.57-8.08c-0.22-1.05-0.24-2.17-0.18-3.24c0.23-4.13,2.97-6.47,7.55-6.21
		c0.25,2.08,0.49,4.04,0.68,5.66c-1.26,1.93-2.36,3.58-3.4,5.25c-0.23,0.37-0.3,0.85-0.35,1.29c-0.03,0.23,0.16,0.49,0.28,0.83
		c2.28-0.52,1.88-3.19,3.67-4.29c0.7,1.39,0.5,2.96,0.83,4.38c0.34,1.49,0.41,3.04,0.62,4.64C66.87,96.13,65.86,95.74,64.88,95.34z
		 M76.49,113.31c-2.69-2.41-4.51-5.46-5.11-9.1c-0.71-4.3-1.4-8.6-2.04-12.91c-0.69-4.58-1.34-9.16-1.95-13.75
		c-0.19-1.44-0.18-2.9-0.29-4.34c-0.13-1.72-0.23-3.45-0.44-5.16c-0.54-4.47,0.53-8.66,2.2-12.73c0.3-0.73,0.84-1.44,1.45-1.95
		c3.36-2.78,6.77-5.5,10.18-8.22c0.16-0.13,0.41-0.15,0.64-0.19c0.02-0.03,0.04-0.05,0.06-0.08c0.04,0,0.07-0.01,0.1-0.02
		c0.12-0.19,0.23-0.38,0.35-0.57c-0.02-0.04-0.04-0.08-0.06-0.13c0.48-0.07,0.95-0.14,1.43-0.21c0.01-0.01,0.02-0.03,0.03-0.04
		c-0.02-0.07-0.04-0.13-0.04-0.19c0-0.08,0.01-0.16,0.05-0.21c0.06-0.09,0.18-0.15,0.35-0.18c0.02-0.03,0.04-0.06,0.05-0.09
		c0.13-0.23,0.27-0.47,0.4-0.7h0c0.43-0.1,0.85-0.21,1.28-0.31c-0.02-0.04-0.04-0.09-0.05-0.13c0.05,0.04,0.09,0.07,0.14,0.11l0,0
		l0,0c0,0-0.03,0.03-0.05,0.05l-0.02,0.02c-0.41,0.12-0.81,0.24-1.22,0.36l0,0l0,0c-0.14,0.23-0.27,0.46-0.41,0.68
		c-0.05,0-0.09,0.01-0.13,0.02c-0.12,0.19-0.24,0.39-0.36,0.58c0.01,0.04,0.02,0.07,0.04,0.11l0,0c0,0,0,0,0,0
		c-0.47,0.08-0.93,0.15-1.4,0.23c-0.01,0.01-0.02,0.03-0.03,0.04c0.15,0.33,0,0.5-0.35,0.57c-0.01,0.02-0.03,0.05-0.04,0.07
		c-0.04,0.01-0.08,0.02-0.12,0.02c-0.55,0.66-1.12,1.29-1.62,1.99c-0.29,0.41-0.43,0.93-0.76,1.67c0.69-0.05,1.18,0.07,1.48-0.13
		c1.21-0.8,2.37-1.68,3.54-2.54c0.94-0.7,1.86-1.42,2.95-2.25c0,0.79,0,1.36,0,2.06c2.09,0.15,3.37-1.32,4.97-2.15
		c0.46,0.32,0.89,0.8,1.42,0.92c0.48,0.12,1.09-0.06,1.58-0.26c1.35-0.54,2.65-1.21,4-1.73c0.52-0.2,1.11-0.18,1.68-0.25
		c0.01-0.02,0.02-0.05,0.03-0.07c0.02-0.12,0.05-0.25,0.07-0.37c0,0.14,0,0.29,0,0.43l0,0l0,0c-0.03,0-0.07,0.01-0.1,0.01
		c-0.05,0.12-0.13,0.23-0.22,0.34c-0.07,0.09-0.15,0.17-0.24,0.26c-0.08,0.08-0.17,0.17-0.25,0.25c-0.36,0.38-0.61,0.78-0.16,1.35
		c0.73,0.91,1.67-0.04,2.51-0.18c0.35-0.06,0.68-0.2,1.17-0.35c-0.26,0.78-0.5,1.48-0.73,2.17c2.04,0.78,2.04,0.78,7.34-1.73
		c0.05,0.81-0.01,1.57,0.15,2.28c0.21,0.91,1.2,1.23,1.93,0.65c0.49-0.39,0.89-0.9,1.3-1.38c0.41-0.48,0.79-1,1.2-1.47
		c0.11-0.12,0.32-0.14,0.59-0.25c0.17,0.61,0.41,1.21,0.48,1.82c0.37,2.87,1.6,5.39,3.17,7.75c1.96,2.94,3.57,6.14,6.28,8.54
		c0.19,0.17,0.38,0.43,0.43,0.67c0.46,2.4,1.42,4.7,1.18,7.22c-0.37,3.89-0.55,7.79-1.04,11.66c-0.74,5.85-1.68,11.68-2.53,17.52
		c-0.25,1.71-0.38,3.44-0.78,5.11c-0.98,4.02-3.07,7.28-6.52,9.72c-4.04,2.86-8.55,4.17-13.36,5c-5.33,0.91-10.52,0.18-15.68-0.81
		C82.81,117.7,79.36,115.88,76.49,113.31z M79.75,140.87c0.86-0.65,1.79-1.22,2.77-1.88c1.26-2.53,0.77-5.43,1.17-8.27
		c1.26,0.09,2.42,0.21,3.59,0.24c4.47,0.12,8.6-1.21,12.53-3.21c2.26-1.15,4.48-2.42,6.62-3.78c1.53-0.97,2.92-2.15,4.34-3.27
		c0.62-0.5,1.17-1.09,2.04-1.92c0.07,0.75,0.15,1.14,0.15,1.52c-0.04,3.36-0.23,6.73-0.11,10.08c0.08,2.25,0.59,4.48,0.95,6.72
		c0.21,1.33,0.92,2.32,2.11,3.01c1,0.57,1.94,1.24,3.18,2.04c-4.06,2.28-8.06,3.37-12.27,3.75c-6.8,0.62-13.61,0.6-20.4-0.06
		c-3.16-0.31-6.18-1.37-9.11-2.92C77.74,141.68,78.94,141.49,79.75,140.87z M70.68,146.42c0.52,0.08,1.01,0.38,1.5,0.63
		c3.55,1.85,7.31,3.18,11.09,4.47c4.79,1.63,9.76,2.26,14.77,1.77c7.7-0.75,15.22-2.44,22.51-5.08c1.76-0.64,3.46-1.47,5.25-2.24
		c0.22,0.63-0.26,0.82-0.56,1.02c-0.6,0.41-1.23,0.78-1.87,1.1c-4.88,2.45-9.95,4.3-15.31,5.49c-7.92,1.75-15.7,1.11-23.45-0.77
		c-3.52-0.85-6.98-1.95-10.46-3c-1.83-0.55-3.5-1.44-5.53-3.05C69.71,146.56,70.21,146.35,70.68,146.42z M63.41,146.52
		c1.77-0.72,3.5-1.82,5.93-1.54c-0.54,0.41-0.78,0.67-1.08,0.8c-1.66,0.74-3.29,1.55-5,2.16c-5.61,1.99-10.66,5.02-15.65,8.19
		c-1.91,1.22-3.9,2.32-5.87,3.45c-0.69,0.39-1.41,0.81-2.31,0.58C41.75,157.36,54.19,150.24,63.41,146.52z M37.19,175.42
		c-1.49-0.34-2.96-0.79-4.61-1.24c0.18-2.33,1.06-4.33,1.76-6.32c0.72-2.03,1.95-3.88,3.01-5.93c2.69,0.51,4.72-0.79,6.83-2.09
		c4.48-2.76,9-5.5,13.63-8c3.1-1.67,6.42-2.92,9.77-4.42c3.12,2.89,7,4.18,10.94,5.28c3.41,0.95,6.81,1.98,10.29,2.62
		c6.85,1.26,13.68,1.27,20.56-0.38c5-1.2,9.72-2.95,14.28-5.22c1.53-0.76,2.93-1.77,4.52-2.75c0.26,0.12,0.67,0.29,1.08,0.49
		c6.16,3.11,12.32,6.22,18.48,9.34c1.3,0.66,2.62,1.26,3.87,2c2.06,1.22,4.21,1.62,6.54,1.04c0.35-0.09,0.71-0.1,1.15-0.17
		c2.58,2.04,4.77,4.44,6.44,7.3c0.41,0.7,0.73,1.47,0.98,2.24c0.89,2.77,0.01,4.58-2.76,5.5c-3.21,1.06-6.56,1.43-9.91,1.77
		c-8.34,0.85-16.69,0.88-25.07,0.61c-8.36-0.28-16.72-0.12-25.07,0.74c-2.71,0.28-5.45,0.13-8.18,0.26
		c-5.54,0.26-11.07,0.64-16.62,0.84c-3.36,0.13-6.73,0.06-10.09,0.02c-3.55-0.05-7.09-0.18-10.64-0.27
		c-5.18-0.14-10.34-0.32-15.34-2.05C41.17,176.01,39.13,175.86,37.19,175.42z"/>
	<path d="M83.05,44.02C83.05,44.02,83.05,44.02,83.05,44.02l-0.01-0.02C83.05,44.02,83.05,44.02,83.05,44.02z"/>
	<path d="M70.49,33.69L70.49,33.69C70.49,33.69,70.49,33.68,70.49,33.69C70.49,33.68,70.49,33.69,70.49,33.69z"/>
	<path d="M100.45,42.28L100.45,42.28C100.45,42.28,100.45,42.28,100.45,42.28L100.45,42.28z"/>
	<polygon points="104.18,24.11 104.18,24.11 104.13,24.16 	"/>
	<path d="M83.43,43.25l0.04,0.03C83.45,43.26,83.43,43.25,83.43,43.25z"/>
	<path d="M83.89,42.62c-0.01-0.01-0.02-0.02-0.03-0.03C83.87,42.6,83.89,42.61,83.89,42.62z"/>
	<path d="M83.91,42.63L83.91,42.63c0,0-0.01-0.01-0.01-0.01C83.9,42.63,83.91,42.63,83.91,42.63z"/>
	<path d="M83.5,43.32c0.14-0.23,0.27-0.46,0.41-0.68C83.77,42.86,83.64,43.09,83.5,43.32L83.5,43.32z"/>
	<path d="M109.57,26.88l-0.04,0.03C109.56,26.9,109.57,26.88,109.57,26.88z"/>
	<path d="M110.16,27.38L110.16,27.38l0.05-0.05C110.19,27.35,110.16,27.38,110.16,27.38z"/>
	<path d="M109.5,26.95c0.22,0.14,0.44,0.28,0.66,0.43C109.94,27.23,109.72,27.09,109.5,26.95L109.5,26.95z"/>
	<path d="M68.98,33.67c-0.14,0.05-0.28,0.11-0.43,0.17C68.7,33.79,68.84,33.73,68.98,33.67z"/>
	<path d="M70.49,33.69c-0.03-0.01-0.05-0.02-0.08-0.03l0,0C70.43,33.66,70.46,33.67,70.49,33.69L70.49,33.69z"/>
	<path d="M104.13,24.16l0.06-0.05c-0.03,0.01-0.05,0.01-0.08,0.01C104.11,24.14,104.12,24.15,104.13,24.16z"/>
	<path d="M55.02,53.7c0,0,0.01-0.01,0.02-0.01L55.02,53.7z"/>
	<path d="M55.07,53.66c-0.59,1.2-1.12,2.41-1.61,3.64C53.95,56.07,54.49,54.86,55.07,53.66L55.07,53.66z"/>
	<path d="M70.49,33.68c0-0.01-0.01-0.03-0.01-0.04c0-0.01,0-0.01,0-0.01l0,0c-0.02,0.01-0.04,0.02-0.06,0.03
		C70.43,33.66,70.46,33.67,70.49,33.68C70.49,33.69,70.49,33.68,70.49,33.68z"/>
	<path d="M104.18,24.11L104.18,24.11c-0.03,0.01-0.05,0.01-0.08,0.01c0,0,0,0,0,0C104.13,24.12,104.16,24.12,104.18,24.11z"/>
	<path d="M88.72,76.18c-0.42-1.11-1.65-0.36-2.31-0.96c0.17-0.95,0.34-1.9,0.51-2.86c1.28-0.33,2.08,0.66,3.11,0.89
		c0.49,0.11,0.9,0.04,0.83-0.85c-0.54-0.38-1.14-0.96-1.85-1.29c-3.15-1.48-6.46-1.8-9.81-0.95c-2.05,0.52-3.8,1.7-5.24,3.28
		c-0.48,0.52-0.64,1.09-0.02,1.77c1.81-0.53,2.7-2.68,4.91-2.89c0.32,1.04,0.66,2.11,1.02,3.28c-0.95,0.27-1.67,0.48-2.63,0.75
		c0.47,0.29,0.68,0.55,0.89,0.55c3.43-0.08,6.87-0.18,10.3-0.3C88.51,76.6,88.6,76.35,88.72,76.18z"/>
	<path d="M107.79,74.06c-0.64,0.45-1.27,0.88-1.89,1.32c1.72,0.12,3.3-0.17,4.88-0.29c1.98-0.14,3.98-0.12,5.97-0.18
		c0.08,0,0.2-0.05,0.24-0.11c0.04-0.06,0.02-0.17,0.04-0.5c-0.68-0.3-1.45-0.65-2.46-1.09c0.64-0.75,0.35-1.9,1.46-2.56
		c1.06,0.6,2.14,1.26,3.27,1.83c0.33,0.17,0.79,0.08,1.24,0.11c-0.02-1.38-0.88-1.96-1.7-2.49c-2.13-1.38-4.48-1.95-7.01-1.62
		c-2.66,0.35-5.09,1.3-7.23,2.92c-0.21,0.16-0.3,0.49-0.63,1.07c1.37-0.51,2.32-0.86,3.36-1.25
		C107.5,72.3,107.65,73.18,107.79,74.06z"/>
	<path d="M86.26,65.09c0.97,0.08,1.95-0.03,2.77-0.05c0.53-0.87,0.45-1.47-0.02-2c-0.99-1.11-2.15-1.99-3.66-2.19
		c-4.73-0.64-8.8,0.74-12.1,4.18c-0.66,0.68-1.44,1.43-1.33,2.7c0.37,0.1,0.55,0.21,0.7,0.18c0.35-0.07,0.71-0.17,1.02-0.34
		C77.58,65.39,81.81,64.73,86.26,65.09z"/>
	<path d="M105.97,64.98c1.91-0.56,3.52-1.2,5.2-1.48c1.6-0.27,3.31-0.42,4.88-0.14c1.65,0.29,3.19,1.14,5.12,1.87
		c-0.07-0.67-0.03-1.04-0.15-1.35c-0.83-2.19-2.42-3.62-4.62-4.29c-3.17-0.97-6.3-0.67-9.28,0.74c-0.69,0.33-1.31,1-1.75,1.65
		c-0.32,0.47-0.48,1.23-0.35,1.77C105.14,64.27,105.72,64.68,105.97,64.98z"/>
	<path d="M97.55,94.03c1.25,0.2,2.06-0.48,2.99-1.58c-0.58,0-0.84-0.02-1.09,0c-3.48,0.34-5.42-1.56-4.94-4.97
		c0.16-1.16,0.48-2.32,0.9-3.42c1.56-4.08,1.96-8.3,1.56-12.61c-0.13-1.43-0.57-2.84-0.94-4.23c-0.08-0.3-0.44-0.53-0.67-0.8
		c-0.19,0.52-0.11,0.85-0.02,1.18c1.1,3.88,1.06,7.71-0.4,11.5c-0.52,1.36-0.98,2.74-1.46,4.11c-0.57,1.64-1.01,3.29-0.98,5.06
		c0.03,1.64,0.61,2.97,1.68,4.19C95.1,93.53,96.27,93.83,97.55,94.03z"/>
	<path d="M89.9,102.21c-0.03,0.01-0.07,0.03-0.1,0.06c-0.09,0.07-0.17,0.17-0.26,0.23c0.18,0.67,0.35,1.13,0.6,1.52
		c0.07,0.1,0.14,0.2,0.22,0.29c0.06,0.07,0.11,0.13,0.18,0.19c0.05,0.05,0.11,0.11,0.17,0.16c0.29,0.27,0.67,0.55,1.17,0.9
		c1.7,1.19,3.59,1.84,5.65,1.57c2.6-0.34,4.85-1.54,6.65-3.44c0.69-0.73,1.77-1.38,1.4-2.67c-0.22-0.13-0.4-0.32-0.53-0.29
		c-4.99,1-10.02,1.51-15.11,1.46C89.94,102.2,89.92,102.2,89.9,102.21z M103.6,102.34c-1.76,2.21-4.03,3.07-6.44,3.37
		c-2.01,0.25-3.85-0.52-5.53-2.25C95.74,103.08,99.54,102.72,103.6,102.34z"/>
	<path d="M89.8,102.26c-0.09,0.07-0.17,0.17-0.26,0.23c0.18,0.67,0.35,1.13,0.6,1.52c-0.26-0.39-0.42-0.85-0.6-1.52
		C89.63,102.43,89.72,102.33,89.8,102.26z"/>
	<path d="M89.8,102.26c0.03-0.03,0.07-0.05,0.1-0.06C89.87,102.22,89.84,102.24,89.8,102.26z"/>
	<path d="M90.54,104.5c-0.06-0.06-0.12-0.13-0.18-0.19C90.42,104.37,90.48,104.43,90.54,104.5z"/>
	<path d="M94.01,108.86c-0.4,0.02-0.78,0.22-1.45,0.42c0.94,1.07,1.29,2.1,1.5,3.23c0.26,1.34,0.93,1.74,2.37,1.6
		c0.96-0.09,1.91-0.35,2.89-0.53c0.43-1.51,0.84-2.94,1.3-4.58c-0.23-0.1-0.6-0.39-0.97-0.38
		C97.77,108.65,95.89,108.75,94.01,108.86z"/>
	<path d="M72.81,159.21c1.95,1.33,3.98,2.54,5.96,3.84c1.84,1.2,3.83,2.05,5.93,2.7c5.23,1.6,10.54,2.81,15.96,3.53
		c5.15,0.68,10.32,0.96,15.52,0.7c1.85-0.09,3.61-0.5,5.25-1.32c0.59-0.3,1.36-0.63,1.18-1.58c-2.62,0.24-5.21,0.62-7.82,0.69
		c-10.09,0.28-19.95-1.25-29.57-4.22c-1.98-0.61-3.88-1.53-5.75-2.44c-2.61-1.27-5.15-2.68-7.95-4.15
		C71.34,158.4,72.19,158.79,72.81,159.21z"/>
	<path d="M104.57,174.76c-3.5-0.44-6.99-1.01-10.48-1.59c-4.59-0.77-9.01-2.02-12.89-4.74c-0.09-0.06-0.31,0.07-0.57,0.14
		c-0.09,1.17,0.79,1.74,1.55,2.29c1.85,1.34,3.88,2.41,6.11,2.88c3.9,0.82,7.81,1.63,11.76,2.12c3.02,0.37,6.12,0.37,9.13-1.06
		C107.64,174.79,106.08,174.95,104.57,174.76z"/>
</g>
</svg>
