<?xml version="1.0" encoding="utf-8"?>
<!-- Generator: Adobe Illustrator 28.0.0, SVG Export Plug-In . SVG Version: 6.00 Build 0)  -->
<svg version="1.1" id="Layer_1" xmlns="http://www.w3.org/2000/svg" xmlns:xlink="http://www.w3.org/1999/xlink" x="0px" y="0px"
	 viewBox="0 0 200 200" style="enable-background:new 0 0 200 200;" xml:space="preserve">
<style type="text/css">
	.st0{fill:none;}
</style>
<g>
	<path class="st0" d="M82.98,50.84c0.03,0.03,0.07,0.06,0.1,0.09c0.22,0.19,0.44,0.38,0.65,0.57c-0.22-0.19-0.44-0.38-0.65-0.57
		C83.05,50.9,83.02,50.87,82.98,50.84z"/>
	<path class="st0" d="M82.8,50.68c0.04-0.04,0.07-0.07,0.11-0.11C82.87,50.61,82.84,50.64,82.8,50.68L82.8,50.68z"/>
	<path class="st0" d="M83.19,50.83L83.19,50.83c-0.03,0.03-0.07,0.06-0.1,0.1C83.12,50.89,83.15,50.86,83.19,50.83z"/>
	<path d="M167.77,167.64c-0.71-1.36-1.27-2.83-2.16-4.06c-4.29-5.93-9.13-11.21-15.71-14.82c-3.79-2.08-7.77-3.71-11.61-5.64
		c-2.23-1.12-4.44-2.31-6.63-3.52c-2.67-1.47-4.51-3.76-6.08-6.3c-0.3-0.49-0.59-0.98-0.88-1.48c-1.72-3.02-4.21-4.91-7.74-5.29
		c-1.12-0.12-2.24-0.26-3.39-0.4c-0.21-3.26-0.42-6.46-0.61-9.67c-0.08-1.39-0.31-2.85,1.27-3.68c2.95-3.49,4.78-7.57,6.18-11.85
		c0.6-1.82,1-3.7,1.49-5.59c3.12,0.15,5.47-1.31,7.36-3.54c2.41-2.85,3.69-6.06,3.41-9.95c-0.18-2.63-0.97-4.9-2.5-6.93
		c-0.44-0.58-1.21-1.09-1.92-1.25c-0.96-0.21-2.01-0.05-3.08-0.05c0-0.38-0.01-0.86,0-1.34c0.08-6.65,0.2-13.31,0.22-19.96
		c0-1.39-0.27-2.8-0.61-4.16c-0.19-0.78-0.21-1.43,0.14-2.14c0.54-1.1,0.91-2.23,1.09-3.49c0.41-2.94-0.97-5.37-1.95-7.92
		c-0.38-0.97-0.88-1.92-1.47-2.78c-0.57-0.83-1.17-1.85-2.01-2.22c-1.64-0.72-2.73-1.94-3.87-3.19c-0.15-0.16-0.34-0.28-0.53-0.4
		c-2.38-1.5-4.68-3.13-7.16-4.44c-2.61-1.37-5.43-2.45-8.41-2.39c-3.29,0.07-6.61,0.31-9.84,0.89c-2.87,0.52-5.69,1.48-8.29,2.9
		c-2.35,1.29-4.63,2.69-6.96,4.02c-3.01,1.72-5.37,4.1-7.24,7c-0.47,0.74-1.01,1.44-1.53,2.15c-1.11,1.52-2.32,2.98-3.33,4.57
		c-0.9,1.41-1.55,2.96-1.54,4.66c-1.72,1.14-1.92,2.8-1.7,4.58c0.22,1.8,1.14,3.29,2.33,4.65c-0.87,1.29-1.21,2.69-1.16,4.17
		c0.07,1.97,0.22,3.95,0.29,5.92c0.11,2.69,0.55,5.33,1.19,7.94c0.33,1.34,0.46,2.72,0.69,4.14c-2.3-0.12-3.71,0.82-4.63,2.78
		c-0.99,2.1-1.25,4.22-1.24,6.52c0.02,4.1,2.01,7.14,4.83,9.75c1.94,1.8,4.3,2.74,7,2.35c0.11,0.19,0.19,0.3,0.23,0.42
		c0.12,0.33,0.24,0.66,0.34,1c1.34,4.66,3.54,8.9,6.4,12.79c1.03,1.41,2.18,2.78,3.81,3.6c1.09,0.55,2.18,1.12,3.29,1.7
		c0.12,3.06,0.25,6.13,0.37,9.32c-0.62,0.12-1.09,0.22-1.57,0.31c-1.7,0.32-3.34,0.76-4.71,1.9c-1.31,1.09-2.31,2.42-3.1,3.91
		c-2.02,3.77-4.93,6.62-8.76,8.52c-1.97,0.97-3.95,1.91-5.93,2.86c-3.63,1.76-7.47,3.11-10.81,5.46c-0.35,0.25-0.8,0.37-1.18,0.59
		c-0.65,0.37-1.32,0.72-1.91,1.17c-3.79,2.85-7.14,6.16-10.03,9.91c-1.8,2.34-3.5,4.73-4.45,7.59c-0.69,2.08-0.59,2.49,1.39,3.51
		c0.35,0.18,0.72,0.34,1.09,0.47c1.95,0.68,3.87,1.48,5.86,1.97c2.55,0.63,5.17,0.95,7.75,1.5c4.92,1.05,9.91,1.46,14.89,2
		c3.63,0.39,7.26,0.83,10.89,1.19c3.55,0.34,7.1,0.77,10.65,0.86c3.87,0.1,7.75-0.14,11.62-0.23c0.13,0,0.26-0.01,0.4-0.02
		c3.42-0.27,6.84-0.53,10.26-0.8c1.45-0.11,2.9-0.14,4.34-0.33c2.74-0.35,5.46-0.99,8.21-1.15c5.67-0.33,11.37-0.37,17.05-0.62
		c5.41-0.23,10.82-0.56,16.22-0.87c1.18-0.07,2.36-0.2,3.53-0.4c1.99-0.33,3.97-0.72,5.95-1.12c1.59-0.32,3.19-0.63,4.74-1.09
		c2.47-0.72,3.22-3.49,1.85-5.55C168.01,168.3,167.93,167.95,167.77,167.64z M123.37,83.14c0.28,0.32,0.48,0.51,0.63,0.73
		c0.43,0.61,0.82,1.25,1.26,1.86c0.29,0.41,0.51,1.02,1.19,0.76c0.48-0.18,0.56-0.93,0.11-1.64c-0.63-1-1.25-2.05-2.06-2.9
		c-0.98-1.02-1.23-2.13-1.17-3.47c0.04-0.85,0.13-1.56,0.89-2.05c1.02-0.65,1.95-1.64,3.32-1.25c0.5,0.14,1.04,0.48,1.36,0.89
		c2.65,3.4,2.38,9.54,0.11,12.55c-1.2,1.6-2.32,3.21-4.21,4.07c-1.06,0.48-1.33,0.56-2.61,0.41
		C122.57,89.84,122.96,86.58,123.37,83.14z M114.83,137.96c2.01-2.43,2.52-5.26,2.08-8.31c-0.08-0.56-0.19-1.12-0.31-1.83
		c3,0.41,4.9,2.09,6.28,4.5c0.08,0.15,0.18,0.34,0.16,0.49c-0.16,0.91-0.19,1.89-0.57,2.69c-1.57,3.29-2.81,6.74-4.92,9.76
		c-2.38,3.43-5.21,6.43-8.48,9.01c-1.51,1.2-3.15,2.24-4.77,3.29c-0.61,0.4-1.33,0.65-2.23,1.07c0.24-1.76,0.45-3.3,0.67-4.84
		c0.02-0.12,0.11-0.24,0.18-0.34c2.41-3.31,4.78-6.64,7.26-9.9C111.64,141.62,113.28,139.83,114.83,137.96z M121.18,34.5
		c0.13,0,0.25,0.06,0.38,0.21c-0.31,0.03-0.63,0.08-0.94,0.09c-1.48,0.06-2.36,1.08-3.19,2.1c-2.38,2.94-4.71,5.91-7.05,8.88
		c-0.24,0.31-0.4,0.69-0.6,1.03c-1.07-0.66-1.11-1.15-0.75-1.74c0.56-0.89,1.06-1.82,1.7-2.65c1.2-1.58,2.41-3.15,3.72-4.63
		C116.22,35.79,118.37,34.45,121.18,34.5z M118.51,40.51c-1.4,1.39-2.72,2.86-4.09,4.27c-0.25,0.26-0.6,0.43-0.98,0.69
		c-0.1-2.42,4.67-6.56,6.91-6.37C119.77,39.54,119.07,39.95,118.51,40.51z M120.22,43.04c-1.25,0.84-2.36,1.92-3.91,2.24
		C117.19,43.79,118.56,43.16,120.22,43.04z M117.69,32.35c-0.25,0.09-0.49,0.18-0.74,0.28c-2.93,1.18-5.69,2.64-7.39,5.44
		c-1.25,2.06-2.3,4.24-3.44,6.36c-0.63,1.18-1.25,2.37-1.87,3.55c-0.12-0.05-0.25-0.11-0.37-0.16c0.39-1.05,0.73-2.12,1.18-3.14
		c0.88-2,1.73-4.04,2.79-5.95c0.69-1.26,1.64-2.39,2.59-3.48C112.33,33.09,115.06,32.81,117.69,32.35z M104.68,32.16
		c1.77-1.78,3.7-3.47,6.31-3.86c1.37-0.2,2.79-0.11,4.18-0.08c0.34,0.01,0.68,0.32,1.02,0.49c-0.03,0.13-0.05,0.26-0.08,0.39
		c-0.42,0.02-0.83,0.09-1.24,0.06c-2.96-0.2-5.31,1.2-7.31,3.11c-2.88,2.75-4.54,6.21-5.17,10.16c-0.2,1.24-0.69,2.43-1.03,3.65
		c-0.13,0.46-0.22,0.92-0.32,1.34c-1.14-1.65-1.48-3.83-0.91-6.48C100.83,37.59,102.26,34.59,104.68,32.16z M78.91,31.99
		c1.24-2.55,3.24-4.48,5.45-6.2c3-2.33,6.38-3.86,10.14-4.46c1.83-0.3,3.6,0.14,5.36,0.59c-1.47,0.07-2.96,0.03-4.42,0.22
		c-2.28,0.3-4.44,1-6.4,2.25c-2.34,1.5-4.59,3.11-6.54,5.11c-1.66,1.72-2.44,3.83-2.81,6.13c-0.56,3.45-0.35,6.87,0.82,10.15
		c0.59,1.67,1.59,3.2,2.41,4.79c0.09,0.09,0.18,0.17,0.28,0.26c0,0,0,0,0,0l0,0c0,0,0,0,0,0c0.23,0.15,0.47,0.29,0.7,0.44
		c-0.05,0.07-0.1,0.15-0.15,0.22c-0.22-0.19-0.44-0.38-0.65-0.57c-0.03-0.03-0.07-0.06-0.1-0.09c-0.06-0.05-0.12-0.11-0.18-0.16
		c0,0,0,0,0,0l0,0c0,0,0,0,0,0c-1.76-1.39-3.38-2.93-4.26-4.95c-0.2-0.47-0.37-0.96-0.48-1.48C77.14,40.1,77,35.95,78.91,31.99z
		 M85.79,36.52c-0.51,2.34-0.49,4.73,0.02,7.07c0.41,1.87,1.21,3.57,2.76,4.81c-3.36-2.34-5.01-5.5-4.63-9.63
		c0.36-3.92,1.9-7.27,4.75-10c1.66-1.6,4.34-2.71,6.54-2.67c-0.23,0.13-0.33,0.22-0.45,0.25C89.71,27.9,86.89,31.47,85.79,36.52z
		 M93.67,46.93c0,0.24-0.17,0.47-0.31,0.83c-0.98-2.42-1.04-4.79-0.82-7.15c0.34,1.54,0.71,3.08,1.02,4.63
		C93.68,45.79,93.68,46.37,93.67,46.93z M91.49,47.54c-2.97-2.48-2.99-5.94-2.06-7.92C88.92,42.47,90.56,44.79,91.49,47.54z
		 M67.81,37.63c-1.53,2.17-0.58,5.32,1.04,6.96c1.42,1.43,2.82,2.88,4.24,4.31c0.11,0.11,0.29,0.17,0.38,0.46
		c-0.53-0.12-1.13-0.13-1.59-0.39c-2.71-1.5-4.68-3.68-5.56-6.69C65.79,40.43,66.47,38.89,67.81,37.63z M64.85,43.63
		c0.03-0.06,0.14-0.08,0.51-0.27c0.02,0.47,0.08,0.78,0.05,1.08c-0.16,1.69,0.61,2.83,2.06,3.6c0.57,0.3,1.1,0.68,1.7,1.05
		c-0.45,0.64-1,0.84-1.54,0.65C64.74,48.75,63.48,46.78,64.85,43.63z M63.45,48.48c0.77,0.92,1.61,1.91,2.34,2.77
		C64.73,51.28,63.5,49.91,63.45,48.48z M66.48,95.78c-3.71-1.75-6.02-4.61-6.73-8.69c-0.45-2.59-0.24-5.08,1.12-7.41
		c0.6-1.03,1.53-1.54,2.64-1.16c0.86,0.3,1.69,0.76,2.44,1.28c0.34,0.24,0.6,0.76,0.67,1.2c0.23,1.44,0.32,2.84-0.81,4.09
		c-0.67,0.73-1.08,1.71-1.57,2.6c-0.2,0.38-0.38,0.82-0.38,1.23c-0.01,0.28,0.25,0.73,0.48,0.8c0.22,0.07,0.68-0.18,0.82-0.42
		c0.6-0.97,1.12-1.99,1.92-3.01c0.67,3.22,1.35,6.45,2.03,9.7C68.15,96.32,67.28,96.16,66.48,95.78z M76.26,108.63
		c-1.96-3.22-3.53-6.6-4.51-10.23c-0.72-2.67-1.27-5.39-1.9-8.08c-1.54-6.64-1.57-13.46-2.31-20.2c-0.25-2.23-0.53-4.48-0.56-6.72
		c-0.04-3.51,0.56-6.89,2.48-9.94c1.51-2.4,3.76-2.85,6.31-2.44c3.25,0.52,6.47,1.26,9.73,1.62c2.4,0.26,4.85,0.16,7.26,0.03
		c4.22-0.23,8.33-1.24,12.46-2.03c0.94-0.18,1.84-0.56,2.78-0.8c1.57-0.41,3.14-0.81,4.71-1.18c0.28-0.06,0.61-0.01,0.89,0.09
		c1.72,0.61,3.2,1.48,4.37,3c1.96,2.54,2.79,5.5,3.19,8.52c0.38,2.9,0.26,5.88,0.33,8.82c0.03,1.1,0,2.2,0,3.31c0,0-0.01,0-0.01,0
		c0,2.56,0.11,5.12-0.03,7.67c-0.18,3.38-0.49,6.75-0.88,10.11c-0.28,2.44-0.7,4.87-1.22,7.27c-0.83,3.85-2.44,7.4-4.31,10.86
		c-1.81,3.37-4.67,5.22-8.21,6.33c-6.17,1.94-12.49,2.47-18.9,2.04c-0.86-0.06-1.71-0.38-2.56-0.61c-0.3-0.08-0.57-0.25-0.86-0.33
		C80.61,114.72,78.26,111.91,76.26,108.63z M76.67,133.17c1.4-2.44,3.31-4.16,6.22-4.54c-0.1,1.39-0.18,2.69-0.3,3.99
		c-0.19,2.05,0.62,3.79,1.67,5.44c0.47,0.74,1.01,1.45,1.61,2.1c3.39,3.72,6.33,7.79,9.11,11.98c0.27,0.4,0.54,0.82,0.89,1.14
		c0.75,0.7,1.08,1.55,1.19,2.54c0.13,1.13,0.28,2.25,0.44,3.49c-2.05-0.63-3.66-1.76-5.28-2.88c-3.07-2.12-5.61-4.82-8.09-7.57
		c-1.86-2.07-3.29-4.46-4.47-6.98c-0.76-1.63-1.59-3.24-2.25-4.91c-0.42-1.05-0.59-2.19-0.85-3.29
		C76.53,133.52,76.59,133.31,76.67,133.17z M69.51,143.86c-4.14,1.66-7.98,3.9-11.77,6.21c-4.1,2.49-8.1,5.12-12.14,7.71
		c-1.35,0.86-1.85,0.8-2.94-0.55c0.23-0.27,0.45-0.61,0.74-0.85c2.03-1.68,3.95-3.48,6.39-4.62c2.23-1.04,4.28-2.43,6.51-3.47
		c4.84-2.28,9.92-4.09,14.32-7.43c0.25,0.75,0.48,1.4,0.73,2.15C70.68,143.32,70.11,143.62,69.51,143.86z M92.21,173.92
		c-1.13,0.23-2.29-1.03-2.28-2.51c0.01-1.08,0.97-1.95,2.2-1.98c1.44-0.03,2.56,1.03,2.56,2.42
		C94.7,172.9,93.48,173.91,92.21,173.92z M98.19,163.38c-0.03,0.43-0.01,0.86-0.01,1.37c-3.86-0.27-7.29-1.37-10.01-3.99
		c-3.11-2.99-6.05-6.15-9.03-9.27c-0.6-0.63-1.06-1.41-1.54-2.14c-1.2-1.84-2.4-3.69-3.53-5.57c-0.63-1.05-1.16-2.17-1.66-3.28
		c-0.14-0.31-0.19-0.85-0.01-1.09c0.79-1.09,1.68-2.11,2.53-3.15c1.75,4.18,3.27,8.4,5.96,12.03c2.16,2.92,4.7,5.48,7.41,7.87
		c2.63,2.31,5.57,4.16,8.78,5.53C97.93,162.05,98.26,162.52,98.19,163.38z M99.7,159.8c-0.37-1.42-0.72-2.5-0.92-3.62
		c-0.56-3.17-2.11-5.85-4.03-8.33c-2.65-3.41-5.34-6.78-8.05-10.13c-0.55-0.68-0.73-1.32-0.56-2.18c0.13-0.64,0.04-1.31,0.04-1.97
		c0-1.31,0-2.62,0-3.82c1.74-0.32,3.46-0.48,5.07-0.96c3.98-1.2,7.59-3.19,11.08-5.44c3.12-2.01,6.14-4.13,8.45-7.11
		c0.07-0.09,0.21-0.12,0.44-0.25c-0.19,6.93,0.21,13.7,2.03,20.5c-0.91,1.07-1.9,2.25-2.9,3.41c-3.04,3.5-5.75,7.24-8.13,11.21
		c-0.72,1.21-0.97,2.71-1.36,4.1C100.46,156.63,100.13,158.08,99.7,159.8z M107.37,173.12c-1.27-0.01-2.48-1.03-2.47-2.08
		c0.01-1.39,1.13-2.44,2.57-2.41c1.22,0.03,2.19,0.91,2.19,1.99C109.66,172.08,108.53,173.35,107.37,173.12z M127.18,139.68
		c-0.55,1.19-1.13,2.38-1.81,3.5c-1.06,1.77-2.15,3.53-3.34,5.22c-1.04,1.47-2.14,2.91-3.36,4.22c-2.31,2.48-4.67,4.91-7.13,7.25
		c-2.77,2.64-6.21,3.81-9.97,4.07c-0.56-1.85,0.1-2.79,1.72-3.48c4.56-1.95,8.17-5.19,11.7-8.64c4.41-4.32,6.97-9.65,9.21-15.22
		c0.14-0.36,0.24-0.73,0.4-1.22c0.9,1.1,1.79,2.12,2.58,3.21C127.35,138.84,127.32,139.37,127.18,139.68z M153.81,156.84
		c-6-4.09-12.2-7.87-18.57-11.34c-2.08-1.13-4.29-2.03-6.43-3.03c-0.15-0.07-0.29-0.17-0.53-0.31c0.23-0.68,0.44-1.33,0.67-2.02
		c1.25,0.79,2.38,1.65,3.63,2.26c3.7,1.82,7.46,3.51,11.18,5.3c1.5,0.72,2.94,1.57,4.41,2.36c0.81,0.44,1.61,0.9,2.43,1.33
		c2.41,1.26,4.35,3.1,6.4,4.94C155.83,157.83,155.32,157.87,153.81,156.84z"/>
	<path d="M105.03,70.82c0.14,1.06,0.26,2.06,0.39,3.05c-0.67,0.22-1.26,0.42-1.92,0.64c0.62,1.12,1.46,0.94,2.36,0.82
		c1.21-0.16,2.44-0.27,3.65-0.24c1.49,0.04,2.97,0.25,4.46,0.39c0.62,0.05,1.01-0.16,0.99-0.98c-0.96-0.23-1.91-0.46-2.76-0.67
		c0.18-1.06,0.34-2.03,0.54-3.19c0.93,0.57,1.85,1.15,2.79,1.72c0.45,0.28,0.92,0.36,1.29-0.12c0.34-0.44,0.21-0.88-0.18-1.16
		c-2.15-1.54-4.33-2.98-7.15-3.03c-2.87-0.05-5.3,1.08-7.6,2.58c-0.51,0.33-0.88,0.86-1.31,1.3
		C102.33,72.29,103.52,71.06,105.03,70.82z"/>
	<path d="M86.61,76.06c-0.65-0.17-1.26-0.33-1.9-0.5c0.11-1.05,0.21-2.05,0.31-3.09c1.5,0.25,2.73,1.32,4.54,1.15
		c-0.91-1.35-2.1-1.91-3.29-2.44c-5.31-2.37-8.55-1.35-12.66,1.9c-0.1,0.08-0.26,0.17-0.28,0.27c-0.06,0.35-0.22,0.83-0.06,1.04
		c0.17,0.22,0.69,0.3,1.02,0.24c0.31-0.06,0.57-0.38,0.86-0.57c0.74-0.48,1.48-0.94,2.11-1.34c0.25,1.12,0.48,2.12,0.7,3.13
		c-0.88,0.4-2.02,0.22-2.8,1c0.23,0.77,0.75,0.75,1.3,0.66c2.81-0.43,5.61-1.04,8.49-0.46C85.69,77.22,86.37,77.04,86.61,76.06z"/>
	<path d="M88.92,84.6c-0.48,1.56-0.41,2.95,0.58,4.36c1.23,1.77,3.04,2.28,4.96,2.62c0.4,0.07,0.86-0.21,1.29-0.32
		c-0.01-0.11-0.01-0.23-0.02-0.34c-1.06-0.6-2.17-1.12-3.16-1.83c-0.61-0.44-1.3-1.08-1.46-1.75c-0.23-0.95-0.16-2.04,0.06-3
		c0.42-1.78,1.06-3.51,1.57-5.27c0.72-2.47,1.03-4.97,0.51-7.54c-0.25-1.24-0.4-2.51-0.65-3.76c-0.1-0.51-0.32-0.99-0.59-1.77
		c-0.7,1.24-0.68,2.23-0.58,3.22c0.25,2.36,0.55,4.73-0.09,7.06C90.59,79.08,89.76,81.84,88.92,84.6z"/>
	<path d="M102,62.21c0.4,0.3,0.93,0.48,1.42,0.57c2.29,0.38,4.6,0.66,6.88,1.09c1.5,0.28,2.97,0.78,4.46,1.1
		c0.98,0.22,1.79-0.12,1.9-0.72c0.16-0.88-0.47-1.24-1.14-1.54c-0.08-0.04-0.16-0.08-0.23-0.12c-2.83-1.47-5.83-2.14-8.8-1.92
		c-1.5,0-2.77-0.03-4.04,0.02c-0.29,0.01-0.76,0.29-0.8,0.5C101.6,61.52,101.75,62.03,102,62.21z"/>
	<path d="M81.27,64.61c1.18-0.13,2.35-0.33,3.51-0.53c0.89-0.15,1.45-0.69,1.44-1.3c-0.01-0.7-0.65-1.25-1.57-1.28
		c-0.57-0.02-1.15-0.03-1.71,0.08c-1.55,0.3-3.17,0.46-4.61,1.05c-2.06,0.84-3.98,2-5.95,3.06c-0.59,0.32-0.91,0.83-0.4,1.71
		c0.49-0.15,1.03-0.26,1.51-0.48C75.97,65.74,78.54,64.91,81.27,64.61z"/>
	<path d="M95.1,101.3c-0.04-0.1-0.08-0.21-0.12-0.31c-1.2-0.19-2.4-0.43-3.61-0.56c-1.35-0.15-2.7-0.25-4.06-0.29
		c-0.32-0.01-0.91,0.31-0.91,0.48c0,0.36,0.27,0.74,0.51,1.06c0.11,0.15,0.38,0.21,0.59,0.24c2.13,0.34,4.27,0.42,6.39,0
		C94.32,101.83,94.7,101.51,95.1,101.3z"/>
	<path d="M98.6,104.19c-1.33,0.21-2.68,0.35-4.03,0.47c-0.61,0.05-1.24-0.09-1.84-0.02c-0.41,0.05-0.78,0.31-1.38,0.57
		c1.4,1.38,2.94,1.06,4.29,1.07c1.67,0.01,3.41-0.15,4.75-1.65C99.54,103.98,99.53,104.04,98.6,104.19z"/>
	<path d="M103.72,99.3c0.55-0.23,0.88-0.67,0.52-1.25c-0.32-0.53-0.81-0.35-1.28-0.15c-1.53,0.65-3.07,1.27-4.58,1.95
		c-0.3,0.13-0.49,0.5-0.73,0.76c0.27,0.22,0.54,0.44,0.95,0.77C100.34,100.67,102.04,100,103.72,99.3z"/>
	<path d="M92.03,170.77c-0.64-0.02-0.98,0.36-1,1.1c-0.02,0.77,0.35,1.22,1.03,1.25c0.66,0.03,1.13-0.46,1.12-1.17
		C93.18,171.28,92.69,170.79,92.03,170.77z"/>
</g>
</svg>
