<?xml version="1.0" encoding="utf-8"?>
<!-- Generator: Adobe Illustrator 28.0.0, SVG Export Plug-In . SVG Version: 6.00 Build 0)  -->
<svg version="1.1" id="Layer_1" xmlns="http://www.w3.org/2000/svg" xmlns:xlink="http://www.w3.org/1999/xlink" x="0px" y="0px"
	 viewBox="0 0 200 200" style="enable-background:new 0 0 200 200;" xml:space="preserve">
<g>
	<path d="M80.68,179.07c2.87-0.06,5.75-0.2,8.61-0.47c6.17-0.58,12.33-1.32,18.5-1.91c3.22-0.31,6.45-0.49,9.68-0.65
		c4.31-0.21,8.62-0.39,12.93-0.5c2.6-0.07,5.22-0.09,7.82,0.08c4.12,0.27,8.24,0.64,12.34,1.09c4.96,0.55,9.86,0.28,14.73-0.71
		c0.78-0.16,1.57-0.42,2.26-0.81c1.27-0.7,1.66-1.72,1.33-3.16c-0.24-1.05-0.5-2.1-0.88-3.1c-1.73-4.51-4.36-8.44-7.68-11.94
		c-1.76-1.85-3.79-3.25-6.17-4.23c-3.81-1.57-7.55-3.27-11.31-4.91c-1.35-5.38-4.32-9.42-9.41-11.78c-1.63-0.76-3.21-1.62-4.8-2.46
		c-1.98-1.05-4-2.05-5.91-3.21c-1.98-1.21-3.85-2.59-5.77-3.89c-0.31-3.72-0.19-8.68,0.28-10.76c2.14-0.99,3.73-2.66,5.14-4.57
		c2.09-2.83,3.2-5.99,3.61-9.45c0.17-1.41,0.43-2.81,0.64-4.17c1.31-0.28,2.48-0.4,3.56-0.78c4.26-1.46,6.86-4.48,7.88-8.83
		c0.92-3.92,0.47-7.51-2.77-10.34c-0.26-0.23-0.48-0.51-0.77-0.83c0.1-0.9,0.17-1.79,0.3-2.67c0.77-5.17,1.17-10.36,0.33-15.56
		c-0.79-4.94-2.12-9.65-6.35-12.71c-0.1-1.94,0-3.77-0.31-5.51c-0.65-3.65-2.05-7.06-3.96-10.25c-2.17-3.61-5.17-6.17-9.33-7.22
		c-1.39-0.35-2.78-0.74-4.19-0.97c-4.05-0.66-8.05-0.58-11.96,0.86c-0.75,0.28-1.56,0.41-2.32,0.67c-1.94,0.68-3.89,1.37-5.81,2.12
		c-1.92,0.75-3.75,1.75-5.71,2.35c-2.92,0.89-5.9,1.57-8.87,2.24c-3.44,0.78-6.33,2.4-8.69,5.06c-2.77,3.11-4.18,6.65-3.8,10.84
		c0.07,0.8,0.11,1.6,0.15,2.31c-3.03,2.62-3.97,3.81-4.53,6.9c-0.35,1.92-0.54,4-0.17,5.88c0.88,4.48,1.86,8.97,3.74,13.18
		c0.32,0.71,0.46,1.51,0.68,2.29c-0.91,0.64-1.76,1.14-2.49,1.77c-2.12,1.85-2.8,4.29-2.78,7.02c0.05,5.86,3.9,11.32,10.33,12.28
		c0.51,0.08,1.03,0.16,1.62,0.26c0.22,1.35,0.48,2.58,0.61,3.82c0.41,4.05,1.91,7.63,4.51,10.77c1.17,1.4,2.48,2.56,4.15,3.36
		c1.12,0.53,2.16,1.23,3.24,1.86c0,1.6,0.03,3.03-0.01,4.46c-0.04,1.51,0.12,3.04-0.19,4.34c-1.66,1.11-3.13,2.15-4.65,3.09
		c-1.91,1.17-3.84,2.32-5.81,3.38c-2.45,1.32-4.97,2.51-7.44,3.8c-1.69,0.88-3.15,2.09-4.33,3.59c-1.74,2.21-3.15,4.59-3.58,7.42
		c-4.22,1.83-8.19,3.51-12.11,5.28c-1.22,0.55-2.44,1.21-3.45,2.07c-3.46,2.95-6.22,6.48-8.23,10.56c-0.99,2.01-1.94,4.05-2.34,6.29
		c-0.27,1.49-0.04,2.13,1.21,2.93c1.64,1.04,3.49,1.38,5.38,1.6c2.77,0.32,5.53,0.64,8.3,0.98c1.78,0.21,3.56,0.57,5.34,0.66
		C60.92,178.71,70.79,179.27,80.68,179.07z M118.86,134.15c-0.94-0.42-0.7,0.7-1.32,0.79c-0.24-1.91-1.05-3.75-0.55-5.89
		c0.41,0.16,0.78,0.21,1.02,0.42c4.31,3.8,9.52,6.1,14.59,8.58c3.71,1.81,6.01,4.71,7.67,8.33c0.67,1.46,0.39,2.58-0.72,3.63
		c-2.41,2.29-5.3,3.73-8.5,4.43c-5.45,1.19-10.97,2-16.56,2.1c-3.09,0.05-6.05,0.76-9.04,1.37c-0.32,0.07-0.64,0.1-1.54,0.22
		c1.02-0.9,1.54-1.56,2.22-1.91c2.87-1.49,5.76-2.97,9.09-3.12c3.72-0.17,7.3-1,10.72-2.44c1.47-0.62,2.93-1.42,4.17-2.41
		c2.33-1.85,3.26-4.36,2.52-7.4c-0.09,0.31-0.19,0.62-0.27,0.94c-0.82,3.19-2.86,5.35-5.76,6.74c-3.6,1.72-7.42,2.79-11.38,3.13
		c-3.54,0.31-6.54,1.85-9.48,3.57c-1.4,0.82-2.3,2.18-3.13,3.87c-0.36-0.48-0.72-0.74-0.7-0.97c0.15-2.12,0.85-4.06,2.43-5.52
		c2.91-2.68,5.88-5.29,8.82-7.94c2.22-2,4.18-4.19,5.4-6.97C119.1,136.5,119.31,135.33,118.86,134.15z M114.28,132.26
		c0.01,2.32,0.16,4.67,1.53,6.8c-1.37,1.67-2.83,3.22-4.5,4.6c-2.49,2.07-4.84,4.3-7.25,6.45c-1.65,1.47-2.68,3.34-3.53,5.34
		c-0.2,0.47-0.38,0.96-0.69,1.72c-0.32-0.87-0.5-1.47-0.75-2.03c-0.86-1.89-1.88-3.67-3.47-5.07c-2.56-2.26-5.13-4.5-7.66-6.8
		c-1.39-1.26-2.69-2.63-4.09-4.01c1.72-2.91,1.48-6.08,1.74-9.33c0.49,0.07,0.81,0.12,1.14,0.16c5.47,0.63,10.51-0.74,15.28-3.32
		c1.26-0.68,2.48-1.45,3.75-2.12c2.97-1.56,5.67-3.46,7.97-5.92c0.17-0.18,0.43-0.28,0.73-0.47c0.06,0.32,0.17,0.57,0.14,0.81
		C114.02,123.44,114.26,127.86,114.28,132.26z M132.84,61.66c0.94,2.24,0.34,11.07-0.82,14.31c-0.3-0.1-0.61-0.2-1.03-0.34
		C132.18,71,132.58,66.34,132.84,61.66z M131.78,90.31c0.2-0.42,0.59-0.85,0.49-1.11c-0.42-1.08-0.9-2.15-1.5-3.13
		c-0.56-0.9-1.32-1.69-2.11-2.67c-0.16-1.9,0.07-3.92,0.47-5.89c2.95-0.75,5.97,0.69,7.04,3.48c2.23,5.79-2.12,14.02-9.12,14.08
		c0.14-3.22,0.67-6.18,1.15-9.27C130.02,86.88,129.76,89.37,131.78,90.31z M71.77,47.84c3.13-3.19,6.53-5.98,11.17-6.49
		c4.27-0.47,8.42,0.08,12.36,1.88c3.02,1.37,6.05,2.73,9.06,4.12c2.01,0.93,4.1,1.28,6.3,1.09c0.34-0.03,0.68,0,1.57,0
		c-0.62,0.52-0.81,0.8-1.04,0.84c-2.42,0.44-4.82,0.5-7.15-0.44c-3-1.21-6-2.4-8.97-3.66c-3.81-1.62-7.81-2.3-11.86-1.79
		c-3.39,0.43-6.64,1.58-9.32,3.89c-0.58,0.5-1.21,0.95-2.13,1.67C71.76,48.17,71.69,47.93,71.77,47.84z M69.81,95.54
		c-0.58-0.05-1.19,0-1.73-0.15c-6.23-1.73-8.6-8.03-7.69-12.79c0.61-3.2,3.2-5,7.16-5.03c0.69,2.12,0.81,4.16,0.79,6.27
		c-1.58,1.8-3.26,3.57-3.65,6.08c-0.03,0.19,0.24,0.43,0.38,0.65c1.35-0.01,1.46-1.15,1.91-1.95c0.44-0.77,0.89-1.52,1.38-2.37
		C69.23,88.15,69.93,92.68,69.81,95.54z M78.47,112.78c-2.97-2.63-4.69-6.07-5.29-10.04c-1.02-6.74-2.11-13.47-3.13-20.21
		c-0.74-4.89-1-9.8-0.84-14.75c0.16-4.61,1.61-8.79,3.93-12.72c0.41-0.7,0.85-1.37,1.24-2.08c1.14-2.05,2.89-3.42,5.02-4.28
		c1.75-0.7,3.55-1.25,5.35-1.81c2.82-0.89,5.64-0.79,8.5-0.08c4.19,1.04,8.24,2.47,12.23,4.11c3.67,1.51,7.5,1.74,11.38,1.44
		c1.98-0.15,3.83-0.91,5.59-1.84c0.54-0.28,1.08-0.58,1.69-0.9c0.2,1.63,0.18,3.17,0.62,4.57c0.45,1.43,1.3,2.75,2.04,4.08
		c1.64,3,1.41,6.24,1.24,9.47c-0.13,2.42-0.21,4.84-0.44,7.25c-0.32,3.3-0.71,6.6-1.17,9.89c-0.79,5.69-1.69,11.36-2.45,17.05
		c-0.42,3.1-1.52,5.86-3.34,8.41c-1.57,2.19-3.69,3.7-5.95,4.93c-4.4,2.4-9.23,3.39-14.22,3.67c-3.98,0.22-7.9-0.31-11.77-1.08
		C84.86,117.12,81.39,115.36,78.47,112.78z M59.7,145.82c1.62-3.43,3.9-6.2,7.48-7.79c2.46-1.09,4.88-2.29,7.22-3.61
		c1.87-1.05,3.61-2.33,5.39-3.55c0.94-0.65,1.8-1.42,2.97-2.09c0.45,2.68,0.25,5.03-0.17,7.47c-1.28-0.36-0.5-1.72-1.49-2.29
		c-0.14,0.26-0.38,0.5-0.41,0.76c-0.32,2.23,0.78,4.03,2.01,5.69c1.38,1.87,2.99,3.54,4.82,5.04c2.78,2.27,5.38,4.77,7.98,7.25
		c1.48,1.41,2.1,3.3,2.32,5.3c0.02,0.21-0.2,0.45-0.34,0.66c-0.01,0.01-0.02,0.02-0.04,0.03c-0.06,0.02-0.14,0.03-0.21,0.05
		c-0.12-0.05-0.29-0.08-0.39-0.14c-0.03-0.02-0.06-0.04-0.07-0.07c-1.06-2.37-3.04-3.67-5.29-4.72c-2.45-1.15-4.94-1.95-7.68-2.28
		c-2.74-0.33-5.45-1.12-8.09-1.95c-4.33-1.37-7.7-3.83-8.61-9c-0.65,2.75-0.25,4.53,1.26,6.43c1.14,1.44,2.63,2.43,4.29,3.18
		c3.38,1.52,6.91,2.63,10.62,2.78c3.34,0.13,6.31,1.29,9.25,2.63c1.11,0.51,2.16,1.15,2.95,2.6c-0.72-0.18-1.14-0.28-1.55-0.39
		c-4.9-1.38-9.98-1.11-14.96-1.72c-3.74-0.46-7.47-1.06-11.14-1.87c-2.64-0.59-5.05-1.89-7.11-3.7
		C58.79,148.84,58.64,148.06,59.7,145.82z M42.5,175.29c-1.42-0.22-2.86-0.24-4.29-0.37c-1.87-0.16-3.74-0.35-5.41-1.41
		c0.33-3.12,1.58-5.82,3.11-8.34c1.35-2.21,3-4.25,4.64-6.27c1.55-1.91,3.56-3.2,5.86-4.19c3.63-1.55,7.16-3.33,10.87-5.07
		c2.11,3.08,5.15,4.91,8.59,6.16c0.92,0.34,1.89,0.59,2.85,0.79c5.82,1.22,11.69,1.99,17.65,1.97c3.51-0.02,6.9,0.8,10.29,1.43
		c-1.21,2.51-2.44,4.89-3.51,7.34c-0.42,0.96-0.63,2.07-0.64,3.11c-0.02,1.51,1.39,2.25,2.63,1.38c0.79-0.55,1.52-1.29,2.02-2.11
		c0.88-1.45,1.57-3.02,2.34-4.55c0.27-0.54,0.54-1.08,0.91-1.8c0.54,1.71,0.94,3.18,1.48,4.6c0.54,1.42,1.38,2.05,2.05,1.67
		c1.02-0.58,0.68-1.58,0.5-2.42c-0.22-1.05-0.63-2.05-0.96-3.08c-0.41-1.27-0.84-2.53-1.03-4.01c3.79-0.78,7.45-1.59,11.24-1.59
		c5.69,0.01,11.29-0.74,16.85-1.87c4.73-0.96,8.84-2.94,11.91-7.03c1.2,0.54,2.41,1.07,3.61,1.63c2.6,1.22,5.18,2.49,7.8,3.66
		c1.67,0.74,3.15,1.7,4.43,3c3.45,3.5,6.16,7.49,7.84,12.13c0.33,0.91,0.5,1.88,0.78,2.99c-0.8,0.3-1.44,0.63-2.11,0.76
		c-4.43,0.88-8.88,1.18-13.4,0.69c-4.28-0.47-8.58-0.85-12.89-1.1c-2.87-0.17-5.75-0.11-8.63-0.03c-4.13,0.11-8.27,0.23-12.39,0.5
		c-5.56,0.36-11.11,0.8-16.66,1.32c-4.92,0.47-9.82,1.12-14.73,1.66c-1.25,0.14-2.51,0.23-3.77,0.22
		c-6.65-0.05-13.31-0.05-19.96-0.25C55.73,176.66,49.09,176.33,42.5,175.29z"/>
	<path d="M89.05,64.26c0.89-0.03,1.77-0.28,2.65-0.42c0.77-0.13,1.36-0.46,1.47-1.32c0.12-0.95-0.01-1.84-0.92-2.34
		c-0.62-0.34-1.31-0.57-2-0.74c-3.85-0.96-7.68-0.61-11.4,0.54c-1.86,0.58-3.6,1.57-5.31,2.53c-1.13,0.63-1.96,1.6-1.43,3.11
		c1.35,1.03,2.8,0.42,4.15,0.19C80.49,65.07,84.74,64.43,89.05,64.26z"/>
	<path d="M105.19,62.77c0.45,0.01,0.9,0.02,1.35,0.04c2.06,0.1,4.13,0.16,6.19,0.3c3.04,0.21,6.08,0.47,9.51,0.73
		c0.16,0,0.69,0,1.23,0c0.09,0,0.18-0.01,0.27-0.03c0.88-0.16,1.39-1.1,0.85-1.83c-0.52-0.69-1.19-1.35-1.94-1.78
		c-4.73-2.71-9.8-3.34-15.08-2.16c-1.12,0.25-2.19,0.8-3.21,1.35c-0.84,0.45-1.16,1.5-0.87,2.34
		C103.76,62.53,104.42,62.75,105.19,62.77z"/>
	<path d="M90.72,75.94c-0.4-0.16-0.77-0.33-1.16-0.45c-0.39-0.12-0.8-0.2-1.31-0.32c0.24-1.11,0.44-2.06,0.66-3.11
		c1.25,0.46,2.38,0.88,4.02,1.49c-0.47-0.89-0.6-1.4-0.93-1.7c-1.32-1.2-3.01-1.6-4.68-1.9c-4.11-0.74-7.86-0.02-10.94,3.02
		c-0.31,0.31-0.67,0.66-0.8,1.05c-0.1,0.31,0.14,0.73,0.3,1.42c0.94-0.76,1.6-1.32,2.3-1.85c0.76-0.58,1.46-1.3,2.63-1.21
		c0.34,1.08,0.65,2.06,0.98,3.09c-0.88,0.28-1.63,0.51-2.37,0.74c1.93,0.64,9.93,0.6,10.96,0.32
		C90.49,76.48,90.55,76.23,90.72,75.94z"/>
	<path d="M121.44,71.01c-1.67-1.66-3.72-2.46-6.03-2.54c-3.53-0.12-6.7,0.9-9.45,3.14c-0.14,0.11-0.16,0.38-0.24,0.59
		c1.29,0.27,2.06-1.3,3.41-0.66c0.06,0.87,0.11,1.73,0.16,2.5c-0.69,0.5-1.24,0.89-2.24,1.62c2.39-0.28,4.24-0.46,6.07-0.72
		c1.8-0.25,3.65,0.34,5.57-0.22c-0.51-1.33-1.82-0.91-2.55-1.62c0.35-0.78,0.7-1.56,1.05-2.33c1.47,0.12,2.39,1.05,3.49,1.6
		c0.45,0.23,1.02,0.5,1.36-0.21c-0.03-0.18-0.03-0.37-0.11-0.51C121.79,71.42,121.63,71.2,121.44,71.01z"/>
	<path d="M99.58,93.71c1.2,0.12,2-0.62,2.73-1.76c-0.5,0.11-0.83,0.19-1.16,0.24c-2.88,0.5-4.86-0.98-4.85-3.83
		c0-1.32,0.22-2.7,0.66-3.95c0.86-2.47,1.39-4.97,1.73-7.57c0.41-3.2-0.02-6.25-0.78-9.3c-0.11-0.43-0.48-0.78-0.73-1.17
		c-0.15,0.89,0.01,1.66,0.21,2.42c0.77,3.03,0.75,6.03-0.32,9c-0.55,1.52-1.06,3.05-1.56,4.58c-0.39,1.19-0.85,2.37-1.1,3.6
		c-0.51,2.42-0.05,4.6,1.76,6.45C97.14,93.42,98.35,93.59,99.58,93.71z"/>
	<path d="M90.23,100.57c-0.11,0.79,0.47,1.17,1.05,1.35c0.93,0.29,1.9,0.59,2.86,0.6c5.5,0.07,10.57-1.53,15.31-4.25
		c0.89-0.51,1.67-1.21,2.11-2.64c-0.69,0.22-1.1,0.33-1.48,0.48c-1.49,0.61-2.96,1.26-4.45,1.86c-3.34,1.33-6.77,2.32-10.39,2.4
		c-1.14,0.03-2.29-0.25-3.44-0.41C90.92,99.84,90.31,100.05,90.23,100.57z"/>
	<path d="M101.72,105.36c-1.67,0.06-3.34,0.11-5.01,0.28c-0.27,0.03-0.6,0.61-0.67,0.97c-0.04,0.21,0.35,0.68,0.62,0.75
		c1.78,0.45,3.53,0.42,5.09-0.72c0.23-0.17,0.3-0.57,0.42-0.81C101.95,105.59,101.83,105.35,101.72,105.36z"/>
</g>
</svg>
