<?xml version="1.0" encoding="utf-8"?>
<!-- Generator: Adobe Illustrator 28.0.0, SVG Export Plug-In . SVG Version: 6.00 Build 0)  -->
<svg version="1.1" id="Layer_1" xmlns="http://www.w3.org/2000/svg" xmlns:xlink="http://www.w3.org/1999/xlink" x="0px" y="0px"
	 viewBox="0 0 216 207.57" style="enable-background:new 0 0 216 207.57;" xml:space="preserve">
<style type="text/css">
	.st0{fill:#574336;}
	.st1{fill:#F2652D;}
	.st2{fill:#FCC390;}
	.st3{fill:#F2652C;}
	.st4{fill:#CF3C27;}
	.st5{fill:#FFF2E4;}
</style>
<g>
	<g>
		<path class="st0" d="M184.06,139.26c-30.96-0.06-108.73-0.12-139.69-0.19l-0.04,0.1c-1.17,0-2.33,0-3.5,0
			c-1.77,0-3.06,0.5-4.21,1.85c-7.57,8.84-11.36,18.89-10.22,30.63c1.61,16.62,15.33,29.29,31.92,29.12
			c2.92-0.03,6.04-0.7,8.69-1.89c4.34-1.96,5.37-6.91,2.67-10.47c-2.86-3.78-11.65-6.07-15.93-4.16c-2.63,1.18-2.96,3.77-0.57,5.38
			c1.62,1.09,3.45,1.82,5.59,1.25c0.03-0.55,0.05-1,0.09-1.45c0.17-1.97,1.55-2.46,3.18-2.37c2.01,0.11,1.92,1.72,1.84,3.09
			c-0.05,0.9-0.26,1.87-0.69,2.64c-1.75,3.11-4.7,4.29-8.08,4.58c-6.93,0.61-12.06-2.46-15.94-7.94c-3.22-4.55-4.76-9.73-5.36-15.19
			c-1.26-11.41,1.67-21.5,9.81-29.85c0.5-0.51,1.11-0.91,1.91-1.45c1.36,0,3.06,0,5.02,0l0.02,8.74c0.02-0.01,0.03-0.02,0.05-0.04
			c0,2.23,0,4.38,0,6.48c0,4.89,0,9.49,0,14.09c0.01,4.49,3.67,7.2,7.87,5.5c2.98-1.21,5.71-3.01,8.52-4.61
			c1.17-0.66,2.24-1.49,3.86-2.57c0,1.8-0.04,3.02,0.01,4.24c0.13,3.22,0.14,6.47,0.51,9.67c0.47,4.05,2.41,5.3,6.86,4.67
			c0-0.64,0.07-1.32-0.01-1.98c-1.04-9.02-0.48-17.97,1-26.89c0.46-2.74-0.14-3.59-2.92-4.52c-2.75-0.91-3.04-0.79-4.65,1.93
			c-0.47,0.79-0.92,1.6-1.43,2.37c-3.17,4.79-7.35,8.45-12.53,11.53c0-4.18,0-8.18,0-12.14c0-2.36,0-4.69,0-7.03
			c0.01,0,0.03,0,0.04,0l0.02-9.43c7.72,0,17.29,0.01,26.41,0.01l0,2.46c0,0,0,0,0,0c0,1.44,0,2.68,0,3.92c0,11.31,0,22.62,0,33.93
			c0,4.77,1.44,6.08,6.91,5.98c0-9.42,0-18.85,0-28.29c0-5.17,0-10.33,0-15.51c0.01,0,0.02,0,0.03,0l0-2.49
			c11.12,0.01,20.55,0.01,23.56,0.02c-2.87,2.15-5.25,3.74-7.39,5.6c-2.98,2.58-6.09,5.12-8.6,8.13c-3.45,4.15-3.34,9.15,0.15,13.18
			c6.48,7.47,15.21,9.24,25.1,9.56c0.02-11.62,0.04-22.78,0.07-34.48c1.68,0.72,2.81,1.08,3.81,1.66c4.37,2.51,5.27,5.93,2.72,10.28
			c-0.6,1.03-1.42,1.93-2.1,2.91c-0.44,0.64-0.82,1.33-1.22,1.98c5.66,3.79,8.32,3.48,11.38-0.8c0-1.53-0.22-2.68,0.05-3.71
			c0.83-3.25-0.01-6.06-2.42-8.17c-2.05-1.79-4.48-3.16-6.77-4.66c-0.8-0.52-1.7-0.87-3.15-1.59c6.26,0.01,11.77,0.02,17.88,0.03
			c0,1.62-0.01,2.91-0.01,4.21c-0.02,11.98-0.06,23.96-0.06,35.94c0,3.62,0.5,4.27,4.02,5.3c0.86,0.25,1.79,0.29,3.13,0.5
			c0.03-15.49,0.06-30.64,0.09-45.75c9.45,0.02,18.5,0.04,27.52,0.05c-0.01,5.73-0.02,11.15-0.03,17.08
			c-1.19-0.96-1.99-1.62-2.8-2.26c-3.56-2.85-7.1-5.73-10.69-8.54c-1.73-1.35-3.64-2.24-6.03-1.42c0.28,1.89,0.65,3.63,0.78,5.4
			c0.13,1.74,0.02,3.49,0.02,5.08c-1.42,0.28-2.18,0.44-2.82,0.57c0.32,1.62,0.91,3.02,0.78,4.33c-0.15,1.48-0.97,2.89-1.47,4.27
			c4.54,4.19,6.91,3.73,9.07-1.66c0.36-0.89,0.73-1.8,0.87-2.73c0.39-2.55,0.65-5.11,0.96-7.66c0.34,0.03,0.64-0.03,0.79,0.09
			c6.31,5.03,11.45,10.73,10.73,19.56c-0.18,2.17,0.79,3.43,2.71,4.06c1.32,0.43,2.7,0.68,4.59,1.15
			c0.02-12.8,0.05-25.08,0.07-37.35c1.69-0.2,2.95-0.35,4.77-0.56C189.15,139.79,186.72,139.27,184.06,139.26z M116.54,175.31
			c-4.66,0.9-9.49-1.13-11.88-4.91c-2.21-3.51-1.86-7.81,1.6-11.54c2.89-3.12,6.3-5.77,9.49-8.63c0.28,0.16,0.56,0.31,0.84,0.47
			C116.58,158.91,116.56,167.12,116.54,175.31z"/>
		<g>
			<path class="st1" d="M66.15,104.63c-3.17,7.77-9.17,10.36-16.15,10.53c-9.76,0.24-18.74-2.98-27.24-7.59
				c-0.23-0.12-0.44-0.31-0.58-0.53c-0.14-0.2-0.17-0.47-0.35-1.02c1.84-1.08,3.44-0.04,5.02,0.65c5.96,2.65,11.96,5.07,18.7,4.62
				c6.25-0.41,11.58-4.62,12.74-10.17c1.23-5.92-1.82-11.83-7.93-14.79c0,5.62,0,11.07,0,16.49c-4.98,0.33-6.74-1.35-7.96-5.2
				c-1.07-3.36,0.29-6.43-0.01-9.63c-0.15-1.55-0.03-3.13-0.03-4.91c-4.32-0.97-9.33,0.91-12.81-3.89c1.39-0.18,2.35-0.42,3.31-0.42
				c50.03-0.02,100.06-0.01,150.09-0.02c2.98,0,5.61,0.68,8.25,3.49c-2.2,0.33-3.66,0.55-5.5,0.83c0,13.47,0,26.9,0,40.51
				c-4.51,0.88-8.46-0.25-12.4-1.14c-5.1-1.15-9.87-3.1-13.78-6.69c-5.6-5.13-6.29-11.59-1.14-17.18c3.28-3.56,7.41-6.36,11.25-9.39
				c2.49-1.96,5.14-3.7,7.73-5.54c-0.03-0.3-0.07-0.61-0.1-0.91c-4.5,0-9-0.01-13.5-0.01c-4.64,0-9.27,0-14.39,0
				c0,16.89,0,33.6,0,50.26c-6,0.55-7.99-1.18-7.99-6.53c-0.01-12.96,0-25.92,0-38.88c0-1.44,0-2.87,0-4.58c-2.17,0-4.07,0-6.4,0
				c0,13.42,0,26.71,0,40.18c-4.08-0.49-7.42-0.9-8.44-5.52c-0.45-2.04-2.2-3.8-3.25-5.51c-0.74,0.1-1.1,0.05-1.2,0.18
				c-2.83,3.77-6.38,5.32-11.11,3.97c-5.2-1.49-9.07-4.36-10.53-9.74c-0.98-3.62,0.3-5.46,4.04-5.5c2.47-0.02,4.96,0.69,7.43,1.08
				c0.74,0.12,1.46,0.28,2.56,0.49c-0.21-3.68-1.61-6.4-4.1-8.54c-1.9-1.64-3.95-3.11-5.96-4.63c-2.15-1.63-4.14-3.36-3.93-6.53
				c-2.12,0-3.91,0-6.18,0c0,16.91,0,33.63,0,50.71c-1.55-0.32-2.58-0.46-3.57-0.76c-3.52-1.07-4.01-1.68-4.01-5.31
				c-0.02-13.36-0.01-26.71-0.01-40.07c0-1.43,0-2.87,0-4.53c-2.4,0-4.44,0-7.03,0c0,13.33,0,26.59,0,40.44
				c-2-0.47-3.4-0.69-4.73-1.13c-2.06-0.69-3.16-1.97-3.19-4.39C71.66,113.01,69.97,108.68,66.15,104.63z M177.6,92.53
				c-5.61,3.68-10.58,7.09-13.65,12.54c-2.11,3.75-1.47,8.07,1.61,10.92c3.33,3.09,7.32,4.46,12.04,3.82
				C177.6,110.81,177.6,102.05,177.6,92.53z M126.95,82.74c-5.21,0-10.09,0.03-14.97-0.02c-1.6-0.02-2.85,0.31-3.45,1.99
				c-0.66,1.86-0.27,3.32,1.32,4.54c2.41,1.85,4.88,3.64,7.14,5.67c2.72,2.45,4.73,5.55,4.96,9.23c0.21,3.35,2.06,4.76,5.01,5.96
				C126.95,100.99,126.95,92.16,126.95,82.74z M71.58,103.59c0-7.16,0-13.82,0-20.67c-6.61,0-12.99,0-19.99,0
				c2.26,1.42,4.05,2.46,5.75,3.62c3.79,2.6,7.24,5.78,8.1,10.34C66.14,100.63,68.5,101.97,71.58,103.59z M114.55,106.19
				c-2.07-0.46-4.05-2.47-6.1-0.32c-1.28,1.34-0.3,4.32,1.88,6.61C113.33,111.57,114.71,109.56,114.55,106.19z"/>
			<path class="st1" d="M155.24,125.6c3.79-4.26,9.29-4.25,15.23-0.14c-1.89,2.79-5.08,3.91-7.95,2.83
				C160.21,127.41,157.88,126.57,155.24,125.6z"/>
		</g>
	</g>
	<g>
		<path class="st2" d="M57.56,75.89c4.17,1.81,8.58,2.07,13.13,1.7c9.63-0.77,18.37-8.78,18.45-17.57c0.01-0.72,0-1.43-0.02-2.15
			H45.66C45.23,64.96,49.75,72.49,57.56,75.89z"/>
		<path class="st2" d="M138.76,75.89c4.04,1.81,8.31,2.07,12.72,1.7c9.33-0.77,17.8-8.15,17.87-16.94c0.01-0.72,0.02-2.06,0-2.78
			h-42.12C126.82,64.96,131.19,72.49,138.76,75.89z"/>
		<path class="st3" d="M126.1,38.22c-0.35-4.78-0.75-9.56-1.08-14.34c-0.32-4.66-0.55-9.32-0.85-13.97
			c-0.07-1.02-0.29-2.02-0.45-3.11c-10.52,0-20.92,0-31.63,0c-0.26,3.31-0.54,6.46-0.76,9.61c-0.51,7.24-1.02,14.47-1.5,21.71
			c-0.42,6.46-0.64,12.95-1.24,19.39c-0.02,0.22-0.04,0.44-0.05,0.66h38.76c-0.1-4.84-0.63-9.69-0.92-14.53
			C126.29,41.85,126.23,40.03,126.1,38.22z"/>
		<path class="st3" d="M46.16,55.96c0.96-7.05,1.95-14.1,2.91-21.15c1.02-7.5,2.02-15.01,3.01-22.51c0.23-1.77,0.34-3.56,0.52-5.47
			c-9.29,0-18.35,0-27.52,0c-0.77,2.07-1.56,4.11-2.28,6.18C17.67,27.7,12.56,42.4,7.48,57.11c-0.12,0.35-0.22,0.71-0.28,1.08h38.88
			c0-0.1,0-0.2,0-0.29C46.06,57.25,46.07,56.59,46.16,55.96z"/>
		<path class="st4" d="M169.71,58.19c0.06,0.62,0.13,1.25,0.2,1.87c0.19,1.66,0.48,3.36,1.01,4.93
			c3.33,9.91,12.73,14.97,23.43,12.51c7.47-1.71,12.14-6.73,14.03-14.3c0.41-1.63,0.75-3.32,0.38-5.01H169.71z"/>
		<path class="st3" d="M208.55,57.46c-2.36-6.84-4.73-13.67-7.1-20.51c-2.49-7.2-4.98-14.39-7.49-21.58
			c-1.01-2.9-2.09-5.78-3.1-8.54c-9.26,0-18.26,0-27.4,0c0,0.75-0.07,1.39,0.01,2.01c0.99,7.44,2,14.88,3,22.31
			c0.75,5.58,1.54,11.16,2.21,16.75c0.41,3.42,0.68,6.86,1.03,10.29h39.04C208.71,57.95,208.64,57.7,208.55,57.46z"/>
		<polygon class="st5" points="52.59,6.82 92.1,6.81 88.54,58.19 46.07,58.19 		"/>
		<polygon class="st5" points="123.73,6.81 163.47,6.83 169.71,58.19 127.31,58.19 		"/>
		<path class="st4" d="M99.16,76.21c3.72,1.81,7.65,2.07,11.71,1.7c8.59-0.77,16.39-8.78,16.46-17.57c0.01-0.72,0-1.43-0.02-2.15
			H88.54C88.16,65.28,92.19,72.81,99.16,76.21z"/>
		<path class="st4" d="M7.08,59.38c0.07,3.86,1.19,7.42,3.4,10.55c5.17,7.3,12.69,9.39,20.94,7.59c9.05-1.98,14.77-9.88,14.65-19.33
			H7.19C7.12,58.59,7.08,58.99,7.08,59.38z"/>
	</g>
</g>
</svg>
