<?xml version="1.0" encoding="utf-8"?>
<!-- Generator: Adobe Illustrator 28.0.0, SVG Export Plug-In . SVG Version: 6.00 Build 0)  -->
<svg version="1.1" id="Layer_1" xmlns="http://www.w3.org/2000/svg" xmlns:xlink="http://www.w3.org/1999/xlink" x="0px" y="0px"
	 viewBox="0 0 341.27 73.94" style="enable-background:new 0 0 341.27 73.94;" xml:space="preserve">
<style type="text/css">
	.st0{fill:#574336;}
	.st1{fill:#F2652D;}
	.st2{fill:#FCC390;}
	.st3{fill:#F2652C;}
	.st4{fill:#CF3C27;}
	.st5{fill:#FFF2E4;}
</style>
<g>
	<path class="st0" d="M327.26,8.12C296.72,8.06,219.99,8,189.45,7.93l-0.04,0.09c-1.15,0-2.3,0-3.45,0c-1.75,0-3.02,0.49-4.16,1.82
		c-7.46,8.72-11.21,18.64-10.09,30.21c1.59,16.4,15.12,28.9,31.49,28.73c2.88-0.03,5.95-0.69,8.57-1.87
		c4.28-1.93,5.29-6.81,2.63-10.33c-2.82-3.73-11.49-5.99-15.72-4.1c-2.59,1.16-2.92,3.72-0.56,5.3c1.6,1.07,3.4,1.79,5.52,1.24
		c0.03-0.54,0.05-0.99,0.09-1.43c0.17-1.94,1.53-2.42,3.14-2.34c1.98,0.11,1.89,1.69,1.81,3.05c-0.05,0.88-0.26,1.84-0.68,2.61
		c-1.73,3.07-4.64,4.23-7.97,4.52c-6.84,0.6-11.9-2.43-15.72-7.83c-3.17-4.49-4.7-9.6-5.29-14.99c-1.24-11.26,1.65-21.21,9.68-29.45
		c0.49-0.5,1.1-0.9,1.89-1.43c1.34,0,3.02,0,4.95,0l0.02,8.62c0.02-0.01,0.03-0.02,0.05-0.04c0,2.2,0,4.32,0,6.4
		c0,4.82,0,9.36,0,13.9c0.01,4.43,3.62,7.1,7.77,5.42c2.94-1.19,5.63-2.97,8.4-4.55c1.15-0.66,2.21-1.47,3.8-2.54
		c0,1.77-0.04,2.98,0.01,4.19c0.13,3.18,0.13,6.38,0.5,9.54c0.47,4,2.38,5.23,6.77,4.61c0-0.63,0.07-1.3-0.01-1.95
		c-1.02-8.9-0.48-17.73,0.99-26.53c0.45-2.71-0.14-3.54-2.88-4.45c-2.71-0.9-3-0.78-4.59,1.9c-0.46,0.78-0.91,1.58-1.41,2.34
		c-3.12,4.72-7.25,8.34-12.36,11.37c0-4.12,0-8.07,0-11.97c0-2.33,0-4.63,0-6.94c0.01,0,0.03,0,0.04,0l0.02-9.3
		c7.62,0,17.06,0.01,26.06,0.01l0,2.43c0,0,0,0,0,0c0,1.42,0,2.64,0,3.87c0,11.16,0,22.32,0,33.48c0,4.7,1.42,6,6.82,5.9
		c0-9.29,0-18.6,0-27.91c0-5.1,0-10.2,0-15.3c0.01,0,0.02,0,0.03,0l0-2.46c10.97,0.01,20.27,0.01,23.24,0.02
		c-2.83,2.13-5.18,3.69-7.3,5.52c-2.94,2.55-6.01,5.05-8.48,8.02c-3.4,4.09-3.29,9.03,0.15,13c6.39,7.37,15.01,9.12,24.76,9.43
		c0.02-11.46,0.04-22.47,0.06-34.01c1.66,0.71,2.77,1.07,3.76,1.64c4.31,2.48,5.2,5.85,2.68,10.14c-0.59,1.01-1.4,1.9-2.08,2.87
		c-0.44,0.63-0.81,1.31-1.2,1.95c5.58,3.74,8.21,3.43,11.23-0.79c0-1.51-0.21-2.65,0.05-3.66c0.82-3.21-0.01-5.97-2.39-8.06
		c-2.02-1.77-4.42-3.12-6.68-4.6c-0.78-0.51-1.68-0.86-3.11-1.57c6.18,0.01,11.61,0.02,17.64,0.03c0,1.59-0.01,2.87-0.01,4.15
		c-0.02,11.82-0.05,23.64-0.06,35.46c0,3.57,0.49,4.21,3.97,5.23c0.85,0.25,1.77,0.29,3.08,0.49c0.03-15.28,0.06-30.22,0.09-45.13
		c9.32,0.02,18.25,0.03,27.15,0.05c-0.01,5.65-0.02,11-0.03,16.85c-1.17-0.95-1.97-1.6-2.76-2.23c-3.51-2.81-7-5.65-10.54-8.42
		c-1.71-1.34-3.59-2.21-5.95-1.4c0.28,1.86,0.64,3.58,0.77,5.33c0.13,1.71,0.02,3.45,0.02,5.01c-1.4,0.28-2.15,0.43-2.78,0.56
		c0.32,1.6,0.9,2.98,0.77,4.28c-0.15,1.46-0.95,2.85-1.45,4.21c4.48,4.13,6.81,3.68,8.95-1.64c0.35-0.88,0.72-1.77,0.86-2.69
		c0.38-2.51,0.64-5.04,0.95-7.56c0.34,0.03,0.63-0.03,0.78,0.09c6.22,4.96,11.29,10.59,10.59,19.3c-0.17,2.14,0.78,3.39,2.68,4.01
		c1.3,0.43,2.66,0.67,4.53,1.13c0.02-12.63,0.05-24.74,0.07-36.85c1.67-0.2,2.91-0.34,4.71-0.55
		C332.29,8.64,329.89,8.12,327.26,8.12z M260.66,43.68c-4.6,0.89-9.36-1.12-11.72-4.85c-2.18-3.46-1.83-7.7,1.58-11.39
		c2.85-3.08,6.22-5.69,9.36-8.51c0.27,0.15,0.55,0.31,0.82,0.47C260.69,27.5,260.67,35.61,260.66,43.68z"/>
	<g>
		<path class="st1" d="M43.39,29.94c-2.73,6.69-7.9,8.92-13.91,9.07c-8.41,0.21-16.14-2.57-23.46-6.54
			c-0.19-0.11-0.38-0.27-0.5-0.45c-0.12-0.17-0.15-0.41-0.3-0.88c1.59-0.93,2.97-0.04,4.32,0.56c5.13,2.28,10.3,4.36,16.1,3.98
			c5.38-0.36,9.97-3.98,10.97-8.76c1.06-5.1-1.57-10.19-6.83-12.73c0,4.84,0,9.54,0,14.2c-4.29,0.29-5.8-1.16-6.86-4.48
			c-0.92-2.9,0.25-5.54-0.01-8.3c-0.13-1.34-0.02-2.7-0.02-4.23c-3.72-0.84-8.03,0.79-11.04-3.35c1.19-0.16,2.02-0.36,2.85-0.36
			c43.08-0.02,86.17-0.01,129.25-0.02c2.57,0,4.83,0.58,7.1,3.01c-1.9,0.29-3.15,0.47-4.74,0.71c0,11.6,0,23.17,0,34.89
			c-3.89,0.75-7.29-0.22-10.68-0.98c-4.39-0.99-8.5-2.67-11.87-5.76c-4.83-4.42-5.42-9.98-0.98-14.79c2.82-3.07,6.38-5.48,9.69-8.08
			c2.14-1.69,4.43-3.19,6.65-4.77c-0.03-0.26-0.06-0.52-0.09-0.78c-3.88,0-7.75-0.01-11.63-0.01c-3.99,0-7.99,0-12.4,0
			c0,14.55,0,28.94,0,43.28c-5.17,0.48-6.88-1.02-6.88-5.62c-0.01-11.16,0-22.32,0-33.48c0-1.24,0-2.47,0-3.94c-1.87,0-3.5,0-5.51,0
			c0,11.56,0,23,0,34.61c-3.51-0.42-6.39-0.77-7.27-4.75c-0.38-1.76-1.89-3.27-2.8-4.74c-0.64,0.09-0.95,0.04-1.04,0.16
			c-2.44,3.25-5.5,4.58-9.57,3.42c-4.48-1.28-7.81-3.76-9.07-8.39c-0.84-3.11,0.26-4.7,3.48-4.73c2.13-0.02,4.27,0.59,6.4,0.93
			c0.63,0.1,1.26,0.24,2.2,0.42c-0.18-3.17-1.39-5.51-3.53-7.36c-1.64-1.41-3.4-2.68-5.13-3.99c-1.86-1.41-3.57-2.9-3.38-5.62
			c-1.82,0-3.36,0-5.32,0c0,14.56,0,28.96,0,43.67c-1.33-0.28-2.22-0.39-3.07-0.65c-3.03-0.92-3.45-1.45-3.46-4.57
			c-0.02-11.5-0.01-23.01-0.01-34.51c0-1.23,0-2.47,0-3.9c-2.06,0-3.82,0-6.05,0c0,11.48,0,22.9,0,34.83
			c-1.72-0.4-2.93-0.59-4.07-0.97c-1.77-0.59-2.72-1.69-2.75-3.78C48.14,37.16,46.68,33.43,43.39,29.94z M139.37,19.52
			c-4.83,3.17-9.11,6.11-11.76,10.8c-1.82,3.23-1.27,6.95,1.39,9.41c2.87,2.66,6.31,3.84,10.37,3.29
			C139.37,35.26,139.37,27.72,139.37,19.52z M95.75,11.09c-4.49,0-8.69,0.03-12.89-0.02c-1.38-0.01-2.46,0.26-2.97,1.71
			c-0.57,1.6-0.23,2.86,1.14,3.91c2.08,1.59,4.21,3.13,6.15,4.88c2.35,2.11,4.07,4.78,4.27,7.95c0.18,2.88,1.77,4.1,4.31,5.13
			C95.75,26.8,95.75,19.21,95.75,11.09z M48.06,29.05c0-6.16,0-11.9,0-17.8c-5.69,0-11.18,0-17.21,0c1.95,1.22,3.49,2.12,4.95,3.12
			c3.26,2.24,6.24,4.98,6.97,8.9C43.38,26.49,45.42,27.66,48.06,29.05z M85.07,31.29c-1.79-0.4-3.48-2.13-5.25-0.27
			c-1.1,1.15-0.26,3.72,1.62,5.7C84.02,35.92,85.21,34.18,85.07,31.29z"/>
		<path class="st1" d="M120.11,48c3.26-3.66,8-3.66,13.12-0.12c-1.63,2.4-4.37,3.37-6.84,2.43C124.39,49.56,122.39,48.84,120.11,48z
			"/>
	</g>
	<g>
		<path class="st2" d="M194.6,22.65c1.3,0.48,2.67,0.54,4.09,0.45c3-0.2,5.72-2.31,5.75-4.62c0-0.19,0-0.38-0.01-0.56h-13.54
			C190.76,19.78,192.17,21.76,194.6,22.65z"/>
		<path class="st2" d="M219.89,22.65c1.26,0.48,2.59,0.54,3.96,0.45c2.91-0.2,5.54-2.14,5.57-4.45c0-0.19,0.01-0.54,0-0.73H216.3
			C216.17,19.78,217.54,21.76,219.89,22.65z"/>
		<path class="st3" d="M215.95,12.76c-0.11-1.26-0.23-2.51-0.33-3.77c-0.1-1.22-0.17-2.45-0.26-3.67c-0.02-0.27-0.09-0.53-0.14-0.82
			c-3.28,0-6.52,0-9.85,0c-0.08,0.87-0.17,1.7-0.24,2.53c-0.16,1.9-0.32,3.8-0.47,5.7c-0.13,1.7-0.2,3.4-0.39,5.09
			c-0.01,0.06-0.01,0.12-0.02,0.17h12.07c-0.03-1.27-0.2-2.55-0.29-3.82C216.01,13.71,215.99,13.23,215.95,12.76z"/>
		<path class="st3" d="M191.05,17.42c0.3-1.85,0.61-3.7,0.91-5.56c0.32-1.97,0.63-3.94,0.94-5.91c0.07-0.47,0.11-0.93,0.16-1.44
			c-2.89,0-5.72,0-8.57,0c-0.24,0.54-0.49,1.08-0.71,1.62c-1.59,3.86-3.18,7.72-4.77,11.59c-0.04,0.09-0.07,0.19-0.09,0.28h12.11
			c0-0.03,0-0.05,0-0.08C191.02,17.75,191.02,17.58,191.05,17.42z"/>
		<path class="st4" d="M229.53,18c0.02,0.16,0.04,0.33,0.06,0.49c0.06,0.44,0.15,0.88,0.31,1.3c1.04,2.6,3.97,3.93,7.3,3.29
			c2.33-0.45,3.78-1.77,4.37-3.76c0.13-0.43,0.23-0.87,0.12-1.32H229.53z"/>
		<path class="st3" d="M241.63,17.81c-0.74-1.8-1.47-3.59-2.21-5.39c-0.78-1.89-1.55-3.78-2.33-5.67c-0.32-0.76-0.65-1.52-0.96-2.24
			c-2.89,0-5.69,0-8.54,0c0,0.2-0.02,0.37,0,0.53c0.31,1.95,0.62,3.91,0.93,5.86c0.23,1.47,0.48,2.93,0.69,4.4
			c0.13,0.9,0.21,1.8,0.32,2.7h12.16C241.68,17.94,241.66,17.87,241.63,17.81z"/>
		<polygon class="st5" points="193.05,4.51 205.36,4.5 204.25,18 191.02,18 		"/>
		<polygon class="st5" points="215.21,4.5 227.59,4.51 229.53,18 216.33,18 		"/>
		<path class="st4" d="M207.56,22.73c1.16,0.48,2.38,0.54,3.65,0.45c2.68-0.2,5.1-2.31,5.13-4.62c0-0.19,0-0.38-0.01-0.56h-12.07
			C204.13,19.86,205.39,21.84,207.56,22.73z"/>
		<path class="st4" d="M178.88,18.32c0.02,1.02,0.37,1.95,1.06,2.77c1.61,1.92,3.95,2.47,6.52,1.99c2.82-0.52,4.6-2.6,4.56-5.08
			h-12.11C178.89,18.11,178.88,18.21,178.88,18.32z"/>
	</g>
</g>
</svg>
